<svg width="374" height="82" viewBox="0 0 374 82" fill="none" xmlns="http://www.w3.org/2000/svg">
<g clip-path="url(#clip0_930_10897)">
<path d="M213.535 92.818C215.292 92.9777 217.05 93.2976 218.648 93.138C219.926 93.138 221.205 92.6577 222.483 92.3378C225.52 91.5376 228.556 90.7374 231.431 89.4569C233.509 88.6567 235.427 87.5366 237.504 87.3769C234.628 86.2568 231.592 86.0965 228.715 86.2568C225.04 86.5767 221.524 87.3769 217.849 87.6969C216.091 87.8565 214.174 88.0168 212.416 87.8565C211.138 87.6969 209.7 87.6969 208.581 87.0563C208.261 86.8967 207.942 86.5767 207.622 86.2568C206.983 85.136 207.622 83.6959 208.261 82.736C208.421 82.4154 208.741 82.0955 208.901 81.7755C209.06 81.4556 209.06 81.1356 209.22 80.9753C209.7 80.3354 210.179 79.6949 210.658 79.055C212.576 76.6544 214.973 74.5744 216.091 71.6936C216.571 70.2535 216.89 68.6531 216.73 67.213C216.411 68.0132 215.931 68.8127 215.452 69.6129C214.653 70.8934 213.535 71.8539 212.256 72.6541C211.617 73.1337 210.978 73.4536 210.339 73.6139C210.019 73.7742 209.7 73.9339 209.22 73.9339C208.741 74.0942 208.421 74.0942 207.942 74.0942C206.504 74.2538 204.586 73.9339 204.586 72.4938C204.586 72.0135 204.906 71.5333 205.385 71.2133C207.622 68.973 210.498 67.213 212.096 64.4922C213.694 61.6116 213.694 58.0909 213.535 54.7302C212.736 61.1315 207.942 66.7327 201.87 68.6531C200.431 69.1333 198.513 69.293 197.395 68.3331C196.596 67.5329 196.596 66.0922 197.236 65.2923C198.993 63.2119 201.87 61.9317 203.308 59.3712C204.426 57.4508 204.107 54.7302 202.669 53.1299C202.828 54.7302 202.509 56.3306 201.55 57.6108C200.591 58.8911 198.993 59.5312 197.395 59.2111C195.957 58.8911 194.678 57.1308 195.158 55.6905C195.318 54.8903 195.797 54.2502 196.436 53.7701C198.993 50.8895 202.029 48.489 205.385 46.5687C202.349 45.9285 198.993 46.8887 196.596 49.1292C195.637 49.9293 194.838 51.0495 193.879 51.8497C192.921 52.6499 191.483 53.13 190.364 52.8099C190.044 52.6499 189.725 52.4898 189.565 52.3298C189.405 52.0097 189.405 51.6897 189.565 51.3696C189.885 49.6092 190.684 47.8489 190.843 45.9285C191.003 44.0081 190.204 41.9277 188.446 41.2876C188.766 42.8879 188.926 44.6483 188.606 46.4086C188.287 48.489 187.328 50.4094 186.05 52.0097C185.41 52.6499 185.091 53.29 184.132 53.29C182.534 53.29 181.416 52.8099 180.457 51.3696C179.338 49.7693 178.859 47.3688 179.338 45.4485C180.297 41.9277 183.173 39.5273 186.05 37.4469C183.013 36.9668 179.818 37.9269 177.58 40.1674C175.184 42.4079 172.307 45.9285 169.91 43.8481C167.513 41.9277 169.43 37.7669 170.709 34.8864C171.028 34.0862 171.349 33.2861 171.508 32.4859C168.312 35.3664 164.637 37.6069 160.961 38.8872C152.013 41.9277 142.585 38.7271 136.833 31.6857C132.358 34.0862 126.605 34.4063 122.291 32.4859C118.935 31.0456 116.538 28.8051 114.621 25.9246C113.502 24.1643 112.703 21.7638 112.543 19.3633C110.786 22.5639 108.868 25.4445 106.471 27.845C103.914 26.8848 103.275 23.3641 102.955 20.3235C102.636 16.6428 102.316 12.9621 101.996 9.28131C100.718 15.2025 98.6408 20.8036 95.7642 25.9246C94.9659 27.5249 93.5272 29.1252 91.9292 28.9652C89.5328 28.6452 89.3727 24.8044 89.6922 22.0839C90.6513 15.0425 90.9707 7.84109 90.4912 0.639648C89.5328 10.2415 87.2951 19.5233 83.6201 28.3251C82.0221 25.4445 80.5841 22.4039 79.4656 19.2033C78.5065 16.1627 78.187 12.802 76.589 10.0815C76.7491 10.4016 74.9909 14.7224 74.352 15.6826C74.0325 16.3227 73.7124 16.8028 73.3929 17.2829C72.4345 18.5631 71.9549 19.8434 71.4754 21.4437C71.1559 22.5639 71.1559 22.724 70.1968 22.4039C69.7179 22.2439 69.2384 21.6038 68.9189 21.1236C68.1199 19.8434 67.8004 18.4031 67.4803 16.9629C66.6819 12.802 65.0838 8.80126 62.8462 5.44059C63.4858 9.60139 64.1248 13.7622 63.0063 17.763C62.6868 19.2033 62.0478 20.4836 61.2488 21.6038C60.7692 22.4039 60.2897 23.3641 59.8102 24.1643C58.0527 26.2446 55.8157 22.724 55.1761 21.4437C54.8566 20.8036 54.5371 20.0034 54.2177 19.3633C53.8982 18.7232 53.8982 18.0831 53.578 17.4429C52.6196 14.2423 51.5011 11.0417 49.9031 8.1611C49.104 6.72081 48.4651 5.44058 47.506 4.16033C47.0265 3.52021 46.707 2.88009 46.2274 2.23996C45.9079 1.9199 45.4284 1.27977 45.1089 0.959707C47.3459 6.56081 50.7021 21.2837 42.233 23.6841C37.1194 25.1244 39.0369 16.0026 37.2788 13.1221C36.9593 15.5225 36.6398 17.763 36.3203 20.1635C36.1603 21.4437 35.5213 24.4843 33.7632 24.0042C33.1242 23.8442 32.6447 22.884 32.3252 22.2439C30.8872 20.0034 29.6087 17.923 28.9697 15.2025C28.8096 14.7224 28.3308 9.12127 28.9697 9.12127C26.8921 9.12127 25.4541 11.3618 25.1347 13.6022C24.8152 15.8426 25.1347 18.083 25.1347 20.3235C24.9746 22.5639 24.0162 25.1244 22.0986 25.6046C20.5006 26.0846 19.062 25.1244 17.784 24.1643C16.6656 23.2041 15.7065 22.5639 14.2685 21.9238C12.351 20.9636 10.4334 20.1635 8.35591 19.3633C7.55688 19.0433 3.88158 18.7232 3.40216 17.9231C5.31975 21.1236 7.39708 24.3243 9.31493 27.3649C10.114 28.8051 11.3919 30.2454 11.7113 32.0058C12.0315 34.0862 10.2734 33.9262 8.83539 34.0862C6.91774 34.2462 5.31976 33.6061 3.88158 32.3258C0.685619 29.2853 -2.82989 25.4445 -5.22683 21.6038C-4.42787 24.4843 -3.62885 27.3649 -2.82989 30.4055C-2.51028 31.5257 -1.87112 32.966 -2.03086 34.2462C-2.03086 34.7263 -2.19067 35.0464 -2.19067 35.5265C-2.19067 36.1666 -2.03086 36.6467 -2.19067 37.2868C-2.67008 38.5671 -4.42786 38.4071 -5.70624 37.767C-6.98461 37.1268 -8.26298 36.4867 -9.22174 35.3664C-9.54135 35.0464 -9.86089 34.7263 -10.1805 34.4063C-11.1393 33.7661 -12.4176 33.4461 -13.696 33.126C-14.6548 32.8059 -15.7734 32.4859 -16.7322 32.1658C-17.0518 32.0058 -18.3301 32.0058 -18.6497 31.6857C-17.6909 32.966 -16.7322 34.2462 -15.9332 35.5265C-15.1342 36.6467 -14.3352 37.9269 -14.0156 39.3672C-13.696 40.3275 -13.5363 41.4477 -13.3765 42.5679C-13.2167 43.6881 -13.5362 45.1284 -14.6548 45.6084C-15.1342 45.9285 -15.7734 45.9285 -16.2527 45.9285C-17.8507 45.9285 -19.4487 45.6084 -20.8869 44.9684C-21.526 44.6483 -22.3251 44.1682 -22.9642 44.0082C-25.521 43.368 -28.0777 42.5679 -30.4746 41.1276C-29.8355 41.4476 -29.3561 42.5679 -28.8767 43.048C-28.3973 43.6881 -27.7581 44.4882 -27.2787 45.1284C-26.32 46.4086 -25.2013 47.8489 -24.0828 49.1292C-22.3251 51.0495 -19.9281 53.29 -21.0467 56.1705C-21.8456 58.571 -24.722 59.5312 -27.2787 59.2111C-34.3097 58.571 -39.4233 51.5296 -46.4543 50.8895C-42.779 55.2104 -38.7841 59.6913 -33.1912 60.6514C-32.3922 60.8115 -31.5933 60.8115 -30.954 61.2915C-30.3149 61.6116 -29.6757 62.4117 -29.9953 63.2119C-30.1551 64.0121 -30.954 64.3322 -31.753 64.6522C-34.3097 65.6124 -36.8665 66.2525 -39.583 66.4128C-40.8614 66.5724 -42.1398 66.5724 -43.578 66.5724C-44.0574 66.5724 -44.6965 66.4128 -45.1759 66.4128C-45.8151 66.4128 -46.4543 66.7327 -46.9337 66.8924C-48.3719 67.3726 -49.9698 67.6926 -51.408 68.1728C-50.9286 68.3331 -50.609 68.3331 -50.1296 68.4928C-45.8151 69.6129 -41.3408 70.4131 -36.8665 71.2133C-34.949 71.5333 -32.8716 71.0537 -30.954 71.0537C-28.8767 71.0537 -26.9591 71.0537 -24.8818 71.2133C-24.2426 71.2133 -23.6034 71.3736 -23.124 71.5333C-22.6446 71.8539 -22.3251 72.4938 -22.4849 72.974C-22.6446 73.294 -22.9642 73.6139 -23.124 73.7742C-25.521 75.3746 -28.2375 75.6946 -31.1138 75.8542C-32.7118 76.0145 -34.3097 76.0145 -36.0675 76.0145C-36.8665 76.0145 -37.6655 76.0145 -38.4645 76.0145C-39.1037 76.0145 -40.0624 76.0145 -40.7017 75.8542C-39.2635 76.3345 -37.6655 76.8147 -36.0675 77.1347C-35.2686 77.295 -34.4695 77.6149 -33.5108 77.7746C-32.8716 77.9349 -32.2324 78.0952 -31.5933 78.0952C-30.954 78.0952 -30.4746 78.0952 -29.8355 78.0952C-28.3973 78.2548 -26.9591 78.2548 -25.521 78.4151C-24.722 78.4151 -23.923 78.5748 -23.2838 78.8947C-22.6446 79.2153 -22.0054 79.8552 -21.8456 80.6554C-24.2426 83.2156 -27.7582 83.056 -30.954 83.6959C-32.0726 83.8562 -33.1912 84.0158 -34.3097 84.1761C-36.5469 84.4961 -38.7841 84.6564 -41.0212 84.816C-45.4955 85.136 -49.9698 85.136 -54.4441 84.816C-55.0833 84.816 -55.8823 84.6564 -56.5215 84.6564C-50.609 88.1771 -43.578 89.9372 -36.5469 89.4569C-35.2686 89.2973 -33.9902 89.2973 -32.8716 89.6172C-31.753 90.0975 -30.6344 91.2176 -30.954 92.4974C-31.1139 93.2976 -31.9128 93.9382 -32.552 94.4177C-33.8304 95.2179 -35.2686 95.8585 -36.7067 96.1784C-33.9902 96.4984 -31.2737 96.0181 -28.8767 94.7383C-27.9179 94.2581 -26.9591 93.6182 -25.8406 93.6182C-24.722 93.6182 -23.6034 94.4177 -23.7632 95.5385C-23.923 96.3387 -24.722 96.8183 -25.521 97.2986C-26.7993 97.9385 -28.0777 98.4187 -29.3561 99.0593C-30.3149 99.3792 -31.2737 99.6992 -31.9128 100.499C-32.7118 101.459 -33.8304 102.1 -34.7892 102.74C-35.4284 103.06 -35.9077 103.54 -36.5469 103.86C-36.8665 104.02 -37.8253 104.82 -38.3047 104.82C-33.1912 105.621 -27.9179 104.18 -23.7632 101.139C-21.3662 99.3792 -19.4487 97.2986 -17.2116 95.5385C-16.2527 94.7383 -15.294 94.0978 -14.3352 93.4579C-13.5363 92.818 -12.0981 92.6577 -11.1393 93.138C-9.86089 93.7779 -8.74233 95.5385 -9.22174 96.9786C-9.38155 97.6185 -9.86089 98.0988 -10.1805 98.579C-10.6599 99.3792 -11.1393 100.179 -11.4589 101.139C-13.2167 104.5 -15.4538 107.381 -18.3301 109.781C-12.4176 108.981 -6.8248 106.421 -2.19067 102.42C0.685684 100.019 3.40216 96.8183 6.91773 94.898C7.8765 94.4177 8.9948 93.9381 10.114 93.9381C11.5519 93.9381 12.8305 94.7383 13.4695 96.1784C13.949 97.2986 13.3094 98.579 12.8305 99.6992C12.0315 102.42 10.2734 105.14 7.55689 106.58C11.7113 107.22 15.2269 103.38 18.423 100.179C19.062 99.5389 19.7016 98.7387 20.5006 98.0988C21.1396 97.6185 22.0986 96.4984 22.8977 96.3387C23.0571 96.9786 24.3356 96.8183 24.8152 96.9786C25.9337 97.2986 26.2532 98.579 26.2532 99.6992C26.2532 102.1 25.9337 104.66 25.1347 107.061C26.8921 106.421 27.6911 104.5 28.4902 102.9C29.2892 101.3 30.7272 99.5389 32.6447 99.6992C34.2427 99.8588 35.2018 101.459 35.8408 102.9C36.4797 104.34 36.9593 105.94 38.3979 106.9C38.3979 104.02 38.3979 101.3 38.3979 98.4187C38.3979 98.0988 38.3979 97.6185 38.8768 97.4589C39.1963 97.2986 39.5164 97.4589 39.6758 97.6185C44.9495 101.139 49.2641 106.26 51.98 112.182C53.578 111.062 53.7381 108.821 53.2586 107.061C52.779 105.3 51.8206 103.54 51.6605 101.78C51.5011 99.8588 52.6196 97.7788 54.3771 97.6185C55.4956 97.6185 57.0936 98.2591 58.2121 98.579C58.5322 98.7387 58.8517 98.899 59.1712 99.2189C61.0887 100.819 62.5267 102.74 63.6452 104.98C63.8053 101.939 63.8053 98.899 63.9653 95.8585C66.2023 93.9381 69.2384 94.7383 71.6354 96.3387C73.8724 98.0988 75.6299 100.499 77.7075 102.42C81.7026 105.94 87.2951 107.381 92.2493 105.94C89.8522 104.82 88.2542 102.9 87.1357 100.659C86.6561 99.6992 86.1766 98.579 86.6561 97.6185C87.1357 96.6587 88.2542 96.1784 89.2126 96.1784C92.2493 96.0181 94.8058 96.3387 98.0019 97.1383C100.079 97.6185 102.316 98.579 103.435 100.659C104.553 102.74 103.435 106.26 101.357 106.1C103.275 108.661 107.11 106.741 109.027 104.18C110.945 101.62 112.543 98.2591 115.579 97.6185C122.451 96.1784 125.327 110.581 132.198 109.941C131.559 108.341 130.92 106.741 130.6 105.14C130.44 104.34 130.28 103.54 130.121 102.74C129.961 102.259 129.641 101.939 129.801 101.459C130.121 99.3792 133.476 99.3792 134.755 100.179C135.394 100.659 135.873 101.3 136.512 101.78C137.951 103.06 139.869 104.02 141.626 104.98C144.343 106.58 147.219 107.861 150.255 109.141C149.456 108.821 148.497 106.421 148.178 105.621C147.539 104.18 146.9 102.74 146.42 101.3C146.101 100.339 144.822 97.6185 146.26 97.6185C147.379 97.4589 149.456 99.6992 150.415 100.339C154.09 102.74 157.766 103.06 161.76 103.7C165.117 104.18 168.631 104.66 171.988 105.14C172.787 102.259 168.472 100.819 167.992 97.9385C167.673 95.5385 170.39 93.6182 172.467 94.2581C174.225 94.7384 175.823 95.8585 176.462 97.6185C176.941 98.579 177.421 99.3792 178.22 100.179C180.137 101.939 182.374 103.38 184.931 104.18C187.647 104.98 190.364 105.14 193.24 105.3C194.998 105.46 196.756 105.46 198.513 105.621C196.596 105.14 194.678 104.02 193.4 102.42C192.761 101.78 192.281 100.98 192.122 100.179C191.962 99.2189 192.601 96.9786 193.879 96.4984C194.998 96.0181 196.596 96.1784 197.874 96.4984C199.473 96.9786 200.911 97.6185 202.348 98.2591C203.148 98.579 204.107 98.899 205.065 99.2189C205.705 99.3792 206.184 99.8588 206.823 100.019C208.741 100.659 210.658 100.98 212.576 101.62C213.854 101.939 215.292 102.259 216.571 102.42C218.968 102.579 221.364 101.779 223.442 100.339C221.844 100.98 220.086 100.179 218.648 99.3792C217.05 98.579 215.452 97.6185 213.854 96.8183C213.055 96.3387 210.339 95.5386 210.339 94.2581C210.339 92.3378 212.416 92.818 213.535 92.818Z" fill="#FDC232"/>
<path d="M148.339 54.5707C150.097 57.2913 153.293 59.0516 156.489 58.5715C155.53 56.3311 154.891 53.9306 154.411 51.5301C154.092 50.2499 154.092 48.4896 155.21 47.8494C156.808 47.0493 158.406 48.8096 159.205 50.4099C160.324 52.6503 161.442 55.3709 159.844 57.2913C162.561 55.6909 163.999 52.1703 163.2 49.1296C163.839 48.0094 165.597 48.6496 166.076 49.7698C166.556 50.89 166.396 52.1703 166.716 53.4505C167.035 55.3709 168.634 56.9712 170.391 57.4513C172.309 57.9314 174.386 57.4513 175.664 56.011C173.907 55.5309 171.989 54.8908 171.19 53.1304C170.551 51.8502 171.35 49.6098 172.947 49.6098C174.706 49.6098 175.025 52.0102 175.984 52.9704C178.541 55.6909 178.86 49.1296 179.02 47.8494C179.18 45.609 179.819 43.6886 181.257 41.9283C181.896 41.1281 182.695 40.3279 183.494 39.5277C183.814 39.2077 185.572 37.4473 185.891 37.6074C182.855 37.1273 179.659 38.0875 177.422 40.3279C175.025 42.5684 172.148 46.089 169.752 44.0086C167.355 42.0883 169.272 37.9275 170.551 35.0469C173.108 28.9657 171.19 20.8041 166.236 16.9633C167.514 24.1648 163.999 32.1663 157.927 35.367C156.808 36.0071 155.21 36.1671 154.731 35.0469C154.571 34.5668 154.571 33.9267 154.731 33.2865C155.37 28.9657 156.169 24.8049 157.128 20.484C155.69 23.5246 154.092 26.7252 151.375 28.8057C149.937 29.9259 147.7 30.8861 145.942 30.246C145.303 30.0859 144.824 29.2857 144.344 28.8057C143.545 27.5254 143.545 26.0851 143.705 24.6448C143.864 23.3646 144.344 22.4044 144.824 21.2842C146.102 18.5637 147.7 16.0032 149.618 13.7627C150.576 12.6425 151.535 11.5223 152.654 10.402C153.133 9.92193 153.772 9.28183 154.252 8.80171C154.571 8.64167 154.731 8.32166 155.051 8.16162C155.21 8.00158 155.53 7.6815 155.53 7.6815C150.417 8.00158 145.463 10.402 142.267 14.4028C141.148 15.6831 140.35 17.1234 139.39 18.5637C138.591 19.8439 137.792 21.2842 136.834 22.5645C136.514 23.0445 136.354 23.5246 136.194 24.0047C135.875 24.9649 134.756 25.605 134.117 25.9251C132.519 26.8853 130.761 26.2452 129.962 24.4848C129.643 23.8447 129.803 22.7245 129.803 22.0843C129.962 20.8041 130.442 19.6839 131.081 18.7236C132.679 15.523 134.277 12.1624 136.674 9.44187C133.797 10.242 131.081 11.8423 128.844 13.9227C128.364 14.4028 127.885 14.8829 127.406 15.523C126.767 16.4832 126.447 17.7635 126.127 18.8837C125.488 20.9641 124.21 22.8845 122.772 24.6448C122.133 25.285 121.334 25.7651 120.535 25.7651C119.895 25.7651 119.256 25.7651 118.777 25.285C118.297 24.6448 117.978 23.8447 117.818 23.2046C117.339 21.6042 117.499 20.004 117.658 18.5637C117.978 16.1632 118.777 13.9227 118.617 11.5223C118.297 8.00158 116.06 4.96098 113.983 2.08042C114.782 5.28104 114.942 8.80171 114.462 12.1624C114.303 13.9227 113.823 15.6831 113.344 17.2834C112.544 19.8439 111.267 22.7245 108.87 24.1648C107.591 24.9649 105.993 25.125 104.874 24.3248C103.756 23.5246 103.276 22.2444 103.117 20.9641C102.957 20.004 103.117 19.0437 103.117 18.0835C103.276 16.9633 103.436 15.6831 103.596 14.5629C103.916 13.4427 104.235 12.3224 104.715 11.2022C104.874 10.7221 105.194 10.082 105.513 9.60191C105.673 9.44187 106.153 8.16162 106.312 8.16162C104.395 8.16162 102.477 9.12179 100.879 10.082C99.9208 10.7221 98.8023 11.5223 98.4829 12.8025C98.0033 13.9227 98.0033 15.043 97.8433 16.1632C97.6839 18.4036 97.0442 20.8041 96.4053 22.8845C96.0858 24.0047 95.6063 25.285 94.9673 26.2452C94.3277 27.5254 93.3693 29.4458 91.6111 29.1257C89.2147 28.8057 89.0547 24.9649 89.3741 22.2444C89.5342 21.4442 89.5342 20.644 89.6936 19.6839C89.6936 19.0437 89.6936 18.4036 89.8537 17.6034C90.0131 16.8033 90.3332 16.0032 90.4926 15.203C90.6527 14.4028 90.9722 13.6027 91.1323 12.8025C91.6111 11.0421 91.9313 9.28183 92.0907 7.36142C92.2508 4.80095 91.6111 2.24044 90.4926 0C90.6527 3.52069 87.9362 6.56129 86.9771 10.082C86.4982 12.0024 86.4982 14.0828 86.1781 16.1632C86.0186 17.4435 85.5391 18.8837 84.58 19.8439C84.2605 20.324 83.7816 20.8041 83.142 20.644C82.8225 20.644 82.6625 20.484 82.343 20.324C81.3846 19.6839 80.745 18.8837 80.2661 17.9235C79.6265 16.4832 79.6265 15.043 79.467 13.4427C79.307 10.5621 79.1469 7.6815 79.6265 4.96098C77.869 5.76114 75.9515 6.72133 74.833 8.16162C72.2758 11.3622 73.2349 16.6433 70.0388 19.2038C69.7194 19.5238 69.2398 19.6839 68.7603 19.6839C67.9612 19.5238 67.8018 18.4036 67.8018 17.6034C67.8018 14.883 67.8018 12.0024 67.0028 9.44187C66.2038 6.88137 64.1262 4.32085 61.5697 4.00078C62.2087 5.92116 62.6882 7.84154 63.1678 9.76195C63.3272 10.7221 63.4872 11.6823 63.6467 12.6425C63.8067 14.4028 63.6467 16.0032 63.1678 17.7635C62.8483 19.2038 62.2087 20.484 61.4096 21.6042C60.9301 22.4044 60.4512 23.3646 59.9717 24.1648C58.2142 26.2452 55.9766 22.7245 55.3376 21.4442C55.0181 20.8041 54.6987 20.004 54.3785 19.3638C54.059 18.7237 54.059 18.0835 53.7396 17.4435C52.7811 14.2428 51.662 11.0422 50.0646 8.16162C49.2656 6.72133 48.6259 5.44108 47.6675 4.16082C47.188 3.5207 46.8685 2.88058 46.3889 2.24045C46.0695 1.92039 45.5899 1.28026 45.2704 0.960198C47.5074 6.5613 50.8629 21.2842 42.3938 23.6847C37.2809 25.125 39.1984 16.0032 37.4403 13.1226C37.1208 15.523 36.8013 17.7635 36.4818 20.164C36.3218 21.4442 35.6828 24.4848 33.9247 24.0047C33.2858 23.8447 32.8062 22.8845 32.4867 22.2444C31.0488 20.004 29.7702 17.9235 29.1312 15.203C28.9712 14.7229 28.4916 9.12179 29.1312 9.12179C27.0536 9.12179 25.6157 11.3622 25.2955 13.6027C24.976 15.8431 25.2955 18.0835 25.2955 20.324C25.1361 22.5645 24.177 25.125 22.2595 25.605C20.6615 26.0851 19.2235 25.125 17.9449 24.1648C16.8264 23.2045 15.868 22.5645 14.4293 21.9243C12.5118 20.9641 10.5943 20.164 8.51716 19.3638C7.71821 19.0437 4.0429 18.7236 3.56349 17.9235C4.36251 19.2038 5.16147 20.644 6.12023 21.9243C6.59964 22.5645 6.91925 23.2046 7.3986 24.0047C7.71821 24.4848 8.03782 25.445 8.67677 25.9251C8.99691 26.2452 9.31638 26.2452 9.79527 26.5653C10.5943 26.8853 11.3933 27.2053 12.1923 27.6855C13.4709 28.4856 14.7495 29.7658 14.5894 31.5262C14.4293 33.6066 12.1923 34.8868 10.1154 35.687C6.59964 36.8073 2.92433 37.1273 -0.750977 36.6472C1.48616 39.5278 5.16147 40.808 8.83684 40.808C12.5118 40.808 16.0274 39.8478 19.3835 38.7276C20.0225 38.5676 20.6615 38.4075 21.3011 38.7276C21.7806 39.0477 22.1001 39.5278 22.2595 40.1679C23.2186 43.2085 22.1001 46.7292 19.703 48.6496C23.2186 48.3295 26.4147 46.0891 27.8527 42.8884C28.9712 40.488 30.0897 37.1273 32.4867 37.6074C33.1257 40.0078 32.8062 42.5683 31.5276 44.6488C33.6052 44.0086 35.3627 42.4083 36.1617 40.3279C36.6413 39.0477 36.9607 37.6074 38.0792 36.8073C39.5179 35.847 41.5948 36.9673 42.3938 38.2475C42.5539 38.7276 42.5539 39.0477 42.5539 39.5277C42.5539 40.808 42.7133 41.9283 43.0334 43.0485C43.6724 45.2889 45.1104 47.5293 46.8685 49.1296C46.3889 48.6495 46.2289 46.7292 46.2289 46.0891C46.0695 44.9688 46.2289 43.8486 46.3889 42.7284C46.549 41.7682 47.0279 40.808 47.348 39.6878C47.6675 38.5676 48.1464 37.6074 48.786 36.6472C49.2656 35.8471 50.224 35.0469 51.1831 35.367C51.822 35.687 51.9821 36.6472 52.3016 37.2873C52.6211 38.0875 52.7811 38.8876 52.9405 39.6878C53.26 41.2881 53.1006 43.0485 52.6211 44.6488C54.3785 44.3287 55.3376 42.5683 55.8172 40.808C56.296 39.2077 56.4561 37.2873 57.4152 35.8471C58.3736 34.4068 60.6106 33.6066 61.8892 34.8868C62.3687 35.527 62.5282 36.3271 62.6882 37.1273C63.0077 40.488 62.2087 43.8486 60.2912 46.7292C63.4873 46.8892 66.6833 44.6488 67.8018 41.6082C68.4408 39.6878 68.7603 37.1273 70.6778 36.8073C72.2758 36.4872 73.5544 37.9275 73.8739 39.5277C74.1934 41.1281 73.8739 42.5684 73.8739 44.1687C73.8739 47.8494 76.271 51.3701 79.6265 52.8104C78.8274 50.73 78.1885 48.4895 77.869 46.2491C77.5495 44.1687 77.3895 42.0883 78.1885 40.1679C78.9875 38.2475 80.905 36.8073 82.9826 36.9673C84.4206 37.1273 85.8586 38.4075 86.0186 40.0078C86.3381 41.4481 85.5391 43.2085 84.1011 43.8486C85.6992 44.8088 87.4566 42.8884 88.2556 41.2881C89.0547 39.6878 90.6527 37.6074 92.2508 38.4075C93.0498 38.7276 93.3693 39.5278 93.6887 40.488C94.4878 43.0485 94.3277 45.769 94.9673 48.3295C95.7663 50.89 98.0033 53.4505 100.56 52.8104C99.1218 49.6098 98.4829 46.089 98.6423 42.7284C98.6423 41.7682 98.8024 40.648 99.4413 39.8478C100.08 39.0477 101.359 38.5676 102.158 39.2077C103.117 40.0078 103.276 42.0883 103.436 43.2085C103.596 44.3287 103.436 45.609 103.276 46.7292C105.194 46.8892 107.111 45.9291 108.07 44.1687C108.709 43.0485 108.709 41.6082 109.189 40.488C109.669 39.3678 110.946 38.2475 112.066 38.5676C113.184 38.8876 113.663 40.0079 113.983 41.1281C115.261 45.4489 114.622 50.0898 112.544 54.0906C114.303 53.9306 115.741 52.9704 116.7 51.5301C117.658 50.0898 117.978 48.3295 118.297 46.7292C118.457 45.4489 118.457 44.1687 118.937 42.8884C119.416 41.6082 120.375 40.488 121.653 40.3279C123.73 40.0079 125.328 42.4083 125.169 44.4888C125.009 46.5691 123.571 48.3295 122.292 49.9298C123.73 51.21 126.127 50.0898 127.566 48.8096C128.684 47.8494 129.803 47.5293 130.921 46.4091C131.72 45.4489 132.519 44.3287 133.638 44.0086C135.715 43.2085 137.952 45.2889 138.272 47.3693C138.591 49.6098 137.473 51.6901 136.354 53.4505C138.911 53.2905 141.308 51.2101 141.788 48.6496C142.107 46.7292 141.788 44.1687 143.705 43.3685C145.303 42.7284 146.901 44.1687 147.38 45.769C147.86 47.3693 147.38 49.1296 147.54 50.73C147.221 52.3303 147.7 53.4505 148.339 54.5707Z" fill="#FDD44C"/>
<path d="M213.535 92.8188C215.293 92.9785 217.051 93.2991 218.649 93.1388C219.927 93.1388 221.206 92.6585 222.484 92.3386C225.52 91.5384 228.556 90.7382 231.433 89.4577C233.51 88.6582 235.427 87.5374 237.505 87.3777C234.628 86.2576 231.592 86.0973 228.716 86.2576C225.36 86.4172 222.165 87.2174 218.809 87.5374C218.649 87.5374 218.33 87.5374 218.17 87.6977C218.009 87.858 218.009 87.858 217.85 88.0176C217.531 88.0176 217.21 87.858 217.21 87.5374C217.051 87.0578 217.531 86.5775 217.85 86.2576C218.489 85.4574 219.128 84.8168 219.927 84.0166C218.489 84.8168 216.891 85.4574 215.293 86.0973C214.335 86.4172 212.897 86.5775 212.736 85.617C212.576 84.9771 213.056 84.1769 213.695 83.857C216.252 81.7763 219.128 80.1759 222.324 79.0558C220.247 78.8962 218.17 79.0558 216.092 79.536C214.814 79.856 213.695 80.3362 212.576 80.9761C210.02 82.4169 207.783 84.3372 205.066 85.7773C203.788 86.4172 202.509 87.0578 201.071 87.3777C200.752 87.3777 200.272 87.5374 199.953 87.5374C199.633 87.6977 199.314 87.6977 198.994 87.6977C197.556 87.3777 196.437 86.2576 195.798 84.8168C195.478 84.1769 195.479 83.3767 195.479 82.5765C195.479 82.2566 195.638 81.9366 195.798 81.6167C195.798 81.4564 196.118 80.8165 196.277 80.8165C194.36 80.6562 194.2 83.537 193.721 85.4574C193.082 88.4979 189.566 90.5785 186.53 89.7783C186.051 89.618 185.571 89.4577 185.411 88.9781C184.613 87.858 186.051 86.4172 187.009 85.4574C188.927 83.537 189.566 80.4965 188.767 77.9357C187.808 75.3754 185.411 73.2948 182.694 72.9748C183.174 75.5351 183.015 78.096 182.215 80.4965C181.256 83.0568 178.7 85.617 176.303 84.4969C174.705 83.857 173.906 81.7763 174.225 80.0163C174.545 78.2556 175.664 76.8155 176.942 75.5351C174.545 75.5351 172.947 77.776 171.189 79.3757C169.432 80.9761 166.076 81.7763 165.117 79.536C164.798 78.5756 164.957 77.6157 165.277 76.6552C166.555 72.3349 168.473 68.1736 170.87 64.3331C168.792 64.4931 166.875 66.0936 165.756 67.8537C164.638 69.6144 163.839 71.6944 162.72 73.6147C160.483 77.4554 156.648 80.3362 152.333 81.2961C153.452 77.6157 155.53 74.2553 158.086 71.5347C154.731 73.6147 151.534 75.6954 148.179 77.776C147.699 78.096 147.06 78.4159 146.421 78.5762C144.823 78.7358 143.704 76.9758 143.545 75.3754C143.385 73.775 143.864 72.1746 143.545 70.5742C143.225 68.9738 141.787 67.3734 140.189 67.8537C141.467 69.9343 141.467 72.4946 141.467 74.7349C141.627 76.8155 138.431 77.2958 136.993 76.6552C135.235 75.8557 134.436 73.775 133.957 72.0143C132.998 68.014 133.797 63.693 135.874 60.1722C134.276 60.4923 132.519 60.9724 131.081 61.6125C130.601 61.7726 130.122 62.0927 129.802 62.4127C129.323 63.0528 129.483 63.853 129.483 64.6532C129.802 66.8938 129.802 69.2938 128.843 71.3744C127.885 73.4551 125.488 74.8952 123.251 74.2553C125.008 70.8942 124.05 66.2533 121.013 63.853C121.173 65.6133 121.333 67.694 120.214 69.1341C119.255 70.7345 116.699 71.2141 115.58 69.774C115.101 69.1341 115.101 68.1736 115.101 67.3734C115.261 64.8132 116.219 62.0927 117.977 60.1722C115.58 59.2121 113.183 61.4525 112.065 63.6929C110.946 66.0936 110.626 68.6539 108.869 70.5742C108.23 71.2141 107.431 71.8547 106.472 71.5347C105.353 71.2141 105.034 69.774 105.353 68.8142C105.673 67.694 106.312 66.8938 106.791 65.9333C107.75 63.853 107.431 61.4525 106.152 59.6922C104.874 57.9318 102.637 56.8116 100.4 57.1316C103.755 59.8522 103.436 65.773 99.9201 68.1736C99.2811 68.6539 98.4821 68.9738 97.8425 68.4936C97.3636 68.1736 97.3636 67.5337 97.2035 67.0535C96.724 63.2129 94.8065 59.052 91.1315 58.2519C93.049 60.9724 94.0074 64.4931 93.848 67.8537C93.848 69.6144 93.5285 71.2141 92.8889 72.8145C92.5695 73.6147 92.25 74.4149 91.7704 75.0555C91.611 75.3754 91.451 75.8557 91.1315 76.0153C90.4919 76.4956 89.3734 76.0153 89.0539 75.2151C88.2549 73.1351 86.6568 71.2141 84.5799 70.4146C86.4974 72.6549 85.2188 76.6552 82.5023 77.776C79.7858 78.7359 76.4303 76.9758 75.3118 74.095C74.3527 71.3744 75.4712 68.014 77.7082 66.0936C75.9507 66.2533 74.1926 67.5337 73.7137 69.2938C73.0741 71.3744 72.5952 73.2948 71.9556 75.3754C71.6361 76.6552 70.8371 77.6157 70.0381 78.2556C68.2806 79.536 65.8835 78.096 65.7235 76.0153C65.404 72.3349 63.3271 68.9738 60.2904 67.0535C60.7699 69.6144 61.4089 72.1746 60.4505 74.7349C59.6514 77.1355 56.7748 79.0558 54.3784 78.096C52.6203 77.2958 51.8213 75.2151 51.9813 73.2948C52.1407 71.3744 53.0998 69.6144 53.8989 67.8537C52.1407 68.1736 51.1823 69.9343 50.7028 71.6944C50.2232 73.4551 50.2232 75.2151 49.2648 76.8155C48.3057 78.4159 46.2288 79.3757 44.7901 78.2556C45.4297 74.4149 42.2337 70.5742 38.3986 70.4146C39.1976 73.6147 39.6772 77.9356 36.4811 79.2161C34.2441 80.1759 31.5275 78.7359 30.7285 76.3353C29.1305 72.1746 31.847 68.9738 33.6045 65.4533C31.6869 65.2933 29.1305 66.4136 27.5324 67.5337C26.2539 68.4936 23.3779 71.5347 21.9393 69.1341C23.3779 63.5329 25.9344 58.0919 29.4499 53.451C27.8519 53.2909 26.0944 54.2511 25.1354 55.6914C24.1769 57.1317 23.5373 58.732 22.8983 60.1722C22.5789 60.6524 22.2587 61.2925 21.7798 61.4525C21.1402 61.6125 20.6613 60.9724 20.3412 60.6524C18.5838 58.732 16.8256 56.6516 14.9081 54.7312C15.5477 57.6117 17.1458 60.0122 17.9448 62.7327C18.7438 65.4533 18.4237 68.9738 16.1867 70.5742C14.7487 67.8537 12.6711 65.4533 10.1146 63.853C11.0731 64.4931 11.8721 66.4136 12.1916 67.5337C12.3516 68.014 12.5117 68.3339 12.5117 68.8142C12.6711 69.6144 12.5117 70.2543 12.0322 70.8942C10.5942 72.8145 8.19698 72.6549 6.599 70.8942C5.80005 69.9343 5.16082 68.8142 4.52161 67.694C3.0835 65.1332 1.32571 62.7328 -0.911419 60.8124C0.0473442 62.7328 1.00611 64.8132 1.16591 67.0535C1.32571 69.2938 0.207146 71.6944 -1.87025 72.3349C-3.94757 69.1341 -6.82393 66.5732 -10.3394 65.1332C-9.38066 66.7335 -8.42191 68.3339 -7.46308 70.094C-7.14347 70.7345 -6.66412 71.5347 -6.82392 72.1746C-6.98373 74.2553 -9.86002 74.4149 -11.458 74.4149C-12.8962 74.2553 -13.6951 73.4551 -14.4942 72.3349C-16.5715 69.1341 -19.6076 65.9333 -23.7624 65.4533C-20.2468 68.6539 -20.087 70.7345 -18.4891 73.6147C-18.0097 74.5752 -17.8498 75.5351 -17.69 76.4956C-17.69 77.2958 -17.69 77.9357 -18.0097 78.7358C-18.1695 79.2161 -18.4891 80.0163 -18.9684 80.4965C-19.4478 80.8165 -20.2468 80.8165 -20.7262 80.8165C-21.5252 80.8165 -22.3242 80.4965 -23.1231 80.0163C-24.0819 79.3757 -25.0407 78.5762 -25.9995 78.096C-26.4789 77.9357 -26.6386 77.776 -26.9583 77.4554C-27.917 76.4956 -29.0356 75.5351 -30.1542 74.7349C-31.2728 73.9347 -32.5511 73.2948 -33.8295 72.6549C-34.4687 72.3349 -35.2677 72.0143 -35.9068 71.8547C-36.2265 71.6944 -36.5461 71.6944 -36.8657 71.5347C-37.0254 71.5347 -37.345 71.3744 -37.5048 71.3744C-37.345 71.5347 -37.0254 71.6944 -36.8657 71.8547C-35.4275 72.9748 -34.1491 74.095 -33.0306 75.3754C-32.3913 76.0153 -31.9119 76.6552 -31.4326 77.4554C-30.9532 78.096 -30.4738 78.7359 -30.314 79.536C-29.9944 80.9761 -30.6336 82.4169 -31.7522 83.537C-32.8708 84.4969 -34.1491 85.1374 -35.5873 85.4574C-36.2265 85.617 -36.8657 85.7773 -37.5048 85.7773C-38.6234 85.7773 -39.742 85.617 -40.8605 85.617C-42.6183 85.617 -44.3761 85.7773 -46.2936 85.7773C-49.17 85.7773 -52.0463 85.7773 -54.9226 85.617C-55.5618 85.617 -56.3608 85.4574 -57 85.4574C-51.0875 88.9781 -44.0565 90.7382 -37.0254 90.2579C-35.747 90.0983 -34.4687 90.0983 -33.3501 90.4182C-32.2315 90.8985 -31.113 92.0186 -31.4326 93.299C-31.5924 94.0992 -32.3913 94.7391 -33.0306 95.2194C-34.3089 96.0196 -35.747 96.6595 -37.1852 96.9794C-34.4687 97.2994 -31.7522 96.8191 -29.3552 95.5393C-28.3964 95.0591 -27.4377 94.4192 -26.3191 94.4192C-25.2005 94.4192 -24.0819 95.2194 -24.2417 96.3395C-24.4015 97.1397 -25.2005 97.6193 -25.9995 98.0996C-27.2779 98.7401 -28.5562 99.38 -29.8346 99.8603C-30.7934 100.18 -32.0717 101.14 -32.8708 101.781C-33.6697 102.421 -34.4687 103.06 -35.2677 103.541C-35.9068 103.861 -36.3863 104.341 -37.0254 104.661C-37.345 104.821 -38.3038 105.621 -38.7832 105.621C-33.6697 106.422 -28.3964 104.981 -24.2417 101.94C-21.8448 100.18 -19.9272 98.0996 -17.69 96.3395C-16.7313 95.5393 -15.7725 94.8988 -14.8138 94.2589C-14.0147 93.619 -12.5766 93.4587 -11.6178 93.9389C-10.3394 94.5788 -9.22086 96.3395 -9.70028 97.7796C-9.86002 98.4195 -10.3394 98.8998 -10.659 99.38C-11.1384 100.18 -11.6178 100.98 -11.9374 101.94C-13.6951 105.301 -15.9323 108.182 -18.8087 110.582C-12.8962 109.782 -7.30327 107.222 -2.6692 103.221C0.20715 100.82 2.92369 97.6193 6.4392 95.699C7.39796 95.2194 8.51653 94.7391 9.63509 94.7391C11.0731 94.7391 12.3516 95.5393 12.9906 96.9794C13.4701 98.0996 12.8312 99.38 12.3516 100.5C11.5526 103.221 9.79517 105.941 7.07842 107.381C11.2331 108.022 14.7487 104.181 17.9448 100.98C18.5838 100.34 19.2227 99.5397 20.0217 98.8998C20.6613 98.4195 21.6198 97.2994 22.4188 97.1397C22.5789 97.7796 23.8568 97.6193 24.3363 97.7796C25.4548 98.0996 25.7743 99.38 25.7743 100.5C25.7743 102.901 25.4548 105.461 24.6558 107.862C26.4139 107.222 27.2129 105.301 28.012 103.701C28.811 102.101 30.249 100.34 32.1665 100.5C33.7645 100.66 34.723 102.26 35.3626 103.701C36.0015 105.141 36.4811 106.741 37.9191 107.701C37.9191 104.821 37.9191 102.101 37.9191 99.2197C37.9191 98.8998 37.9191 98.4195 38.3986 98.2599C38.7181 98.0996 39.0376 98.2599 39.1976 98.4195C44.4706 101.94 48.7852 107.061 51.5018 112.983C53.0998 111.863 53.2592 109.622 52.7804 107.862C52.3008 106.102 51.3417 104.341 51.1823 102.581C51.0222 100.66 52.1407 98.5798 53.8989 98.4195C55.0174 98.4195 56.2959 98.8998 57.4144 99.2197C57.7339 99.38 58.3729 99.7 58.5329 99.8603C60.4505 101.461 61.8884 103.381 63.0069 105.621C63.167 102.581 63.167 99.5397 63.3271 96.4992C65.5641 94.5788 68.6001 95.379 70.9972 96.9794C73.2342 98.7401 74.9916 101.14 77.0692 103.06C81.0643 106.581 86.6568 108.022 91.611 106.581C89.214 105.461 87.6159 103.541 86.4974 101.3C86.0179 100.34 85.5383 99.2197 86.0179 98.2599C86.4974 97.2994 87.6159 96.8191 88.5744 96.8191C91.611 96.6595 94.1675 96.9794 97.3636 97.7796C99.4405 98.2599 101.678 99.2197 102.797 101.3C103.915 103.381 102.797 106.902 100.719 106.741C102.637 109.302 106.472 107.381 108.389 104.821C110.307 102.26 111.905 98.8998 114.941 98.2599C121.813 96.8198 124.688 111.222 131.56 110.582C130.921 108.982 130.282 107.381 129.962 105.781C129.802 104.981 129.642 104.181 129.483 103.381C129.323 102.901 129.003 102.581 129.163 102.101C129.483 100.02 132.838 100.02 134.117 100.82C134.756 101.3 135.235 101.94 135.874 102.421C137.313 103.701 139.23 104.661 140.988 105.621C143.704 107.222 146.581 108.501 149.617 109.782C148.818 109.462 147.859 107.061 147.539 106.261C146.9 104.821 146.261 103.381 145.782 101.94C145.462 100.98 144.184 98.2599 145.622 98.2599C146.74 98.0996 148.818 100.34 149.776 100.98C155.849 104.981 161.761 103.381 169.751 106.261C170.39 105.941 170.71 105.781 171.349 105.461C171.829 102.74 167.834 101.3 167.354 98.4195C167.035 96.0196 169.751 94.0986 171.829 94.7391C173.586 95.2194 175.184 96.3395 175.823 98.0996C176.622 100.18 177.741 101.14 181.256 103.221C182.215 103.861 183.334 104.341 184.452 104.661C187.009 105.461 189.726 105.621 192.442 105.781C194.2 105.941 195.958 105.941 197.716 106.102C195.798 105.621 193.881 104.501 192.602 102.901C191.963 102.26 191.484 101.461 191.324 100.66C191.164 99.7 191.803 97.4597 193.082 96.9794C194.2 96.4992 195.798 96.6595 197.076 96.9794C198.674 97.4597 200.113 98.0996 201.551 98.7401C202.35 99.0601 203.308 99.38 204.267 99.7C204.906 99.8603 205.386 100.34 206.025 100.5C207.942 101.14 209.86 101.461 211.777 102.101C213.056 102.421 214.494 102.74 215.772 102.901C218.17 103.06 220.567 102.26 222.644 100.82C221.046 101.461 219.288 100.66 217.85 99.8603C216.252 99.0601 214.654 98.0996 213.056 97.2994C212.257 96.8191 209.54 96.0196 209.54 94.7391C210.339 92.3386 212.417 92.8188 213.535 92.8188Z" fill="#F39D00"/>
<path d="M218.329 99.0592C217.69 98.7393 217.211 98.259 216.572 98.0987C215.773 97.7788 214.814 97.9391 214.175 97.9391C213.216 98.0987 212.257 98.0987 211.299 97.9391C209.541 97.7788 207.783 97.2985 206.185 96.499C205.866 96.3387 205.386 96.0188 205.226 95.6988C204.907 95.2186 204.907 94.4184 205.067 93.7785C205.226 92.818 205.866 91.8575 206.665 91.0579C205.706 91.5375 204.747 92.0178 203.628 92.3377C202.67 92.6577 201.71 92.818 200.752 93.1379C200.112 93.2982 199.634 93.7785 198.994 93.7785C198.674 93.7785 198.195 93.6182 197.875 93.4579C196.757 92.9783 195.798 90.5777 197.556 90.0974C194.2 90.8976 191.803 94.8986 188.448 94.2581C186.21 93.9381 184.772 91.6978 183.814 89.6172C184.293 91.6978 182.695 93.9381 180.618 94.0984C179.339 94.258 178.061 93.4579 177.262 92.3377C176.942 91.8575 176.623 91.0579 176.623 90.4174C176.783 89.2972 177.582 86.737 179.02 86.737C177.262 86.8966 175.664 87.5372 174.226 88.497C172.627 89.6172 171.189 92.3377 169.112 92.1781C166.236 91.8575 166.396 86.5767 163.519 86.2567C165.117 88.1771 164.478 91.3779 162.56 93.1379C160.643 94.8986 157.926 95.3782 155.37 95.2186C154.571 95.2186 153.772 95.0582 153.133 94.7383C151.854 94.0984 151.375 92.3377 151.535 90.8976C151.694 89.4575 152.653 88.1771 153.452 86.8966C151.535 88.817 149.617 90.7373 147.7 92.6577C147.22 93.1379 146.581 93.7785 145.782 94.0984C144.184 94.578 142.586 93.4579 141.947 92.0178C141.307 90.5777 141.468 88.817 141.468 87.2166C141.307 89.1369 141.307 91.2176 140.349 92.818C139.55 94.578 137.792 96.0187 135.874 95.8584C134.276 95.6988 132.838 94.4184 132.039 92.9783C131.24 91.5375 131.081 89.7775 130.761 88.1771C130.761 89.6172 130.282 90.8976 129.483 92.1781C129.163 92.818 128.684 93.2982 128.204 93.7785C127.565 94.4184 127.086 94.4184 126.287 94.578C124.849 94.7383 123.251 94.8986 121.972 94.0984C120.854 93.2982 120.534 92.0178 120.055 90.7373C119.416 88.6573 118.776 86.4164 118.137 84.3364C118.776 87.0569 117.658 90.2577 115.581 92.0178C114.462 92.9783 113.023 93.6182 111.586 93.7785C110.467 93.9381 108.869 94.0984 108.389 92.6577C108.23 92.0178 108.23 91.3779 108.389 90.7373C108.549 89.6172 108.709 88.1771 109.349 87.2166C106.312 92.1781 99.1213 93.7778 94.3271 90.7373C90.9716 88.6573 89.0541 84.9763 88.0957 81.2959C88.7346 84.6563 88.4152 88.3374 86.9765 91.5375C86.0181 93.6182 83.7811 95.8584 81.7035 94.7383C82.6626 91.2176 82.1831 87.3769 80.2655 84.3364C80.585 86.8966 79.4665 89.6172 77.3889 91.2176C75.6315 92.6577 72.9149 93.1379 70.9974 92.0178C69.0799 90.7373 68.6003 87.5372 70.3578 86.0964C68.2808 87.8571 66.2032 89.6172 64.2857 91.2176C63.4867 91.8575 62.6877 92.498 61.7292 92.818C58.8526 93.9381 55.976 91.6978 53.5796 89.6172C53.8991 90.4174 53.8991 91.3779 53.739 92.3377C53.4195 94.2581 51.1825 95.8584 49.1049 95.0582C47.5069 94.4184 47.028 92.3377 46.229 90.7373C45.2699 88.497 43.8319 86.737 41.9144 85.2962C43.3524 86.8966 42.8728 89.6172 41.2748 90.8976C39.6767 92.1781 37.2803 92.3377 35.2027 91.6978C31.8472 90.7373 28.9706 87.8571 28.0122 84.496C26.7336 86.737 25.4551 88.9773 23.3781 90.7373C21.3005 92.3377 18.584 93.1379 16.1869 92.3377C15.7074 92.1781 15.2285 91.8575 15.0684 91.5375C14.9083 91.2176 14.9083 90.7373 14.9083 90.2577C15.2285 87.2166 15.7074 84.3364 16.0275 81.2959C12.5119 86.8966 7.07858 91.2176 0.846523 93.4579C0.367111 93.6182 -0.11224 93.7785 -0.591656 93.6182C-1.23087 93.4579 -1.55042 92.818 -1.87003 92.1781C-2.82879 90.2577 -3.94735 88.3374 -4.90618 86.4164C-3.94735 88.0168 -6.02474 90.0974 -7.94227 89.9371C-9.85986 89.7775 -11.4578 88.3374 -13.0558 87.3769C-15.4528 85.9368 -18.4888 85.1366 -21.3652 85.1366C-20.8858 86.2567 -19.7672 86.737 -18.9683 87.5372C-18.1693 88.3374 -17.3703 89.6172 -18.0095 90.5777C-18.4888 91.3779 -19.6074 91.3779 -20.4064 91.3779C-23.9219 91.3779 -27.4374 90.8976 -30.7932 90.0974C-29.0354 91.0579 -27.4374 92.1781 -25.8395 93.2982C-25.2003 93.7785 -24.4014 94.258 -23.7621 94.7383C-22.4838 95.6988 -24.0817 96.9786 -25.0405 97.2985C-26.3189 97.9391 -27.5973 98.4193 -28.8756 99.0592C-29.8344 99.3792 -31.1128 100.34 -31.9118 100.98C-32.7107 101.619 -33.5098 102.26 -34.3087 102.74C-34.9479 103.06 -35.4273 103.54 -36.0665 103.86C-36.386 104.02 -37.3449 104.82 -37.8242 104.82C-32.7107 105.62 -27.4374 104.18 -23.2828 101.14C-20.8858 99.3792 -18.9683 97.2985 -16.7311 95.5385C-15.7723 94.7383 -14.8135 94.0984 -13.8548 93.4579C-13.0558 92.818 -11.6176 92.6577 -10.6588 93.1379C-9.38044 93.7778 -8.26188 95.5385 -8.74129 96.9786C-8.9011 97.6191 -9.38045 98.0987 -9.70006 98.579C-10.1795 99.3792 -10.6588 100.179 -10.9784 101.14C-12.7362 104.5 -14.9733 107.381 -17.8497 109.781C-11.9372 108.981 -6.34435 106.421 -1.71022 102.42C1.16613 100.019 3.88268 96.8189 7.39818 94.8986C8.35695 94.4184 9.47525 93.9381 10.5944 93.9381C12.0324 93.9381 13.311 94.7383 13.9499 96.1784C14.4295 97.2985 13.7898 98.579 13.311 99.6991C12.5119 102.42 10.7538 105.14 8.03733 106.581C12.1918 107.221 15.7074 103.38 18.9035 100.179C19.5424 99.5395 20.182 98.7393 20.981 98.0987C21.62 97.6191 24.0171 96.3387 25.2956 97.1389C26.2541 97.6191 26.7336 98.7393 26.7336 99.8594C26.7336 102.26 26.4141 104.82 25.6151 107.221C27.3726 106.581 28.1716 104.66 28.9706 103.06C29.7696 101.46 31.2076 99.6991 33.1251 99.8594C34.7232 100.019 35.6823 101.619 36.3212 103.06C36.9602 104.5 37.4397 106.101 38.8784 107.061C38.8784 104.18 38.8784 101.46 38.8784 98.579C38.8784 98.259 38.8784 97.7788 39.3573 97.6191C39.6767 97.4588 39.9969 97.6191 40.1563 97.7788C45.43 101.3 49.7446 106.421 52.4604 112.342C54.0585 111.222 54.2186 108.981 53.739 107.221C53.2595 105.46 52.301 103.7 52.141 101.939C51.9816 100.019 53.1001 97.9391 54.8575 97.7788C55.976 97.7788 57.2546 98.259 58.3731 98.579C58.6926 98.7393 59.3322 99.0592 59.4916 99.2189C61.4091 100.819 62.8477 102.74 63.9662 104.981C64.1257 101.939 64.1257 98.8989 64.2857 95.8584C66.5227 93.9381 69.5588 94.7383 71.9558 96.3387C74.1928 98.0987 75.9509 100.499 78.0285 102.42C82.023 105.94 87.6161 107.381 92.5697 105.94C90.1726 104.82 88.5746 102.9 87.4561 100.66C86.9765 99.6991 86.4976 98.579 86.9765 97.6191C87.4561 96.6586 88.5746 96.1784 89.5337 96.1784C92.5697 96.0187 95.1262 96.3387 98.3223 97.1389C100.4 97.6191 102.637 98.579 103.755 100.66C104.874 102.74 103.755 106.26 101.678 106.101C103.596 108.661 107.431 106.741 109.349 104.18C111.266 101.619 112.864 98.259 115.9 97.6191C122.771 96.1784 125.648 110.581 132.519 109.941C131.88 108.341 131.24 106.741 130.921 105.14C130.761 104.34 130.601 103.54 130.441 102.74C130.282 102.26 129.962 101.939 130.122 101.46C130.441 99.3792 133.797 99.3792 135.075 100.179C135.715 100.66 136.194 101.3 136.833 101.78C138.271 103.06 140.189 104.02 141.947 104.981C144.664 106.581 147.54 107.861 150.576 109.141C149.777 108.821 148.818 106.421 148.499 105.62C147.859 104.18 147.22 102.74 146.741 101.3C146.421 100.34 145.143 97.6191 146.581 97.6191C147.7 97.4588 149.777 99.6991 150.736 100.34C156.808 104.34 162.72 102.74 170.71 105.62C171.35 105.301 171.669 105.14 172.308 104.82C172.788 102.1 168.792 100.66 168.314 97.7788C167.993 95.3782 170.71 93.4579 172.788 94.0984C174.545 94.578 176.143 95.6988 176.783 97.4588C177.582 99.5395 178.7 100.499 182.216 102.58C183.174 103.22 184.293 103.7 185.411 104.02C187.968 104.82 190.685 104.981 193.401 105.14C195.159 105.301 196.917 105.301 198.674 105.46C196.757 104.981 194.839 103.86 193.561 102.26C192.922 101.619 192.442 100.819 192.283 100.019C192.123 99.0592 192.762 96.8189 194.04 96.3387C195.159 95.8584 196.757 96.0187 198.035 96.3387C199.634 96.8189 201.071 97.4588 202.509 98.0987C203.309 98.4193 204.268 98.7393 205.226 99.0592C205.866 99.2195 206.345 99.6991 206.984 99.8594C208.902 100.499 210.819 100.819 212.737 101.46C214.015 101.78 215.453 102.1 216.732 102.26C219.128 102.42 221.525 101.619 223.603 100.179C221.525 100.66 219.768 99.8594 218.329 99.0592Z" fill="#DF7800"/>
<path d="M44.9492 54.2505C48.7843 54.5705 52.4599 55.8507 55.8154 57.7712C55.4959 55.8507 55.0164 54.0904 54.3774 52.3301C55.4959 54.5705 56.6144 56.811 57.7329 59.0514C57.893 59.2114 57.893 59.3714 58.0524 59.5315C58.2125 59.6915 58.3725 59.5315 58.692 59.5315C61.4086 58.8914 63.965 58.2512 66.6816 57.7712C64.7641 58.8914 62.8465 60.0116 60.929 61.1318C59.331 62.092 57.7329 63.0521 56.455 64.3325C56.295 62.7321 55.656 61.2918 54.6969 60.1716C54.0579 62.092 52.4599 63.3722 50.7018 64.0124C48.9443 64.6525 46.8667 64.8125 44.9492 64.8125C46.8667 63.3722 48.9443 61.932 50.8619 60.4917C51.1813 60.3317 51.9804 60.0116 51.8203 59.3715C51.6609 58.8914 51.0219 58.7313 50.7018 58.5713C49.7434 57.9312 48.9443 57.4511 48.1453 56.8109C46.7073 56.0108 45.7482 55.2107 44.9492 54.2505Z" fill="#F39D00"/>
<path d="M150.575 46.2485C151.533 44.6481 152.652 43.2078 154.09 42.0876C154.09 43.3679 153.771 44.4881 153.291 45.6083C153.771 44.3281 155.049 43.5279 156.327 43.3679C157.606 43.0479 158.884 43.3679 160.162 43.5279C158.564 41.4475 156.167 40.0073 153.611 39.5271C153.291 39.5271 153.131 39.3671 152.812 39.2071C152.652 39.047 152.492 38.887 152.332 38.727C151.533 37.2867 150.734 35.6864 149.936 34.2461C149.936 35.3664 149.936 36.6466 149.776 37.7668C149.776 38.0868 149.776 38.4069 149.616 38.727C149.456 38.887 149.296 39.047 149.137 39.2071C148.018 39.8472 146.74 40.4873 145.621 41.1275C146.899 41.1275 148.817 40.4874 149.776 41.4475C150.255 41.9276 150.255 42.7278 150.255 43.3679C150.415 43.3679 150.575 46.2485 150.575 46.2485Z" fill="#FDC232"/>
<path d="M63.4863 28.8054C67.6409 28.8054 71.636 28.9655 75.7905 28.9655C74.1925 30.2457 72.5951 31.3659 70.8369 32.6462C74.5126 31.526 78.1876 30.5658 82.0226 30.2457C80.1051 29.7656 78.1876 29.2855 76.11 28.9655C78.3476 28.1653 80.5846 27.2051 82.6622 26.0849C79.9457 26.2449 77.0691 26.565 74.3525 27.0451C75.9506 25.9249 77.708 24.1645 78.1876 22.2441C76.4301 23.0443 75.3116 24.3245 73.7136 25.1247C71.636 26.2449 69.399 27.2051 67.162 27.8453C66.2029 28.1653 64.7649 28.8054 63.4863 28.8054Z" fill="#FDC232"/>
<path d="M106.312 31.2061C109.029 31.5262 111.746 31.5262 114.462 31.5262C112.545 32.8065 110.467 33.9267 108.23 34.8868C113.344 32.9665 118.617 31.3662 123.89 29.7658C121.333 29.9259 118.617 30.246 116.06 30.8861C117.019 30.246 117.818 29.4458 118.777 28.8057C116.859 28.8057 114.942 29.2858 113.024 29.6058C111.905 29.7658 110.627 30.0859 109.509 30.246C108.869 30.406 108.389 30.566 107.75 30.566C107.59 30.8861 106.792 31.2061 106.312 31.2061Z" fill="#FDC232"/>
<path d="M28.0117 28.4854C28.0117 28.6453 27.6922 28.4853 27.6922 28.3253C27.8523 28.1653 28.0117 28.1653 28.1717 28.1653C32.3263 29.1255 35.8418 31.846 39.0379 34.5665C37.9194 32.6461 36.6409 30.7258 35.2029 29.1255C38.2389 29.7656 41.2749 30.5658 44.3109 31.5259C42.873 30.7258 41.435 29.7656 39.9963 28.9654C39.0379 28.4854 38.2389 27.8452 37.2805 27.5251C35.0428 26.565 32.4863 26.2449 30.0893 25.9248C31.0483 26.725 32.0068 27.5251 32.9659 28.3253C30.0893 28.4853 27.2126 28.1653 24.4961 27.5251C26.4143 29.6056 29.6097 29.4455 32.3263 30.0856C32.4863 30.0856 32.6457 30.2457 32.8058 30.2457C32.9659 30.4057 32.8058 30.5658 32.6457 30.5658L28.0117 28.4854Z" fill="#FDC232"/>
<path d="M140.348 31.2066C140.028 31.2066 139.389 32.0068 139.07 32.1668C138.59 32.4869 138.111 32.8069 137.631 33.127C136.673 33.7671 135.713 34.2472 134.914 34.8873C133.476 35.6875 132.198 36.6477 130.76 37.2878C130.121 37.6079 129.322 37.9279 128.523 38.088C128.203 38.248 126.605 38.248 126.445 38.5681C129.801 34.0872 134.755 30.8865 140.348 31.2066Z" fill="#FDC232"/>
<path d="M45.9082 34.2466C50.0627 32.1662 53.7384 29.4457 56.7744 26.085C56.6143 26.245 55.6559 26.245 55.3364 26.405C54.8569 26.5651 54.3773 26.5651 53.7384 26.7251C52.9393 26.8852 52.3004 27.0451 51.8208 27.5253C50.3829 28.8055 49.1043 30.2458 47.8257 31.6861C47.1868 32.3262 46.5472 33.2864 45.9082 34.2466Z" fill="#FDC232"/>
<path d="M102.797 35.367C101.838 35.207 101.04 34.7268 100.081 34.2467C99.1215 33.7667 98.3232 33.1265 97.3641 32.6465C95.9261 32.0063 94.3281 31.5263 92.73 31.3662C92.2505 31.3662 91.7709 31.3662 92.0911 31.8463C92.5699 32.4864 93.529 32.8064 94.168 33.1265C95.1271 33.6066 96.0855 34.0867 97.204 34.4068C99.2816 35.0469 101.04 35.207 102.797 35.367Z" fill="#FDC232"/>
<path d="M-12.8965 49.61C-9.22118 49.9301 -5.70568 50.5703 -2.19011 51.6905C-3.78809 50.8903 -5.22626 49.61 -6.34483 48.0098C-2.82932 49.29 0.845984 50.5703 4.52129 51.5304C1.16559 52.6506 -2.50971 53.1308 -6.18502 52.8107C-4.74691 53.9309 -3.14893 54.8911 -1.71076 56.0113C-1.87056 55.8513 -2.82933 56.1714 -2.98913 56.1714C-3.46848 56.1714 -3.94789 56.1713 -4.4273 56.0113C-5.06646 55.8513 -5.86548 55.6913 -6.34483 55.2111C-7.783 54.0909 -9.22118 52.9707 -10.6594 51.6905C-11.2985 51.0503 -12.0975 50.2502 -12.8965 49.61Z" fill="#F39D00"/>
<path d="M89.3744 53.9307C88.2559 55.691 87.2969 57.4513 85.5394 58.5715C84.5803 59.2117 83.7813 60.1719 82.9823 60.972C82.5027 61.4521 82.0238 61.9322 81.5443 62.2523C81.3842 62.4123 80.5852 63.3725 80.4258 63.3725C81.2248 61.6122 82.1832 59.8518 83.3017 58.4115C83.9414 57.6114 84.5803 56.9712 85.2193 56.3311C85.5394 56.011 85.6988 56.011 86.0183 55.691C87.1374 55.371 88.2559 54.5708 89.3744 53.9307Z" fill="#F39D00"/>
<path d="M142.106 58.8909C143.704 59.3711 144.663 60.8113 145.462 62.2516C146.261 63.6919 146.9 65.2922 148.178 66.0921C147.699 64.332 147.22 62.5717 146.421 60.9714C148.499 63.6919 150.895 66.2524 153.611 68.333C151.854 63.5319 148.498 59.5311 144.343 56.8105C144.343 57.7707 144.343 58.891 144.503 59.8512C142.905 58.731 140.988 57.9308 139.07 57.7707C139.23 58.2508 139.55 58.5709 140.029 58.7309C141.627 59.8511 143.385 60.8113 144.983 61.9316L142.106 58.8909Z" fill="#F39D00"/>
<path d="M174.705 66.7327C177.262 65.9325 179.819 65.1324 182.375 64.3322C180.937 65.6124 179.499 67.0526 178.221 68.3331C182.855 65.4524 187.489 62.7319 192.602 60.9715C189.886 61.7717 187.169 62.7319 184.453 63.532C185.252 62.2518 185.891 60.8115 186.69 59.5312C184.613 60.8115 182.695 62.0918 180.618 63.372C180.777 62.8919 181.576 61.6116 181.097 61.1316C179.979 61.9317 179.02 63.0519 177.901 64.0122C177.422 64.4922 176.783 64.9723 176.303 65.2924C175.984 65.7722 175.344 66.5724 174.705 66.7327Z" fill="#F39D00"/>
<path d="M200.113 78.7355C199.314 77.1352 198.036 76.015 196.757 74.7346C195.319 73.2945 193.721 71.6941 192.123 70.4143C191.803 70.254 189.726 68.8139 189.566 69.7737C189.406 70.4143 191.004 71.6941 191.324 72.014C192.282 72.9745 193.402 73.9344 194.52 74.7346C196.118 76.335 198.036 77.6154 200.113 78.7355Z" fill="#F39D00"/>
<path d="M-0.592491 84.6568C3.40243 85.9366 7.55715 87.0568 11.5523 88.0173C8.51591 86.5772 5.47976 84.8165 2.92301 82.5762C5.47976 82.8961 8.03656 83.2161 10.7533 83.2161C9.47474 83.2161 8.3561 82.4159 7.39734 81.776C4.6808 80.016 1.64464 78.8952 -1.55125 78.2553C-2.35021 78.0956 -3.46884 78.0956 -3.78839 78.8952C-2.19047 80.3359 -0.432688 81.6157 1.16529 83.0564C-1.07184 83.0564 -3.14923 82.8961 -5.22656 82.5762C-5.06676 82.7365 -4.90702 82.7365 -4.74721 82.7365C-4.90702 82.5762 -5.06676 82.5762 -5.22656 82.4159C-3.94819 83.536 -2.19047 84.1766 -0.592491 84.6568Z" fill="#FDC232"/>
<path d="M22.8993 81.6154C21.6207 78.7352 20.3421 76.0146 19.2236 73.1338C20.3421 74.4142 21.3012 75.6947 22.4197 76.9745C22.8993 77.4547 23.3788 78.0953 24.0178 78.0953C24.3372 78.0953 24.6567 77.935 24.9769 77.935C25.6158 77.615 26.0954 77.2951 26.4148 76.6545C26.7343 76.0146 26.5742 75.2144 26.0954 74.8945C27.2139 77.2951 28.6518 79.695 30.2499 81.7757C28.0129 80.9755 25.7752 80.1753 23.5382 79.695C24.4973 80.8158 25.4557 82.2559 26.0954 83.696C24.8168 83.2158 23.5382 82.4156 22.4197 81.6154H22.8993Z" fill="#FDC232"/>
<path d="M100.081 84.0171C101.839 82.8969 103.596 81.7768 105.514 80.9766C105.194 81.1362 104.555 80.9766 104.236 80.9766C103.756 80.9766 103.277 81.1362 102.957 81.1362C102.158 81.2965 101.199 81.6165 100.4 81.9364C99.601 82.2564 98.8026 82.7366 98.0036 83.2169C97.524 83.5368 96.5649 84.0171 96.2455 84.6569C95.7659 85.4571 97.0445 85.6175 97.524 85.6175C98.8026 85.7771 100.08 85.6175 101.359 85.6175C103.756 85.6175 105.993 85.6175 108.39 85.7771C105.674 84.4973 102.797 84.0171 100.081 84.0171Z" fill="#FDC232"/>
<path d="M135.871 88.9891C134.325 89.1297 132.777 89.4115 131.371 89.2709C130.245 89.2709 129.12 88.8485 127.995 88.5667C125.322 87.8624 122.65 87.1581 120.118 86.0307C118.29 85.3265 116.602 84.341 114.773 84.1997C117.305 83.2136 119.978 83.073 122.509 83.2136C125.745 83.4955 128.839 84.1997 132.074 84.4816C133.621 84.6222 135.309 84.7634 136.856 84.6222C137.981 84.4816 139.247 84.4816 140.232 83.9179C140.513 83.7773 140.794 83.4955 141.076 83.2136C141.638 82.2275 141.076 80.9602 140.513 80.1147C140.372 79.8328 140.091 79.5516 139.951 79.2698C139.81 78.9879 139.81 78.7061 139.669 78.5655C139.247 78.0018 138.825 77.4388 138.403 76.8751C136.716 74.7623 134.605 72.9306 133.621 70.3953C133.199 69.1274 132.918 67.7188 133.058 66.4515C133.34 67.1558 133.762 67.8601 134.184 68.5643C134.887 69.6911 135.871 70.5359 136.997 71.2402C137.559 71.6633 138.122 71.9451 138.684 72.0857C138.966 72.2263 139.247 72.3676 139.669 72.3676C140.091 72.5082 140.372 72.5082 140.794 72.5082C142.06 72.6494 143.748 72.3676 143.748 71.0996C143.748 70.6772 143.467 70.2547 143.045 69.9729C141.076 68.0007 138.544 66.4515 137.138 64.0566C135.731 61.521 135.731 58.4221 135.871 55.464C136.575 61.0985 140.794 66.0284 146.139 67.7188C147.405 68.1413 149.093 68.2825 150.077 67.437C150.781 66.7327 150.781 65.4652 150.218 64.7608C148.671 62.9297 146.139 61.8027 144.873 59.549C143.889 57.8587 144.17 55.464 145.436 54.0553C145.296 55.464 145.576 56.8726 146.421 57.9995C147.264 59.1263 148.671 59.6898 150.077 59.4081C151.343 59.1264 152.469 57.5769 152.047 56.3092C151.906 55.6048 151.485 55.0414 150.922 54.6188C148.671 52.0833 145.999 49.9703 143.045 48.28C145.718 47.7166 148.671 48.5617 150.781 50.5337C151.625 51.2381 152.328 52.2242 153.172 52.9284C154.016 53.6328 155.282 54.0553 156.267 53.7736C156.548 53.6328 156.829 53.4919 156.97 53.351C157.11 53.0693 157.11 52.7876 156.97 52.5059C156.689 50.9564 155.985 49.4069 155.844 47.7165C155.704 46.0262 156.407 44.195 157.954 43.6316C157.673 45.0402 157.532 46.5897 157.814 48.1391C158.095 49.9703 158.939 51.6607 160.065 53.0693C160.627 53.6328 160.908 54.1962 161.752 54.1962C163.159 54.1962 164.143 53.7736 164.987 52.5059C165.972 51.0972 166.394 48.9843 165.972 47.2939C165.128 44.195 162.596 42.0821 160.065 40.2509C162.736 39.8283 165.55 40.6735 167.519 42.6455C169.629 44.6176 172.161 47.7166 174.27 45.8854C176.38 44.195 174.692 40.5326 173.567 37.9971C173.286 37.2927 173.004 36.5884 172.864 35.8842C175.677 38.4196 178.912 40.3917 182.147 41.5186C190.024 44.195 198.322 41.3777 203.386 35.1798C207.324 37.2927 212.388 37.5745 216.186 35.8842C219.14 34.6164 221.249 32.6443 222.937 30.1087C223.922 28.5593 224.625 26.4464 224.766 24.3335C226.313 27.1507 228 29.6862 230.111 31.7991C232.361 30.9539 232.924 27.855 233.205 25.1786C233.486 21.9388 233.767 18.699 234.049 15.4591C235.174 20.671 237.003 25.6012 239.534 30.1087C240.238 31.5174 241.504 32.9261 242.91 32.7851C245.02 32.5034 245.16 29.1228 244.88 26.7281C244.035 20.5302 243.754 14.1914 244.176 7.85254C245.02 16.3043 246.989 24.4743 250.224 32.2217C251.631 29.6862 252.897 27.0098 253.881 24.1925C254.725 21.5162 255.007 18.5581 256.413 16.1634C256.273 16.4451 257.82 20.2484 258.382 21.0936C258.664 21.6571 258.945 22.0796 259.226 22.5022C260.07 23.6291 260.492 24.756 260.914 26.1646C261.195 27.1507 261.195 27.2916 262.04 27.0098C262.461 26.8689 262.883 26.3055 263.165 25.8829C263.868 24.756 264.149 23.4883 264.431 22.2205C265.134 18.5581 266.541 15.0365 268.509 12.0784C267.947 15.7409 267.384 19.4032 268.369 22.9248C268.65 24.1926 269.212 25.3194 269.916 26.3055C270.338 27.0098 270.76 27.855 271.182 28.5593C272.729 30.3905 274.698 27.2916 275.261 26.1646C275.542 25.6012 275.824 24.8969 276.105 24.3335C276.386 23.77 276.386 23.2065 276.667 22.6431C277.512 19.8259 278.496 17.0086 279.903 14.4731C280.606 13.2053 281.168 12.0784 282.013 10.9516C282.434 10.3881 282.716 9.82465 283.138 9.26116C283.419 8.97945 283.841 8.41603 284.122 8.13432C282.153 13.0645 279.2 26.0238 286.654 28.1367C291.155 29.4045 289.467 21.3753 291.014 18.8398C291.296 20.9527 291.577 22.9248 291.858 25.0377C291.999 26.1646 292.561 28.841 294.109 28.4184C294.672 28.2776 295.093 27.4324 295.375 26.8689C296.64 24.8969 297.766 23.0657 298.328 20.671C298.469 20.2484 298.891 15.3182 298.328 15.3182C300.157 15.3182 301.423 17.2903 301.704 19.2624C301.986 21.2344 301.704 23.2065 301.704 25.1786C301.845 27.1506 302.689 29.4045 304.377 29.827C305.783 30.2497 307.049 29.4045 308.174 28.5593C309.159 27.7141 310.003 27.1506 311.269 26.5872C312.957 25.742 314.645 25.0377 316.473 24.3335C317.176 24.0517 320.412 23.77 320.833 23.0657C319.145 25.8829 317.317 28.7002 315.629 31.3766C314.926 32.6443 313.8 33.912 313.52 35.4615C313.238 37.2927 314.785 37.1519 316.051 37.2927C317.739 37.4336 319.145 36.8701 320.412 35.7432C323.225 33.0668 326.319 29.6862 328.429 26.3055C327.725 28.841 327.022 31.3765 326.319 34.0529C326.038 35.039 325.475 36.3067 325.616 37.4336C325.616 37.8562 325.756 38.1379 325.756 38.5605C325.756 39.124 325.616 39.5465 325.756 40.11C326.178 41.2369 327.725 41.096 328.851 40.5326C329.976 39.9691 331.101 39.4057 331.945 38.4196C332.226 38.1379 332.508 37.8562 332.789 37.5745C333.633 37.011 334.758 36.7293 335.884 36.4476C336.727 36.1659 337.712 35.8842 338.556 35.6024C338.837 35.4615 339.963 35.4615 340.244 35.1798C339.4 36.3067 338.556 37.4336 337.852 38.5605C337.149 39.5465 336.446 40.6735 336.164 41.9412C335.884 42.7864 335.743 43.7724 335.602 44.7585C335.461 45.7445 335.743 47.0122 336.727 47.4348C337.149 47.7166 337.712 47.7165 338.134 47.7165C339.54 47.7165 340.947 47.4349 342.213 46.8714C342.776 46.5897 343.479 46.1671 344.041 46.0262C346.292 45.4627 348.543 44.7584 350.652 43.4907C350.09 43.7724 349.668 44.7585 349.246 45.181C348.824 45.7445 348.261 46.4488 347.839 47.0122C346.995 48.1391 346.01 49.4069 345.026 50.5337C343.479 52.2242 341.369 54.1962 342.353 56.7317C343.057 58.8446 345.589 59.6898 347.839 59.4081C354.028 58.8446 358.529 52.6467 364.718 52.0833C361.483 55.8865 357.966 59.8307 353.044 60.6759C352.34 60.8167 351.637 60.8168 351.074 61.2393C350.511 61.521 349.949 62.2253 350.23 62.9297C350.371 63.6339 351.074 63.9157 351.778 64.1974C354.028 65.0426 356.278 65.606 358.67 65.7466C359.795 65.8878 360.92 65.8878 362.186 65.8878C362.608 65.8878 363.17 65.7466 363.592 65.7466C364.155 65.7466 364.718 66.0284 365.14 66.1697C366.406 66.5921 367.812 66.8739 369.078 67.2964C368.656 67.437 368.375 67.437 367.953 67.5782C364.155 68.5643 360.217 69.2686 356.278 69.9729C354.59 70.2547 352.762 69.8317 351.074 69.8317C349.246 69.8317 347.558 69.8317 345.729 69.9729C345.167 69.9729 344.604 70.1135 344.182 70.2547C343.76 70.5359 343.479 71.0996 343.619 71.5221C343.76 71.8039 344.041 72.0857 344.182 72.2263C346.292 73.6349 348.683 73.9167 351.215 74.058C352.621 74.1986 354.028 74.1986 355.575 74.1986C356.278 74.1986 356.982 74.1986 357.685 74.1986C358.248 74.1986 359.091 74.1986 359.654 74.058C358.388 74.4804 356.982 74.9029 355.575 75.1847C354.872 75.3253 354.169 75.6071 353.324 75.7484C352.762 75.889 352.199 76.0296 351.637 76.0296C351.074 76.0296 350.652 76.0296 350.09 76.0296C348.824 76.1708 347.558 76.1708 346.292 76.3114C345.589 76.3114 344.885 76.4527 344.323 76.7338C343.76 77.0157 343.198 77.5794 343.057 78.2837C345.167 80.5377 348.261 80.3965 351.074 80.9602C352.059 81.1008 353.044 81.242 354.028 81.3826C355.997 81.6645 357.966 81.8051 359.936 81.9463C363.874 82.2275 367.812 82.2275 371.75 81.9463C372.313 81.9463 373.017 81.8051 373.579 81.8051C368.375 84.904 362.186 86.4538 355.997 86.0307C354.872 85.8901 353.747 85.8901 352.762 86.172C351.778 86.5944 350.793 87.5805 351.074 88.7072C351.215 89.4115 351.918 89.9752 352.481 90.3976C353.606 91.1019 354.872 91.6656 356.138 91.9475C353.747 92.2293 351.356 91.8062 349.246 90.6795C348.402 90.2571 347.558 89.6934 346.573 89.6934C345.589 89.6934 344.604 90.3977 344.744 91.3838C344.885 92.0881 345.589 92.5105 346.292 92.9336C347.417 93.4966 348.543 93.919 349.668 94.4827C350.511 94.7646 351.356 95.0464 351.918 95.7507C352.621 96.5956 353.606 97.1593 354.45 97.7223C355.012 98.0041 355.435 98.4272 355.997 98.7084C356.278 98.8497 357.122 99.5539 357.545 99.5539C353.044 100.258 348.402 98.9902 344.744 96.3137C342.635 94.7646 340.947 92.9336 338.978 91.3838C338.134 90.6795 337.29 90.1158 336.446 89.5528C335.743 88.9891 334.477 88.8485 333.633 89.2709C332.508 89.8346 331.523 91.3838 331.945 92.6517C332.086 93.2148 332.508 93.6379 332.789 94.0603C333.211 94.7646 333.633 95.4689 333.914 96.3137C335.461 99.2721 337.431 101.807 339.963 103.921C334.758 103.216 329.835 100.962 325.756 97.4411C323.225 95.3283 320.833 92.5105 317.739 90.8201C316.895 90.3977 315.91 89.9752 314.926 89.9752C313.66 89.9752 312.535 90.6795 311.972 91.9475C311.55 92.9336 312.112 94.0603 312.535 95.0464C313.238 97.4411 314.785 99.8358 317.176 101.103C313.52 101.667 310.424 98.286 307.612 95.4689C307.049 94.9052 306.486 94.2009 305.783 93.6379C305.22 93.2148 304.377 92.2287 303.673 92.0881C303.532 92.6517 302.407 92.5105 301.986 92.6517C301.001 92.9336 300.719 94.0603 300.719 95.0464C300.719 97.1593 301.001 99.4127 301.704 101.526C300.157 100.962 299.454 99.2721 298.751 97.8635C298.047 96.455 296.781 94.9052 295.093 95.0464C293.687 95.187 292.843 96.5956 292.281 97.8635C291.718 99.1315 291.296 100.54 290.03 101.385C290.03 98.8497 290.03 96.455 290.03 93.919C290.03 93.6379 290.03 93.2148 289.608 93.0742C289.326 92.9336 289.045 93.0742 288.905 93.2148C284.263 96.3137 280.465 100.822 278.074 106.034C276.667 105.048 276.527 103.075 276.949 101.526C277.371 99.9764 278.215 98.4272 278.355 96.8774C278.496 95.187 277.512 93.356 275.964 93.2148C274.979 93.2148 273.573 93.7785 272.588 94.0603C272.307 94.2009 272.026 94.3421 271.745 94.6233C270.057 96.0325 268.791 97.7223 267.806 99.6945C267.666 97.018 267.666 94.3421 267.525 91.6656C265.556 89.9752 262.883 90.6795 260.774 92.0881C258.804 93.6379 257.257 95.7507 255.428 97.4411C251.912 100.54 246.989 101.807 242.629 100.54C244.739 99.5539 246.145 97.8635 247.13 95.8913C247.552 95.0464 247.974 94.0603 247.552 93.2148C247.13 92.3699 246.145 91.9475 245.301 91.9475C242.629 91.8062 240.379 92.0881 237.565 92.7923C235.737 93.2148 233.767 94.0603 232.783 95.8913C231.799 97.7223 232.783 100.821 234.612 100.681C232.924 102.935 229.548 101.244 227.86 98.9902C226.172 96.7368 224.766 93.7785 222.093 93.2148C216.045 91.9475 213.513 104.625 207.465 104.061C208.028 102.653 208.59 101.244 208.872 99.8358C209.012 99.1315 209.153 98.4272 209.294 97.7223C209.434 97.2998 209.715 97.018 209.575 96.5956C209.294 94.7646 206.34 94.7646 205.215 95.4689C204.652 95.8913 204.23 96.455 203.668 96.8774C202.402 98.0041 200.714 98.8497 199.166 99.6945C196.776 101.103 194.243 102.23 191.571 103.357C192.274 103.075 193.118 100.962 193.4 100.258C193.962 98.9902 194.525 97.7223 194.947 96.455C195.228 95.6094 196.353 93.2148 195.088 93.2148C194.103 93.0742 192.274 95.0464 191.43 95.6095C188.196 97.7223 184.96 98.0041 181.444 98.5678C178.49 98.9902 175.396 99.4127 172.442 99.8358C171.739 97.2999 175.537 96.0325 175.958 93.4966C176.24 91.3838 173.849 89.6934 172.02 90.2571C170.473 90.6795 169.066 91.6656 168.503 93.2148C168.082 94.0603 167.66 94.7646 166.957 95.4689C165.269 97.018 163.299 98.286 161.049 98.9902C158.657 99.6945 156.267 99.8358 153.735 99.9764C152.188 100.117 150.64 100.117 149.093 100.258C150.781 99.8358 152.469 98.8497 153.594 97.4411C154.156 96.8774 154.579 96.1731 154.719 95.4689C154.86 94.6233 154.298 92.6517 153.172 92.2293C152.188 91.8062 150.781 91.9475 149.656 92.2293C148.249 92.6517 146.983 93.2148 145.718 93.7785C145.014 94.0603 144.17 94.3421 143.326 94.6233C142.764 94.7646 142.342 95.187 141.779 95.3283C140.091 95.8913 138.403 96.1731 136.716 96.7368C135.59 97.018 134.325 97.2999 133.199 97.4411C131.089 97.5817 128.979 96.8774 127.151 95.6095C128.558 96.1731 130.104 95.4688 131.371 94.7646C132.777 94.0603 134.184 93.2148 135.59 92.5105C136.293 92.0881 138.684 91.3838 138.684 90.2571C138.684 88.5667 136.856 88.9891 135.871 88.9891Z" fill="#FDC232"/>
<path d="M193.259 55.3231C191.711 57.7177 188.898 59.2672 186.085 58.8447C186.929 56.8725 187.492 54.7596 187.913 52.6467C188.195 51.5198 188.195 49.9703 187.21 49.4069C185.804 48.7026 184.397 50.2521 183.694 51.6607C182.709 53.6327 181.725 56.0274 183.131 57.7177C180.74 56.3091 179.474 53.2102 180.178 50.5338C179.615 49.5477 178.067 50.1112 177.646 51.0972C177.224 52.0832 177.364 53.2102 177.083 54.3371C176.802 56.0274 175.395 57.436 173.848 57.8586C172.16 58.2812 170.332 57.8586 169.207 56.5908C170.753 56.1683 172.441 55.6048 173.145 54.0553C173.707 52.9284 173.004 50.9563 171.598 50.9563C170.05 50.9563 169.769 53.0693 168.925 53.9144C166.674 56.3091 166.393 50.5338 166.253 49.4069C166.112 47.4348 165.549 45.7445 164.283 44.1949C163.721 43.4906 163.018 42.7863 162.314 42.082C162.033 41.8003 160.486 40.2508 160.204 40.3917C162.877 39.9691 165.69 40.8143 167.659 42.7863C169.769 44.7584 172.301 47.8574 174.411 46.0262C176.52 44.3359 174.833 40.6734 173.707 38.1379C171.457 32.7851 173.145 25.6012 177.505 22.2205C176.379 28.5593 179.474 35.6024 184.819 38.4196C185.804 38.9831 187.21 39.1239 187.632 38.1379C187.773 37.7153 187.773 37.1519 187.632 36.5884C187.07 32.7851 186.367 29.1227 185.522 25.3195C186.788 27.9958 188.195 30.813 190.586 32.6443C191.852 33.6303 193.821 34.4755 195.368 33.9121C195.931 33.7712 196.353 33.0669 196.775 32.6443C197.478 31.5174 197.478 30.2496 197.338 28.9818C197.197 27.855 196.775 27.0098 196.353 26.0237C195.227 23.6291 193.821 21.3753 192.133 19.4033C191.289 18.4172 190.445 17.4311 189.461 16.4452C189.038 16.0225 188.476 15.4591 188.054 15.0365C187.773 14.8956 187.632 14.6139 187.351 14.473C187.21 14.3322 186.929 14.0505 186.929 14.0505C191.43 14.3322 195.79 16.4452 198.603 19.9667C199.588 21.0936 200.291 22.3614 201.135 23.6291C201.839 24.756 202.542 26.0237 203.385 27.1507C203.667 27.5732 203.807 27.9958 203.948 28.4184C204.23 29.2636 205.214 29.827 205.777 30.1088C207.183 30.9539 208.731 30.3905 209.434 28.841C209.715 28.2776 209.574 27.2915 209.574 26.7281C209.434 25.6012 209.012 24.6151 208.449 23.7699C207.043 20.9527 205.636 17.9946 203.526 15.5999C206.058 16.3043 208.449 17.7129 210.419 19.5441C210.84 19.9667 211.262 20.3892 211.684 20.9527C212.247 21.7979 212.528 22.9248 212.81 23.9108C213.372 25.742 214.497 27.4324 215.763 28.9818C216.326 29.5453 217.029 29.9679 217.732 29.9679C218.295 29.9679 218.857 29.9679 219.279 29.5453C219.702 28.9818 219.983 28.2776 220.124 27.7141C220.545 26.3055 220.405 24.8968 220.264 23.6291C219.983 21.5162 219.279 19.5441 219.42 17.4311C219.702 14.3322 221.67 11.6558 223.499 9.12032C222.796 11.9376 222.655 15.0365 223.077 17.9946C223.218 19.5441 223.64 21.0936 224.062 22.5022C224.765 24.756 225.891 27.2915 228 28.5593C229.125 29.2636 230.532 29.4044 231.517 28.7001C232.501 27.9958 232.923 26.8689 233.064 25.742C233.204 24.8968 233.064 24.0517 233.064 23.2065C232.923 22.2205 232.783 21.0936 232.642 20.1075C232.361 19.1215 232.079 18.1355 231.657 17.1494C231.517 16.7269 231.235 16.1634 230.954 15.7408C230.813 15.5999 230.392 14.473 230.25 14.473C231.938 14.473 233.626 15.3182 235.033 16.1634C235.877 16.7269 236.862 17.4311 237.143 18.5581C237.565 19.5441 237.565 20.5301 237.705 21.5162C237.846 23.4882 238.409 25.6012 238.971 27.4324C239.253 28.4184 239.675 29.5453 240.237 30.3905C240.8 31.5174 241.644 33.2077 243.191 32.926C245.301 32.6443 245.442 29.2636 245.16 26.8689C245.019 26.1646 245.019 25.4603 244.879 24.6151C244.879 24.0517 244.879 23.4882 244.739 22.7839C244.597 22.0796 244.316 21.3753 244.176 20.671C244.035 19.9667 243.754 19.2623 243.613 18.5581C243.191 17.0086 242.91 15.4591 242.769 13.7688C242.628 11.5149 243.191 9.26118 244.176 7.28906C244.035 10.388 246.426 13.0644 247.27 16.1634C247.692 17.8538 247.692 19.685 247.973 21.5162C248.114 22.6431 248.536 23.9108 249.38 24.756C249.661 25.1786 250.083 25.6012 250.646 25.4603C250.927 25.4603 251.068 25.3195 251.349 25.1785C252.193 24.6151 252.756 23.9108 253.177 23.0656C253.74 21.7979 253.74 20.5302 253.881 19.1215C254.022 16.586 254.162 14.0505 253.74 11.6558C255.287 12.3601 256.975 13.2053 257.96 14.473C260.211 17.2903 259.366 21.9387 262.179 24.1925C262.461 24.4743 262.882 24.6151 263.305 24.6151C264.008 24.4743 264.149 23.4882 264.149 22.7839C264.149 20.3892 264.149 17.8538 264.852 15.5999C265.555 13.3462 267.384 11.0924 269.634 10.8107C269.071 12.501 268.649 14.1913 268.228 15.8817C268.087 16.7269 267.946 17.572 267.806 18.4172C267.665 19.9667 267.806 21.3753 268.228 22.9248C268.509 24.1925 269.071 25.3195 269.775 26.3055C270.197 27.0098 270.619 27.8549 271.041 28.5593C272.588 30.3905 274.557 27.2915 275.12 26.1646C275.401 25.6012 275.683 24.8968 275.963 24.3334C276.245 23.77 276.245 23.2065 276.526 22.6431C277.371 19.8258 278.355 17.0086 279.762 14.473C280.465 13.2053 281.027 12.0784 281.871 10.9515C282.293 10.3881 282.575 9.8246 282.996 9.26118C283.278 8.97946 283.7 8.41597 283.981 8.13426C282.012 13.0644 279.058 26.0237 286.513 28.1367C291.014 29.4044 289.326 21.3753 290.873 18.8398C291.155 20.9527 291.436 22.9248 291.717 25.0378C291.858 26.1646 292.42 28.841 293.968 28.4184C294.53 28.2776 294.952 27.4324 295.234 26.8689C296.499 24.8969 297.625 23.0656 298.187 20.671C298.328 20.2484 298.75 15.3182 298.187 15.3182C300.016 15.3182 301.281 17.2903 301.563 19.2623C301.844 21.2344 301.563 23.2065 301.563 25.1785C301.703 27.1507 302.548 29.4044 304.236 29.827C305.642 30.2496 306.908 29.4045 308.033 28.5593C309.018 27.7141 309.861 27.1507 311.128 26.5872C312.816 25.742 314.503 25.0378 316.332 24.3334C317.035 24.0517 320.27 23.7699 320.692 23.0656C319.989 24.1925 319.286 25.4603 318.441 26.5872C318.02 27.1507 317.738 27.7141 317.316 28.4184C317.035 28.841 316.754 29.6862 316.191 30.1088C315.91 30.3905 315.628 30.3905 315.207 30.6722C314.503 30.954 313.8 31.2357 313.097 31.6582C311.971 32.3625 310.846 33.4894 310.987 35.0389C311.128 36.8701 313.097 37.997 314.925 38.7014C318.02 39.6873 321.254 39.9691 324.49 39.5466C322.521 42.082 319.286 43.2089 316.05 43.2089C312.816 43.2089 309.721 42.3637 306.767 41.3777C306.205 41.2368 305.642 41.096 305.079 41.3777C304.657 41.6595 304.376 42.082 304.236 42.6455C303.391 45.3218 304.376 48.4209 306.486 50.1112C303.391 49.8295 300.578 47.8574 299.313 45.0401C298.328 42.9272 297.343 39.9691 295.234 40.3917C294.671 42.5046 294.952 44.7584 296.077 46.5896C294.249 46.0262 292.702 44.6176 291.998 42.7863C291.576 41.6595 291.295 40.3917 290.31 39.6873C289.045 38.8422 287.216 39.8283 286.513 40.9551C286.372 41.3777 286.372 41.6595 286.372 42.082C286.372 43.2089 286.231 44.195 285.951 45.181C285.388 47.1531 284.122 49.1251 282.575 50.5338C282.996 50.1111 283.137 48.4208 283.137 47.8574C283.278 46.8713 283.137 45.8853 282.996 44.8993C282.856 44.0541 282.434 43.2089 282.153 42.2229C281.871 41.2369 281.449 40.3917 280.887 39.5466C280.465 38.8422 279.621 38.1379 278.777 38.4196C278.214 38.7014 278.074 39.5465 277.792 40.11C277.511 40.8143 277.371 41.5186 277.229 42.2229C276.948 43.6315 277.089 45.181 277.511 46.5896C275.964 46.3079 275.12 44.7584 274.698 43.2089C274.276 41.8003 274.135 40.11 273.291 38.8422C272.447 37.5744 270.478 36.8702 269.353 37.997C268.931 38.5605 268.791 39.2648 268.649 39.9691C268.368 42.9272 269.071 45.8853 270.759 48.4208C267.946 48.5617 265.133 46.5896 264.149 43.9132C263.586 42.2229 263.305 39.9691 261.617 39.6873C260.211 39.4056 259.085 40.6734 258.804 42.082C258.523 43.4907 258.804 44.7584 258.804 46.167C258.804 49.4069 256.694 52.5058 253.74 53.7736C254.444 51.9424 255.006 49.9703 255.287 47.9982C255.569 46.167 255.71 44.3358 255.006 42.6455C254.303 40.9551 252.615 39.6874 250.786 39.8283C249.521 39.9691 248.255 41.096 248.114 42.5046C247.833 43.7724 248.536 45.3218 249.802 45.8853C248.395 46.7305 246.848 45.0401 246.145 43.6315C245.442 42.2229 244.035 40.3917 242.628 41.096C241.925 41.3777 241.644 42.082 241.363 42.9272C240.659 45.181 240.8 47.5757 240.237 49.8294C239.534 52.0832 237.565 54.337 235.314 53.7736C236.58 50.9563 237.143 47.8574 237.002 44.8993C237.002 44.0541 236.862 43.0681 236.299 42.3637C235.736 41.6595 234.611 41.2368 233.908 41.8003C233.064 42.5046 232.923 44.3358 232.783 45.3218C232.642 46.3079 232.783 47.4348 232.923 48.4208C231.235 48.5617 229.547 47.7165 228.704 46.167C228.141 45.181 228.141 43.9132 227.719 42.9272C227.297 41.9412 226.171 40.9551 225.187 41.2369C224.203 41.5186 223.781 42.5046 223.499 43.4907C222.374 47.294 222.937 51.3789 224.765 54.9005C223.218 54.7596 221.952 53.9144 221.108 52.6467C220.264 51.3789 219.983 49.8294 219.702 48.4208C219.561 47.294 219.561 46.167 219.139 45.0401C218.717 43.9132 217.873 42.9272 216.748 42.7863C214.919 42.5046 213.513 44.6176 213.653 46.4488C213.794 48.2799 215.06 49.8294 216.185 51.238C214.919 52.365 212.81 51.3789 211.544 50.2521C210.559 49.4069 209.574 49.1251 208.59 48.1391C207.886 47.294 207.183 46.3079 206.198 46.0262C204.37 45.3218 202.401 47.1531 202.119 48.9843C201.839 50.9563 202.823 52.7876 203.807 54.3371C201.557 54.1962 199.447 52.365 199.025 50.1112C198.744 48.4209 199.025 46.167 197.338 45.4628C195.931 44.8993 194.524 46.167 194.102 47.5757C193.68 48.9843 194.102 50.5338 193.962 51.9424C194.243 53.351 193.821 54.3371 193.259 55.3231Z" fill="#FDD44C"/>
<path d="M135.87 88.9886C134.323 89.1298 132.776 89.411 131.369 89.2704C130.244 89.2704 129.118 88.848 127.993 88.5661C125.321 87.8619 122.648 87.1576 120.117 86.0309C118.288 85.3259 116.6 84.3405 114.771 84.1992C117.303 83.2131 119.976 83.0725 122.508 83.2131C125.461 83.3543 128.274 84.0586 131.228 84.3405C131.369 84.3405 131.65 84.3405 131.791 84.4811C131.931 84.6216 131.931 84.6216 132.072 84.7629C132.353 84.7629 132.635 84.6216 132.635 84.3405C132.776 83.9174 132.353 83.4949 132.072 83.2131C131.51 82.5088 130.947 81.9458 130.244 81.2415C131.51 81.9458 132.916 82.5088 134.323 83.0725C135.166 83.3543 136.432 83.4949 136.573 82.6501C136.714 82.0864 136.292 81.3821 135.729 81.1003C133.479 79.2693 130.947 77.8607 128.134 76.8746C129.962 76.734 131.791 76.8746 133.619 77.297C134.744 77.5789 135.729 78.0013 136.714 78.565C138.965 79.8329 140.933 81.5227 143.324 82.7906C144.45 83.3543 145.575 83.9174 146.841 84.1992C147.122 84.1992 147.545 84.3405 147.825 84.3405C148.107 84.4811 148.388 84.4811 148.67 84.4811C149.935 84.1992 150.92 83.2131 151.483 81.9458C151.764 81.3821 151.764 80.6778 151.764 79.9735C151.764 79.6917 151.623 79.4098 151.483 79.128C151.483 78.9874 151.201 78.4237 151.061 78.4237C152.749 78.2831 152.889 80.8184 153.311 82.5088C153.874 85.1853 156.968 87.0163 159.641 86.312C160.063 86.1715 160.484 86.0309 160.625 85.6078C161.329 84.6216 160.063 83.3543 159.219 82.5088C157.531 80.8184 156.968 78.1425 157.671 75.8885C158.515 73.6344 160.625 71.8034 163.017 71.5215C162.594 73.7756 162.735 76.029 163.438 78.1425C164.282 80.396 166.533 82.6501 168.643 81.6639C170.049 81.1003 170.752 79.2693 170.471 77.7194C170.189 76.1703 169.205 74.9023 168.08 73.7756C170.189 73.7756 171.597 75.7479 173.143 77.1564C174.691 78.565 177.644 79.2693 178.489 77.297C178.769 76.4521 178.629 75.6066 178.348 74.7617C177.223 70.9585 175.535 67.2959 173.425 63.9152C175.253 64.056 176.941 65.4647 177.926 67.014C178.91 68.5638 179.614 70.3948 180.598 72.0852C182.568 75.466 185.943 78.0013 189.741 78.8468C188.757 75.6066 186.928 72.6489 184.677 70.2542C187.631 72.0852 190.444 73.9162 193.398 75.7479C193.82 76.029 194.383 76.3109 194.945 76.4521C196.352 76.5927 197.337 75.0436 197.477 73.6344C197.617 72.2258 197.195 70.8173 197.477 69.4087C197.758 68.0001 199.024 66.5916 200.431 67.014C199.305 68.8457 199.305 71.0991 199.305 73.0713C199.165 74.9023 201.978 75.3248 203.244 74.7617C204.791 74.0575 205.494 72.2258 205.917 70.6767C206.76 67.1553 206.057 63.3518 204.229 60.2528C205.635 60.5345 207.182 60.9571 208.448 61.5205C208.87 61.6614 209.292 61.9431 209.573 62.2248C209.995 62.7883 209.855 63.4926 209.855 64.197C209.573 66.1691 209.573 68.282 210.417 70.113C211.261 71.9446 213.371 73.2119 215.34 72.6489C213.793 69.6905 214.637 65.6055 217.309 63.4926C217.168 65.0421 217.028 66.8734 218.013 68.1407C218.856 69.5499 221.107 69.9724 222.092 68.7044C222.514 68.1414 222.514 67.2959 222.514 66.5916C222.373 64.3378 221.529 61.9431 219.981 60.2528C222.092 59.4076 224.202 61.3797 225.186 63.3518C226.17 65.4647 226.452 67.7183 227.999 69.4087C228.561 69.9724 229.265 70.5354 230.109 70.2542C231.094 69.9724 231.375 68.7044 231.094 67.8595C230.812 66.8734 230.249 66.1691 229.828 65.3238C228.984 63.4926 229.265 61.3796 230.39 59.8302C231.515 58.2807 233.485 57.2947 235.454 57.5764C232.5 59.971 232.782 65.183 235.876 67.2959C236.438 67.7183 237.141 68.0001 237.704 67.5777C238.126 67.2959 238.126 66.7322 238.267 66.3097C238.689 62.9292 240.377 59.2667 243.612 58.5625C241.924 60.9571 241.08 64.056 241.22 67.014C241.22 68.5638 241.502 69.9724 242.065 71.3809C242.346 72.0852 242.627 72.7895 243.049 73.3532C243.19 73.6344 243.33 74.0575 243.612 74.1981C244.174 74.6205 245.159 74.1981 245.441 73.4938C246.144 71.6628 247.55 69.9724 249.379 69.2681C247.691 71.2403 248.816 74.7617 251.207 75.7479C253.598 76.5927 256.552 75.0436 257.537 72.5077C258.38 70.113 257.396 67.1553 255.427 65.4647C256.974 65.6055 258.521 66.7322 258.943 68.282C259.506 70.113 259.928 71.8034 260.49 73.6344C260.772 74.7617 261.475 75.6066 262.178 76.1703C263.726 77.297 265.835 76.029 265.976 74.1981C266.257 70.9585 268.086 68.0001 270.758 66.3097C270.336 68.5638 269.773 70.8172 270.618 73.0713C271.321 75.1842 273.852 76.8746 275.962 76.029C277.51 75.3248 278.213 73.4938 278.073 71.8034C277.932 70.113 277.088 68.5638 276.385 67.014C277.932 67.2959 278.776 68.8457 279.198 70.3948C279.619 71.9446 279.62 73.4938 280.464 74.9023C281.307 76.3109 283.136 77.1564 284.402 76.1703C283.839 72.7895 286.653 69.4087 290.028 69.2681C289.325 72.0852 288.903 75.8885 291.716 77.0152C293.685 77.8607 296.076 76.5927 296.779 74.4799C298.186 70.8172 295.795 68.0001 294.248 64.9012C295.936 64.7604 298.186 65.7467 299.592 66.7322C300.718 67.5777 303.25 70.2542 304.516 68.1407C303.25 63.2109 300.999 58.4216 297.905 54.3366C299.311 54.1957 300.859 55.0409 301.702 56.3086C302.546 57.5764 303.109 58.985 303.671 60.2528C303.953 60.6754 304.234 61.2388 304.656 61.3797C305.219 61.5206 305.641 60.9571 305.922 60.6754C307.469 58.985 309.017 57.1538 310.705 55.4634C310.142 57.999 308.735 60.1119 308.032 62.5066C307.329 64.9012 307.61 68.0001 309.579 69.4087C310.845 67.014 312.673 64.9012 314.924 63.4926C314.08 64.056 313.377 65.7467 313.096 66.7322C312.955 67.1553 312.814 67.4364 312.814 67.8595C312.673 68.5638 312.814 69.1269 313.236 69.6905C314.502 71.3809 316.612 71.2403 318.018 69.6905C318.722 68.8457 319.285 67.8595 319.847 66.8734C321.113 64.6195 322.66 62.5066 324.629 60.8162C323.786 62.5066 322.941 64.3378 322.801 66.3097C322.66 68.282 323.644 70.3948 325.473 70.9585C327.302 68.1407 329.833 65.8873 332.928 64.6195C332.084 66.0279 331.24 67.4364 330.396 68.9863C330.115 69.5499 329.693 70.2542 329.833 70.8173C329.974 72.6489 332.506 72.7895 333.912 72.7895C335.178 72.6489 335.882 71.9446 336.585 70.9585C338.413 68.1407 341.086 65.3238 344.743 64.9012C341.649 67.7183 341.508 69.5499 340.101 72.0852C339.679 72.9301 339.539 73.7756 339.398 74.6205C339.398 75.3248 339.398 75.8885 339.679 76.5927C339.82 77.0152 340.101 77.7194 340.524 78.1425C340.945 78.4237 341.649 78.4237 342.071 78.4237C342.774 78.4237 343.477 78.1425 344.18 77.7194C345.025 77.1564 345.868 76.4521 346.712 76.029C347.134 75.8885 347.275 75.7479 347.556 75.466C348.4 74.6205 349.384 73.7756 350.369 73.0713C351.354 72.3671 352.479 71.8034 353.605 71.2403C354.167 70.9585 354.87 70.6767 355.433 70.5354C355.714 70.3948 355.996 70.3948 356.276 70.2542C356.418 70.2542 356.699 70.113 356.839 70.113C356.699 70.2542 356.418 70.3948 356.276 70.5354C355.011 71.5215 353.885 72.5077 352.901 73.6344C352.338 74.1981 351.917 74.7617 351.494 75.466C351.072 76.029 350.65 76.5927 350.51 77.297C350.229 78.565 350.791 79.8323 351.776 80.8184C352.76 81.6639 353.885 82.227 355.151 82.5088C355.714 82.6501 356.276 82.7906 356.839 82.7906C357.824 82.7906 358.809 82.6501 359.793 82.6501C361.34 82.6501 362.888 82.7906 364.576 82.7906C367.107 82.7906 369.639 82.7907 372.171 82.6501C372.733 82.6501 373.436 82.5088 373.999 82.5088C368.795 85.6078 362.606 87.1576 356.417 86.7351C355.292 86.5939 354.167 86.5939 353.182 86.8757C352.198 87.2982 351.213 88.2843 351.494 89.411C351.635 90.1153 352.338 90.679 352.901 91.1014C354.026 91.8057 355.292 92.3694 356.558 92.6512C354.167 92.9331 351.776 92.51 349.666 91.3833C348.822 90.9608 347.978 90.3971 346.993 90.3971C346.009 90.3971 345.025 91.1014 345.165 92.0875C345.305 92.7918 346.009 93.2142 346.712 93.6373C347.838 94.2004 348.963 94.7641 350.088 95.1865C350.932 95.4683 352.057 96.3132 352.76 96.8769C353.464 97.4406 354.167 98.0036 354.87 98.4267C355.433 98.7079 355.855 99.131 356.417 99.4122C356.699 99.5534 357.543 100.258 357.964 100.258C353.464 100.962 348.822 99.694 345.165 97.0175C343.055 95.4683 341.367 93.6373 339.398 92.0875C338.554 91.3833 337.71 90.8196 336.866 90.2565C336.163 89.6929 334.897 89.5523 334.053 89.9747C332.928 90.5384 331.944 92.0875 332.365 93.3555C332.506 93.9185 332.928 94.3416 333.209 94.764C333.631 95.4683 334.053 96.1726 334.334 97.0175C335.882 99.9759 337.851 102.511 340.383 104.625C335.178 103.92 330.256 101.666 326.177 98.1449C323.644 96.032 321.253 93.2142 318.159 91.5245C317.315 91.1014 316.331 90.679 315.346 90.679C314.08 90.679 312.955 91.3832 312.393 92.6512C311.97 93.6373 312.533 94.7641 312.955 95.7502C313.658 98.1449 315.206 100.54 317.597 101.807C313.939 102.371 310.845 98.9897 308.032 96.1726C307.469 95.6089 306.907 94.9046 306.204 94.3416C305.641 93.9185 304.797 92.9331 304.093 92.7918C303.953 93.3555 302.828 93.2142 302.406 93.3555C301.421 93.6373 301.14 94.7641 301.14 95.7502C301.14 97.863 301.421 100.117 302.125 102.23C300.577 101.666 299.874 99.9758 299.171 98.5673C298.467 97.1587 297.201 95.6089 295.513 95.7502C294.107 95.8908 293.263 97.2993 292.7 98.5673C292.138 99.8353 291.716 101.244 290.45 102.089C290.45 99.5534 290.45 97.1587 290.45 94.6235C290.45 94.3416 290.45 93.9185 290.028 93.7779C289.747 93.6373 289.466 93.7779 289.325 93.9185C284.683 97.0175 280.886 101.526 278.494 106.737C277.088 105.751 276.947 103.779 277.369 102.23C277.791 100.68 278.635 99.131 278.776 97.5812C278.916 95.8908 277.932 94.0598 276.385 93.9185C275.4 93.9185 274.275 94.3416 273.29 94.6235C273.009 94.7641 272.446 95.0459 272.306 95.1865C270.618 96.595 269.352 98.2854 268.367 100.258C268.227 97.5812 268.227 94.9046 268.086 92.2288C266.117 90.5384 263.444 91.2427 261.334 92.6512C259.365 94.2004 257.818 96.3132 255.989 98.0036C252.473 101.103 247.55 102.371 243.19 101.103C245.3 100.117 246.706 98.4267 247.691 96.4544C248.113 95.6089 248.535 94.6235 248.113 93.7779C247.691 92.9331 246.706 92.51 245.862 92.51C243.19 92.3694 240.94 92.6512 238.126 93.3555C236.298 93.7779 234.328 94.6235 233.344 96.4544C232.36 98.2854 233.344 101.384 235.173 101.244C233.485 103.497 230.109 101.807 228.421 99.5534C226.733 97.2993 225.327 94.3416 222.654 93.7779C216.606 92.51 214.074 105.188 208.026 104.625C208.588 103.216 209.151 101.807 209.433 100.398C209.573 99.694 209.714 98.9897 209.855 98.2854C209.995 97.863 210.276 97.5812 210.136 97.1587C209.855 95.3277 206.901 95.3277 205.775 96.032C205.213 96.4545 204.791 97.0175 204.229 97.4406C202.962 98.5673 201.275 99.4122 199.727 100.258C197.337 101.666 194.804 102.793 192.132 103.92C192.835 103.638 193.679 101.526 193.961 100.821C194.523 99.5534 195.086 98.2854 195.508 97.0175C195.789 96.1726 196.914 93.7779 195.649 93.7779C194.664 93.6373 192.835 95.6089 191.991 96.1726C186.646 99.694 181.442 98.2854 174.41 100.821C173.847 100.54 173.565 100.398 173.003 100.117C172.581 97.7224 176.097 96.4544 176.519 93.9185C176.801 91.8057 174.41 90.1153 172.581 90.679C171.034 91.1014 169.627 92.0875 169.064 93.6373C168.361 95.4683 167.376 96.3132 164.282 98.1449C163.438 98.7079 162.454 99.131 161.469 99.4122C159.219 100.117 156.828 100.258 154.437 100.398C152.889 100.54 151.342 100.54 149.795 100.68C151.483 100.258 153.171 99.2716 154.296 97.863C154.858 97.2993 155.28 96.595 155.421 95.8908C155.562 95.0459 154.999 93.0736 153.874 92.6512C152.889 92.2288 151.483 92.3694 150.358 92.6512C148.951 93.0736 147.685 93.6373 146.419 94.2004C145.716 94.4822 144.872 94.764 144.028 95.0459C143.465 95.1865 143.043 95.6089 142.481 95.7502C140.793 96.3132 139.105 96.595 137.417 97.1587C136.292 97.4406 135.026 97.7224 133.901 97.863C131.791 98.0036 129.681 97.2993 127.852 96.032C129.259 96.5951 130.806 95.8908 132.072 95.1865C133.479 94.4822 134.885 93.6373 136.292 92.9331C136.995 92.51 139.386 91.8057 139.386 90.679C138.683 88.5661 136.854 88.9886 135.87 88.9886Z" fill="#F39D00"/>
<path d="M131.65 94.4821C132.213 94.2009 132.635 93.7778 133.198 93.6372C133.901 93.3554 134.744 93.4959 135.307 93.4959C136.151 93.6372 136.995 93.6372 137.839 93.4959C139.386 93.3554 140.933 92.9329 142.34 92.2286C142.621 92.0874 143.044 91.8062 143.184 91.5244C143.466 91.1019 143.466 90.397 143.324 89.834C143.184 88.9884 142.621 88.1436 141.918 87.4393C142.762 87.8617 143.606 88.2842 144.591 88.566C145.435 88.8478 146.278 88.9884 147.122 89.2703C147.685 89.4115 148.107 89.834 148.67 89.834C148.951 89.834 149.373 89.6927 149.654 89.5521C150.639 89.1297 151.483 87.0168 149.936 86.5938C152.889 87.298 154.999 90.8201 157.953 90.2564C159.922 89.9746 161.188 88.003 162.032 86.1713C161.61 88.003 163.017 89.9746 164.845 90.1158C165.97 90.2564 167.096 89.5521 167.799 88.566C168.08 88.1436 168.361 87.4393 168.361 86.8756C168.221 85.8895 167.518 83.636 166.251 83.636C167.799 83.7766 169.205 84.3403 170.471 85.1852C171.878 86.1713 173.143 88.566 174.972 88.4254C177.504 88.1436 177.363 83.4948 179.895 83.2136C178.489 84.904 179.051 87.7211 180.739 89.2703C182.427 90.8201 184.818 91.2425 187.069 91.1019C187.772 91.1019 188.475 90.9607 189.037 90.6788C190.163 90.1158 190.585 88.566 190.445 87.298C190.303 86.0307 189.46 84.904 188.757 83.7766C190.445 85.467 192.132 87.1574 193.82 88.8478C194.242 89.2703 194.804 89.834 195.508 90.1158C196.914 90.5382 198.321 89.5521 198.883 88.2842C199.446 87.0168 199.305 85.467 199.305 84.0585C199.446 85.7489 199.446 87.5799 200.29 88.9884C200.993 90.5382 202.541 91.8062 204.229 91.665C205.635 91.5244 206.901 90.397 207.604 89.1297C208.308 87.8617 208.448 86.3126 208.73 84.904C208.73 86.1713 209.151 87.298 209.855 88.4254C210.136 88.9884 210.558 89.4115 210.98 89.834C211.543 90.397 211.964 90.397 212.668 90.5382C213.934 90.6788 215.34 90.8201 216.465 90.1158C217.45 89.4115 217.731 88.2841 218.153 87.1574C218.716 85.3264 219.279 83.3542 219.841 81.5232C219.279 83.9179 220.263 86.735 222.092 88.2842C223.077 89.1297 224.342 89.6927 225.608 89.834C226.593 89.9746 227.999 90.1158 228.421 88.8478C228.562 88.2842 228.562 87.7211 228.421 87.1574C228.281 86.1713 228.14 84.904 227.577 84.0585C230.25 88.4254 236.579 89.834 240.799 87.1574C243.753 85.3264 245.441 82.0862 246.284 78.8467C245.722 81.8044 246.003 85.0446 247.269 87.8617C248.113 89.6927 250.082 91.6649 251.911 90.6788C251.067 87.5799 251.488 84.1991 253.176 81.5232C252.895 83.7766 253.88 86.1713 255.709 87.5799C257.255 88.8478 259.647 89.2703 261.334 88.2842C263.022 87.1574 263.444 84.3403 261.897 83.0724C263.726 84.6222 265.554 86.1713 267.242 87.5799C267.945 88.1436 268.648 88.7072 269.493 88.9884C272.024 89.9745 274.556 88.003 276.666 86.1713C276.385 86.8756 276.385 87.7211 276.525 88.566C276.807 90.2564 278.776 91.665 280.604 90.9607C282.011 90.397 282.433 88.566 283.136 87.1574C283.98 85.1852 285.246 83.636 286.934 82.3681C285.668 83.7766 286.09 86.1713 287.496 87.298C288.903 88.4254 291.012 88.566 292.841 88.003C295.795 87.1574 298.327 84.6222 299.171 81.6638C300.296 83.636 301.421 85.6083 303.25 87.1574C305.078 88.566 307.469 89.2703 309.58 88.566C310.001 88.4254 310.423 88.1436 310.564 87.8617C310.705 87.5799 310.705 87.1574 310.705 86.735C310.423 84.0585 310.001 81.5232 309.72 78.8467C312.814 83.7766 317.597 87.5799 323.082 89.5521C323.504 89.6927 323.926 89.834 324.348 89.6927C324.911 89.5521 325.192 88.9884 325.473 88.4254C326.317 86.735 327.302 85.0446 328.146 83.3542C327.302 84.7628 329.131 86.5938 330.818 86.4532C332.506 86.3126 333.912 85.0446 335.32 84.1991C337.429 82.9318 340.101 82.2275 342.633 82.2275C342.212 83.2136 341.227 83.636 340.524 84.3403C339.82 85.0446 339.117 86.1713 339.679 87.0168C340.101 87.7211 341.086 87.7211 341.789 87.7211C344.884 87.7211 347.978 87.298 350.932 86.5938C349.384 87.4393 347.978 88.4254 346.571 89.4115C346.009 89.834 345.306 90.2564 344.743 90.6788C343.618 91.5244 345.025 92.6511 345.868 92.9329C346.994 93.4959 348.119 93.919 349.244 94.4821C350.088 94.7639 351.213 95.6094 351.917 96.1725C352.62 96.7362 353.323 97.2998 354.026 97.7223C354.589 98.0041 355.011 98.4266 355.574 98.7084C355.855 98.849 356.699 99.5533 357.121 99.5533C352.62 100.258 347.978 98.9896 344.321 96.3137C342.212 94.7639 340.524 92.9329 338.554 91.3831C337.71 90.6788 336.866 90.1158 336.023 89.5521C335.32 88.9884 334.053 88.8478 333.209 89.2703C332.084 89.834 331.099 91.3831 331.521 92.6511C331.662 93.2148 332.084 93.6372 332.366 94.0596C332.787 94.7639 333.209 95.4682 333.491 96.3137C335.038 99.2714 337.007 101.807 339.539 103.92C334.335 103.216 329.411 100.962 325.332 97.4404C322.801 95.3276 320.41 92.5105 317.315 90.8201C316.472 90.397 315.487 89.9746 314.502 89.9746C313.236 89.9746 312.111 90.6788 311.548 91.9468C311.126 92.9329 311.689 94.0596 312.111 95.0458C312.814 97.4404 314.361 99.8351 316.752 101.103C313.096 101.666 310.001 98.2853 307.188 95.4682C306.626 94.9052 306.063 94.2009 305.359 93.6372C304.797 93.2148 302.687 92.0874 301.562 92.7917C300.718 93.2148 300.296 94.2009 300.296 95.1863C300.296 97.2998 300.577 99.5533 301.28 101.666C299.734 101.103 299.03 99.4127 298.327 98.0041C297.624 96.5956 296.358 95.0458 294.67 95.1863C293.263 95.3276 292.42 96.7362 291.857 98.0041C291.294 99.2714 290.872 100.68 289.606 101.526C289.606 98.9896 289.606 96.5956 289.606 94.0596C289.606 93.7778 289.606 93.3554 289.184 93.2148C288.903 93.0735 288.622 93.2148 288.481 93.3554C283.84 96.4543 280.042 100.962 277.651 106.174C276.244 105.188 276.103 103.216 276.525 101.666C276.948 100.117 277.791 98.5671 277.932 97.018C278.073 95.3276 277.088 93.4966 275.54 93.3554C274.556 93.3554 273.431 93.7778 272.446 94.0596C272.165 94.2009 271.602 94.4821 271.462 94.6233C269.774 96.0319 268.508 97.7223 267.523 99.6945C267.383 97.018 267.383 94.3415 267.242 91.665C265.273 89.9746 262.601 90.6788 260.491 92.0874C258.522 93.6372 256.974 95.75 255.146 97.4404C251.629 100.539 246.706 101.807 242.346 100.539C244.456 99.5533 245.862 97.8629 246.847 95.8906C247.269 95.0458 247.691 94.0596 247.269 93.2148C246.847 92.3692 245.862 91.9468 245.019 91.9468C242.346 91.8062 240.095 92.0874 237.282 92.7917C235.454 93.2148 233.485 94.0596 232.5 95.8906C231.515 97.7223 232.5 100.821 234.328 100.68C232.641 102.934 229.265 101.244 227.577 98.9896C225.89 96.7362 224.483 93.7778 221.81 93.2148C215.762 91.9468 213.23 104.624 207.182 104.061C207.745 102.652 208.308 101.244 208.588 99.8351C208.73 99.1308 208.87 98.4266 209.011 97.7223C209.151 97.2998 209.433 97.018 209.292 96.5956C209.011 94.7639 206.057 94.7639 204.932 95.4682C204.369 95.8906 203.947 96.4543 203.384 96.8768C202.119 98.0041 200.431 98.849 198.883 99.6945C196.492 101.103 193.961 102.23 191.288 103.357C191.991 103.075 192.836 100.962 193.116 100.258C193.679 98.9896 194.242 97.7223 194.664 96.4543C194.945 95.6094 196.07 93.2148 194.804 93.2148C193.82 93.0735 191.991 95.0458 191.148 95.6094C185.803 99.1308 180.598 97.7223 173.565 100.258C173.003 99.9757 172.722 99.8351 172.159 99.5533C171.737 97.1586 175.253 95.8906 175.676 93.3554C175.956 91.2425 173.565 89.5521 171.737 90.1158C170.19 90.5382 168.784 91.5244 168.221 93.0735C167.518 94.9052 166.533 95.75 163.438 97.581C162.594 98.1447 161.61 98.5672 160.625 98.849C158.375 99.5533 155.984 99.6945 153.592 99.8351C152.045 99.9757 150.498 99.9757 148.951 100.117C150.639 99.6945 152.327 98.7084 153.452 97.2998C154.015 96.7362 154.437 96.0319 154.577 95.3276C154.718 94.4821 154.155 92.5105 153.03 92.0874C152.045 91.665 150.639 91.8062 149.513 92.0874C148.107 92.5105 146.841 93.0735 145.575 93.6372C144.872 93.919 144.028 94.2009 143.184 94.4821C142.621 94.6233 142.199 95.0458 141.637 95.1863C139.949 95.75 138.261 96.0319 136.573 96.5956C135.448 96.8768 134.182 97.1586 133.057 97.2998C130.947 97.4404 128.837 96.7362 127.009 95.4682C128.837 95.8906 130.385 95.1863 131.65 94.4821Z" fill="#DF7800"/>
<path d="M284.261 55.041C280.885 55.3227 277.651 56.4496 274.697 58.1399C274.978 56.4496 275.4 54.9001 275.963 53.3506C274.978 55.3227 273.993 57.2947 273.009 59.2669C272.868 59.4077 272.868 59.5486 272.727 59.6894C272.587 59.8303 272.446 59.6894 272.165 59.6894C269.774 59.1259 267.523 58.5625 265.132 58.1399C266.82 59.126 268.508 60.112 270.196 61.0981C271.602 61.9432 273.009 62.7884 274.134 63.9153C274.275 62.5067 274.838 61.2389 275.681 60.2529C276.244 61.9433 277.651 63.0701 279.197 63.6336C280.745 64.197 282.573 64.3379 284.261 64.3379C282.573 63.0701 280.745 61.8023 279.057 60.5346C278.776 60.3937 278.072 60.112 278.213 59.5486C278.354 59.126 278.916 58.9851 279.197 58.8442C280.042 58.2808 280.745 57.8582 281.448 57.2947C282.714 56.5905 283.558 55.8861 284.261 55.041Z" fill="#F39D00"/>
<path d="M191.289 47.9982C190.445 46.5897 189.46 45.3219 188.195 44.3359C188.195 45.4628 188.476 46.4488 188.898 47.4348C188.476 46.3079 187.351 45.6036 186.225 45.4628C185.1 45.181 183.975 45.4627 182.85 45.6036C184.256 43.7724 186.366 42.5046 188.617 42.082C188.898 42.082 189.038 41.9412 189.32 41.8003C189.46 41.6595 189.601 41.5186 189.742 41.3778C190.445 40.11 191.148 38.7014 191.851 37.4336C191.851 38.4197 191.851 39.5466 191.992 40.5326C191.992 40.8143 191.992 41.096 192.133 41.3778C192.274 41.5186 192.414 41.6595 192.555 41.8003C193.539 42.3637 194.665 42.9272 195.649 43.4907C194.524 43.4907 192.836 42.9272 191.992 43.7724C191.571 44.195 191.571 44.8993 191.571 45.4628C191.43 45.4628 191.289 47.9982 191.289 47.9982Z" fill="#FDC232"/>
<path d="M267.946 32.6445C264.289 32.6445 260.773 32.7853 257.116 32.7853C258.522 33.9123 259.929 34.8983 261.476 36.0252C258.241 35.0392 255.006 34.194 251.63 33.9123C253.318 33.4897 255.006 33.0671 256.834 32.7853C254.865 32.0811 252.896 31.2359 251.067 30.2498C253.459 30.3907 255.991 30.6724 258.382 31.095C256.975 30.109 255.428 28.5595 255.006 26.8691C256.553 27.5735 257.538 28.7003 258.944 29.4047C260.773 30.3907 262.742 31.2359 264.711 31.7993C265.555 32.0811 266.821 32.6445 267.946 32.6445Z" fill="#FDC232"/>
<path d="M230.249 34.7574C227.858 35.0391 225.467 35.0391 223.076 35.0391C224.764 36.1661 226.592 37.1521 228.561 37.9972C224.061 36.3069 219.419 34.8983 214.777 33.4897C217.028 33.6306 219.419 33.9123 221.669 34.4757C220.826 33.9123 220.123 33.208 219.278 32.6445C220.966 32.6445 222.654 33.0671 224.342 33.3488C225.327 33.4897 226.452 33.7714 227.436 33.9123C227.999 34.0532 228.421 34.194 228.983 34.194C229.124 34.4757 229.828 34.7574 230.249 34.7574Z" fill="#FDC232"/>
<path d="M299.172 32.3622C299.172 32.5031 299.453 32.3622 299.453 32.2213C299.313 32.0804 299.172 32.0805 299.031 32.0805C295.374 32.9256 292.279 35.3203 289.466 37.7149C290.451 36.0246 291.576 34.3343 292.842 32.9256C290.17 33.4891 287.497 34.1934 284.825 35.0385C286.091 34.3343 287.357 33.4891 288.623 32.7848C289.466 32.3622 290.17 31.7987 291.014 31.517C292.983 30.6718 295.233 30.3901 297.343 30.1084C296.5 30.8127 295.655 31.517 294.812 32.2213C297.343 32.3622 299.875 32.0804 302.266 31.517C300.578 33.3482 297.765 33.2074 295.374 33.7708C295.233 33.7708 295.092 33.9117 294.952 33.9117C294.812 34.0526 294.952 34.1934 295.092 34.1934L299.172 32.3622Z" fill="#FDC232"/>
<path d="M200.291 34.7577C200.572 34.7577 201.135 35.462 201.416 35.6028C201.838 35.8846 202.26 36.1663 202.682 36.448C203.526 37.0114 204.37 37.4341 205.073 37.9975C206.339 38.7018 207.465 39.547 208.73 40.1104C209.293 40.3922 209.996 40.6739 210.699 40.8147C210.981 40.9556 212.387 40.9556 212.528 41.2373C209.574 37.2932 205.214 34.476 200.291 34.7577Z" fill="#FDC232"/>
<path d="M283.418 37.433C279.761 35.6017 276.526 33.2071 273.854 30.249C273.994 30.3899 274.838 30.3899 275.12 30.5307C275.541 30.6716 275.963 30.6716 276.526 30.8124C277.229 30.9533 277.792 31.0942 278.214 31.5167C279.479 32.6436 280.605 33.9114 281.73 35.1792C282.293 35.7426 282.855 36.5878 283.418 37.433Z" fill="#FDC232"/>
<path d="M233.344 38.42C234.187 38.2792 234.891 37.8565 235.735 37.434C236.579 37.0114 237.282 36.448 238.126 36.0254C239.392 35.4619 240.799 35.0394 242.205 34.8984C242.627 34.8984 243.049 34.8984 242.767 35.3211C242.346 35.8845 241.502 36.1662 240.939 36.4479C240.095 36.8706 239.251 37.2931 238.266 37.5748C236.438 38.1383 234.891 38.2792 233.344 38.42Z" fill="#FDC232"/>
<path d="M335.179 50.9565C331.944 51.2382 328.849 51.8017 325.755 52.7877C327.161 52.0834 328.428 50.9565 329.412 49.5479C326.318 50.6748 323.083 51.8017 319.848 52.6468C322.802 53.6329 326.036 54.0554 329.272 53.7737C328.006 54.7598 326.599 55.6049 325.333 56.591C325.474 56.4501 326.318 56.7318 326.458 56.7318C326.881 56.7318 327.303 56.7318 327.724 56.591C328.287 56.4501 328.99 56.3093 329.412 55.8867C330.678 54.9006 331.944 53.9146 333.21 52.7877C333.773 52.2242 334.476 51.52 335.179 50.9565Z" fill="#F39D00"/>
<path d="M245.159 54.7598C246.144 56.3092 246.987 57.8588 248.535 58.8448C249.379 59.4083 250.082 60.2534 250.785 60.9577C251.208 61.3803 251.629 61.8029 252.051 62.0847C252.192 62.2255 252.896 63.0707 253.036 63.0707C252.333 61.5212 251.488 59.9717 250.504 58.7039C249.941 57.9996 249.379 57.4362 248.816 56.8727C248.535 56.591 248.394 56.591 248.113 56.3092C247.129 56.0275 246.144 55.3233 245.159 54.7598Z" fill="#F39D00"/>
<path d="M198.744 59.1261C197.338 59.5487 196.494 60.8164 195.791 62.0842C195.087 63.352 194.525 64.7606 193.4 65.4649C193.821 63.9154 194.243 62.3659 194.946 60.9573C193.118 63.352 191.008 65.6057 188.617 67.4367C190.164 63.2111 193.118 59.6895 196.775 57.2949C196.775 58.1401 196.775 59.1261 196.634 59.9713C198.041 58.9853 199.729 58.2809 201.417 58.1401C201.276 58.5627 200.995 58.8444 200.572 58.9853C199.166 59.9712 197.619 60.8164 196.212 61.8025L198.744 59.1261Z" fill="#F39D00"/>
<path d="M170.049 66.0282C167.799 65.3239 165.548 64.6197 163.298 63.9153C164.564 65.0422 165.829 66.31 166.954 67.4367C162.876 64.9014 158.797 62.5067 154.296 60.9572C156.687 61.6616 159.078 62.5067 161.469 63.211C160.765 62.0841 160.203 60.8164 159.5 59.6895C161.328 60.8164 163.016 61.9433 164.845 63.0702C164.704 62.6476 164.001 61.5207 164.423 61.0981C165.407 61.8024 166.251 62.7885 167.236 63.6336C167.658 64.0562 168.22 64.4788 168.642 64.7605C168.924 65.1831 169.487 65.8876 170.049 66.0282Z" fill="#F39D00"/>
<path d="M147.686 76.5939C148.389 75.1846 149.514 74.1992 150.639 73.0718C151.905 71.8045 153.311 70.3959 154.718 69.2686C154.999 69.128 156.828 67.86 156.969 68.7055C157.109 69.2686 155.703 70.3959 155.421 70.6771C154.578 71.5227 153.593 72.3675 152.608 73.0718C151.202 74.4804 149.514 75.6077 147.686 76.5939Z" fill="#F39D00"/>
<path d="M324.348 81.8048C320.832 82.9315 317.174 83.9176 313.658 84.7631C316.331 83.4952 319.003 81.9454 321.254 79.9738C319.003 80.2556 316.753 80.5368 314.361 80.5368C315.487 80.5368 316.471 79.8325 317.315 79.2695C319.707 77.7197 322.379 76.7336 325.192 76.1705C325.895 76.0293 326.88 76.0293 327.162 76.7336C325.754 78.0015 324.208 79.1283 322.801 80.3962C324.77 80.3962 326.599 80.2556 328.427 79.9738C328.287 80.1144 328.146 80.1144 328.005 80.1144C328.146 79.9738 328.287 79.9738 328.427 79.8325C327.302 80.8187 325.754 81.3823 324.348 81.8048Z" fill="#FDC232"/>
<path d="M303.671 79.129C304.796 76.593 305.922 74.1984 306.906 71.6631C305.922 72.7898 305.078 73.9165 304.093 75.0439C303.671 75.4663 303.249 76.03 302.687 76.03C302.405 76.03 302.124 75.8888 301.842 75.8888C301.28 75.6069 300.858 75.3257 300.577 74.762C300.296 74.1984 300.436 73.4941 300.858 73.2122C299.874 75.3251 298.608 77.4386 297.201 79.2696C299.171 78.5653 301.139 77.861 303.109 77.4386C302.265 78.4247 301.421 79.692 300.858 80.96C301.983 80.5375 303.109 79.8332 304.093 79.129H303.671Z" fill="#FDC232"/>
<path d="M262.179 80.96C264.429 82.3685 266.821 83.6365 269.212 84.7632C269.071 84.3408 268.93 84.0589 268.649 83.7771C271.181 83.4952 273.572 85.4675 276.104 85.3269C275.822 85.3269 274.979 84.4814 274.838 84.3408C274.416 84.0589 273.994 83.7771 273.572 83.3546C273.009 82.9322 272.447 82.791 271.884 82.5091C269.915 81.6642 267.946 81.2418 265.836 81.1006C264.57 81.1006 263.304 80.96 262.179 80.96Z" fill="#FDC232"/>
<path d="M235.736 81.242C234.189 80.2558 232.641 79.2697 230.953 78.5654C231.235 78.7067 231.798 78.5654 232.079 78.5654C232.501 78.5654 232.923 78.7067 233.204 78.7067C233.907 78.8473 234.751 79.1291 235.454 79.411C236.158 79.6921 236.861 80.1152 237.565 80.5377C237.987 80.8195 238.83 81.242 239.112 81.8056C239.533 82.5099 238.408 82.6505 237.987 82.6505C236.861 82.7911 235.736 82.6505 234.611 82.6505C232.501 82.6505 230.532 82.6505 228.422 82.7911C230.813 81.6644 233.345 81.242 235.736 81.242Z" fill="#FDC232"/>
<path d="M203.385 86.8756C205.073 86.735 206.339 85.1852 207.745 84.1991C209.574 83.0723 211.683 82.6499 213.653 82.0862C213.934 82.0862 216.325 81.1001 216.184 81.8044C216.044 82.3681 214.356 83.2129 213.934 83.4948C212.809 84.1991 211.543 84.7627 210.136 85.1852C209.152 85.467 208.027 85.7489 207.042 85.8895C206.057 86.4531 204.651 86.8756 203.385 86.8756Z" fill="#FDC232"/>
</g>
<defs>
<clipPath id="clip0_930_10897">
<rect width="431" height="113" fill="white" transform="translate(-57)"/>
</clipPath>
</defs>
</svg>
