<svg width="384" height="82" viewBox="0 0 384 82" fill="none" xmlns="http://www.w3.org/2000/svg">
<g clip-path="url(#clip0_930_10846)">
<path d="M270.536 92.818C272.293 92.9777 274.051 93.2976 275.649 93.138C276.927 93.138 278.206 92.6577 279.484 92.3378C282.52 91.5376 285.556 90.7374 288.432 89.4569C290.51 88.6567 292.428 87.5366 294.505 87.3769C291.629 86.2568 288.593 86.0965 285.716 86.2568C282.041 86.5767 278.525 87.3769 274.85 87.6969C273.092 87.8565 271.175 88.0168 269.417 87.8565C268.139 87.6969 266.701 87.6969 265.582 87.0563C265.262 86.8967 264.943 86.5767 264.623 86.2568C263.984 85.136 264.623 83.6959 265.262 82.736C265.422 82.4154 265.742 82.0955 265.902 81.7755C266.061 81.4556 266.061 81.1356 266.221 80.9753C266.701 80.3354 267.18 79.6949 267.659 79.055C269.577 76.6544 271.974 74.5744 273.092 71.6936C273.572 70.2535 273.891 68.6531 273.731 67.213C273.412 68.0132 272.932 68.8127 272.453 69.6129C271.654 70.8934 270.536 71.8539 269.257 72.6541C268.618 73.1337 267.979 73.4536 267.34 73.6139C267.02 73.7742 266.701 73.9339 266.221 73.9339C265.742 74.0942 265.422 74.0942 264.943 74.0942C263.505 74.2538 261.587 73.9339 261.587 72.4938C261.587 72.0135 261.907 71.5333 262.386 71.2133C264.623 68.973 267.499 67.213 269.097 64.4922C270.695 61.6116 270.695 58.0909 270.536 54.7302C269.737 61.1315 264.943 66.7327 258.871 68.6531C257.432 69.1333 255.514 69.293 254.396 68.3331C253.597 67.5329 253.597 66.0922 254.237 65.2923C255.994 63.2119 258.871 61.9317 260.309 59.3712C261.427 57.4508 261.108 54.7302 259.67 53.1299C259.829 54.7302 259.51 56.3306 258.551 57.6108C257.592 58.8911 255.994 59.5312 254.396 59.2111C252.958 58.8911 251.679 57.1308 252.159 55.6905C252.319 54.8903 252.798 54.2502 253.437 53.7701C255.994 50.8895 259.03 48.489 262.386 46.5687C259.35 45.9285 255.994 46.8887 253.597 49.1292C252.638 49.9293 251.839 51.0495 250.88 51.8497C249.922 52.6499 248.484 53.13 247.365 52.8099C247.045 52.6499 246.726 52.4898 246.566 52.3298C246.406 52.0097 246.406 51.6897 246.566 51.3696C246.886 49.6092 247.685 47.8489 247.844 45.9285C248.004 44.0081 247.205 41.9277 245.447 41.2876C245.767 42.8879 245.927 44.6483 245.607 46.4086C245.288 48.489 244.329 50.4094 243.051 52.0097C242.411 52.6499 242.092 53.29 241.133 53.29C239.535 53.29 238.417 52.8099 237.458 51.3696C236.339 49.7693 235.86 47.3688 236.339 45.4485C237.298 41.9277 240.174 39.5273 243.051 37.4469C240.014 36.9668 236.819 37.9269 234.581 40.1674C232.185 42.4079 229.308 45.9285 226.911 43.8481C224.514 41.9277 226.431 37.7669 227.71 34.8864C228.029 34.0862 228.35 33.2861 228.509 32.4859C225.313 35.3664 221.638 37.6069 217.962 38.8872C209.014 41.9277 199.586 38.7271 193.834 31.6857C189.359 34.0862 183.606 34.4063 179.292 32.4859C175.936 31.0456 173.539 28.8051 171.622 25.9246C170.503 24.1643 169.704 21.7638 169.544 19.3633C167.787 22.5639 165.869 25.4445 163.472 27.845C160.915 26.8848 160.276 23.3641 159.956 20.3235C159.637 16.6428 159.317 12.9621 158.997 9.28131C157.719 15.2025 155.642 20.8036 152.765 25.9246C151.967 27.5249 150.528 29.1252 148.93 28.9652C146.534 28.6452 146.374 24.8044 146.693 22.0839C147.652 15.0425 147.972 7.84109 147.492 0.639648C146.534 10.2415 144.296 19.5233 140.621 28.3251C139.023 25.4445 137.585 22.4039 136.467 19.2033C135.507 16.1627 135.188 12.802 133.59 10.0815C133.75 10.4016 131.992 14.7224 131.353 15.6826C131.033 16.3227 130.713 16.8028 130.394 17.2829C129.435 18.5631 128.956 19.8434 128.476 21.4437C128.157 22.5639 128.157 22.724 127.198 22.4039C126.719 22.2439 126.239 21.6038 125.92 21.1236C125.121 19.8434 124.801 18.4031 124.481 16.9629C123.683 12.802 122.085 8.80126 119.847 5.44059C120.487 9.60139 121.126 13.7622 120.007 17.763C119.688 19.2033 119.049 20.4836 118.25 21.6038C117.77 22.4039 117.291 23.3641 116.811 24.1643C115.054 26.2446 112.817 22.724 112.177 21.4437C111.858 20.8036 111.538 20.0034 111.219 19.3633C110.899 18.7232 110.899 18.0831 110.579 17.4429C109.621 14.2423 108.502 11.0417 106.904 8.1611C106.105 6.72081 105.466 5.44058 104.507 4.16033C104.027 3.52021 103.708 2.88009 103.228 2.23996C102.909 1.9199 102.429 1.27977 102.11 0.959707C104.347 6.56081 107.703 21.2837 99.2339 23.6841C94.1203 25.1244 96.0379 16.0026 94.2797 13.1221C93.9603 15.5225 93.6408 17.763 93.3213 20.1635C93.1612 21.4437 92.5223 24.4843 90.7642 24.0042C90.1252 23.8442 89.6457 22.884 89.3262 22.2439C87.8882 20.0034 86.6096 17.923 85.9707 15.2025C85.8106 14.7224 85.3317 9.12127 85.9707 9.12127C83.8931 9.12127 82.4551 11.3618 82.1356 13.6022C81.8162 15.8426 82.1356 18.083 82.1356 20.3235C81.9756 22.5639 81.0171 25.1244 79.0996 25.6046C77.5016 26.0846 76.0629 25.1244 74.785 24.1643C73.6665 23.2041 72.7074 22.5639 71.2695 21.9238C69.3519 20.9636 67.4344 20.1635 65.3569 19.3633C64.5579 19.0433 60.8826 18.7232 60.4031 17.9231C62.3207 21.1236 64.3981 24.3243 66.3159 27.3649C67.1149 28.8051 68.3928 30.2454 68.7123 32.0058C69.0325 34.0862 67.2743 33.9262 65.8364 34.0862C63.9187 34.2462 62.3207 33.6061 60.8826 32.3258C57.6866 29.2853 54.1711 25.4445 51.7742 21.6038C52.5731 24.4843 53.3721 27.3649 54.1711 30.4055C54.4907 31.5257 55.1299 32.966 54.9701 34.2462C54.9701 34.7263 54.8103 35.0464 54.8103 35.5265C54.8103 36.1666 54.9701 36.6467 54.8103 37.2868C54.3309 38.5671 52.5731 38.4071 51.2947 37.767C50.0164 37.1268 48.738 36.4867 47.7792 35.3664C47.4596 35.0464 47.1401 34.7263 46.8205 34.4063C45.8617 33.7661 44.5833 33.4461 43.305 33.126C42.3461 32.8059 41.2276 32.4859 40.2688 32.1658C39.9492 32.0058 38.6708 32.0058 38.3512 31.6857C39.3101 32.966 40.2688 34.2462 41.0678 35.5265C41.8668 36.6467 42.6658 37.9269 42.9854 39.3672C43.305 40.3275 43.4647 41.4477 43.6245 42.5679C43.7843 43.6881 43.4648 45.1284 42.3461 45.6084C41.8668 45.9285 41.2276 45.9285 40.7482 45.9285C39.1502 45.9285 37.5523 45.6084 36.1141 44.9684C35.4749 44.6483 34.6759 44.1682 34.0368 44.0082C31.48 43.368 28.9233 42.5679 26.5263 41.1276C27.1655 41.4476 27.6449 42.5679 28.1243 43.048C28.6037 43.6881 29.2429 44.4882 29.7222 45.1284C30.681 46.4086 31.7996 47.8489 32.9182 49.1292C34.6759 51.0495 37.0729 53.29 35.9543 56.1705C35.1553 58.571 32.279 59.5312 29.7222 59.2111C22.6912 58.571 17.5777 51.5296 10.5467 50.8895C14.222 55.2104 18.2169 59.6913 23.8098 60.6514C24.6088 60.8115 25.4077 60.8115 26.0469 61.2915C26.6861 61.6116 27.3253 62.4117 27.0057 63.2119C26.8459 64.0121 26.0469 64.3322 25.248 64.6522C22.6912 65.6124 20.1345 66.2525 17.4179 66.4128C16.1396 66.5724 14.8612 66.5724 13.423 66.5724C12.9436 66.5724 12.3045 66.4128 11.825 66.4128C11.1858 66.4128 10.5467 66.7327 10.0673 66.8924C8.62909 67.3726 7.03117 67.6926 5.59298 68.1728C6.07237 68.3331 6.39196 68.3331 6.87137 68.4928C11.1858 69.6129 15.6602 70.4131 20.1345 71.2133C22.052 71.5333 24.1293 71.0537 26.0469 71.0537C28.1243 71.0537 30.0418 71.0537 32.1192 71.2133C32.7584 71.2133 33.3975 71.3736 33.877 71.5333C34.3564 71.8539 34.6759 72.4938 34.5161 72.974C34.3564 73.294 34.0368 73.6139 33.877 73.7742C31.48 75.3746 28.7635 75.6946 25.8871 75.8542C24.2891 76.0145 22.6912 76.0145 20.9334 76.0145C20.1345 76.0145 19.3355 76.0145 18.5365 76.0145C17.8973 76.0145 16.9385 76.0145 16.2993 75.8542C17.7375 76.3345 19.3355 76.8147 20.9334 77.1347C21.7324 77.295 22.5314 77.6149 23.4902 77.7746C24.1293 77.9349 24.7686 78.0952 25.4077 78.0952C26.0469 78.0952 26.5263 78.0952 27.1655 78.0952C28.6037 78.2548 30.0418 78.2548 31.48 78.4151C32.279 78.4151 33.078 78.5748 33.7172 78.8947C34.3564 79.2153 34.9955 79.8552 35.1553 80.6554C32.7584 83.2156 29.2428 83.056 26.0469 83.6959C24.9284 83.8562 23.8098 84.0158 22.6912 84.1761C20.454 84.4961 18.2169 84.6564 15.9798 84.816C11.5054 85.136 7.03117 85.136 2.55685 84.816C1.91766 84.816 1.11868 84.6564 0.479492 84.6564C6.39196 88.1771 13.423 89.9372 20.454 89.4569C21.7324 89.2973 23.0108 89.2973 24.1293 89.6172C25.248 90.0975 26.3665 91.2176 26.0469 92.4974C25.8871 93.2976 25.0882 93.9382 24.449 94.4177C23.1706 95.2179 21.7324 95.8585 20.2942 96.1784C23.0108 96.4984 25.7273 96.0181 28.1243 94.7383C29.0831 94.2581 30.0418 93.6182 31.1604 93.6182C32.279 93.6182 33.3975 94.4177 33.2377 95.5385C33.078 96.3387 32.279 96.8183 31.48 97.2986C30.2017 97.9385 28.9233 98.4187 27.6449 99.0593C26.6861 99.3792 25.7273 99.6992 25.0882 100.499C24.2891 101.459 23.1706 102.1 22.2118 102.74C21.5726 103.06 21.0933 103.54 20.454 103.86C20.1345 104.02 19.1757 104.82 18.6963 104.82C23.8098 105.621 29.0831 104.18 33.2377 101.139C35.6347 99.3792 37.5523 97.2986 39.7894 95.5385C40.7482 94.7383 41.707 94.0978 42.6658 93.4579C43.4647 92.818 44.9029 92.6577 45.8617 93.138C47.1401 93.7779 48.2586 95.5385 47.7792 96.9786C47.6194 97.6185 47.1401 98.0988 46.8205 98.579C46.3411 99.3792 45.8617 100.179 45.5421 101.139C43.7843 104.5 41.5472 107.381 38.6708 109.781C44.5833 108.981 50.1762 106.421 54.8103 102.42C57.6867 100.019 60.4031 96.8183 63.9187 94.898C64.8775 94.4177 65.9958 93.9381 67.1149 93.9381C68.5529 93.9381 69.8315 94.7383 70.4704 96.1784C70.95 97.2986 70.3104 98.579 69.8315 99.6992C69.0325 102.42 67.2743 105.14 64.5579 106.58C68.7123 107.22 72.2279 103.38 75.424 100.179C76.0629 99.5389 76.7026 98.7387 77.5016 98.0988C78.1405 97.6185 79.0996 96.4984 79.8986 96.3387C80.0581 96.9786 81.3366 96.8183 81.8162 96.9786C82.9347 97.2986 83.2541 98.579 83.2541 99.6992C83.2541 102.1 82.9347 104.66 82.1356 107.061C83.8931 106.421 84.6921 104.5 85.4911 102.9C86.2902 101.3 87.7281 99.5389 89.6457 99.6992C91.2437 99.8588 92.2028 101.459 92.8418 102.9C93.4807 104.34 93.9603 105.94 95.3989 106.9C95.3989 104.02 95.3989 101.3 95.3989 98.4187C95.3989 98.0988 95.3989 97.6185 95.8778 97.4589C96.1973 97.2986 96.5174 97.4589 96.6768 97.6185C101.95 101.139 106.265 106.26 108.981 112.182C110.579 111.062 110.739 108.821 110.26 107.061C109.78 105.3 108.822 103.54 108.661 101.78C108.502 99.8588 109.621 97.7788 111.378 97.6185C112.497 97.6185 114.095 98.2591 115.213 98.579C115.533 98.7387 115.853 98.899 116.172 99.2189C118.09 100.819 119.528 102.74 120.646 104.98C120.806 101.939 120.806 98.899 120.966 95.8585C123.203 93.9381 126.239 94.7383 128.636 96.3387C130.873 98.0988 132.631 100.499 134.708 102.42C138.704 105.94 144.296 107.381 149.25 105.94C146.853 104.82 145.255 102.9 144.137 100.659C143.657 99.6992 143.178 98.579 143.657 97.6185C144.137 96.6587 145.255 96.1784 146.214 96.1784C149.25 96.0181 151.807 96.3387 155.003 97.1383C157.08 97.6185 159.317 98.579 160.436 100.659C161.554 102.74 160.436 106.26 158.358 106.1C160.276 108.661 164.111 106.741 166.028 104.18C167.946 101.62 169.544 98.2591 172.58 97.6185C179.452 96.1784 182.328 110.581 189.199 109.941C188.56 108.341 187.921 106.741 187.601 105.14C187.441 104.34 187.281 103.54 187.122 102.74C186.962 102.259 186.642 101.939 186.802 101.459C187.122 99.3792 190.477 99.3792 191.756 100.179C192.395 100.659 192.874 101.3 193.513 101.78C194.952 103.06 196.87 104.02 198.627 104.98C201.344 106.58 204.22 107.861 207.256 109.141C206.457 108.821 205.498 106.421 205.179 105.621C204.54 104.18 203.901 102.74 203.421 101.3C203.102 100.339 201.823 97.6185 203.261 97.6185C204.38 97.4589 206.457 99.6992 207.416 100.339C211.091 102.74 214.767 103.06 218.761 103.7C222.117 104.18 225.632 104.66 228.989 105.14C229.788 102.259 225.473 100.819 224.993 97.9385C224.674 95.5385 227.391 93.6182 229.468 94.2581C231.226 94.7384 232.824 95.8585 233.463 97.6185C233.942 98.579 234.422 99.3792 235.221 100.179C237.138 101.939 239.375 103.38 241.932 104.18C244.648 104.98 247.365 105.14 250.241 105.3C251.999 105.46 253.757 105.46 255.514 105.621C253.597 105.14 251.679 104.02 250.401 102.42C249.762 101.78 249.282 100.98 249.123 100.179C248.963 99.2189 249.602 96.9786 250.88 96.4984C251.999 96.0181 253.597 96.1784 254.875 96.4984C256.474 96.9786 257.911 97.6185 259.349 98.2591C260.148 98.579 261.108 98.899 262.066 99.2189C262.706 99.3792 263.185 99.8588 263.824 100.019C265.742 100.659 267.659 100.98 269.577 101.62C270.855 101.939 272.293 102.259 273.572 102.42C275.969 102.579 278.365 101.779 280.443 100.339C278.845 100.98 277.087 100.179 275.649 99.3792C274.051 98.579 272.453 97.6185 270.855 96.8183C270.056 96.3387 267.34 95.5386 267.34 94.2581C267.34 92.3378 269.417 92.818 270.536 92.818Z" fill="#FDC232"/>
<path d="M205.339 54.5707C207.097 57.2913 210.293 59.0516 213.489 58.5715C212.53 56.3311 211.891 53.9306 211.411 51.5301C211.092 50.2499 211.092 48.4896 212.21 47.8494C213.808 47.0493 215.406 48.8096 216.205 50.4099C217.324 52.6503 218.442 55.3709 216.844 57.2913C219.561 55.6909 220.999 52.1703 220.2 49.1296C220.839 48.0094 222.597 48.6496 223.076 49.7698C223.556 50.89 223.396 52.1703 223.716 53.4505C224.035 55.3709 225.634 56.9712 227.391 57.4513C229.309 57.9314 231.386 57.4513 232.664 56.011C230.907 55.5309 228.989 54.8908 228.19 53.1304C227.551 51.8502 228.35 49.6098 229.947 49.6098C231.706 49.6098 232.025 52.0102 232.984 52.9704C235.541 55.6909 235.86 49.1296 236.02 47.8494C236.18 45.609 236.819 43.6886 238.257 41.9283C238.896 41.1281 239.695 40.3279 240.494 39.5277C240.814 39.2077 242.572 37.4473 242.891 37.6074C239.855 37.1273 236.659 38.0875 234.422 40.3279C232.025 42.5684 229.148 46.089 226.752 44.0086C224.355 42.0883 226.272 37.9275 227.551 35.0469C230.108 28.9657 228.19 20.8041 223.236 16.9633C224.514 24.1648 220.999 32.1663 214.927 35.367C213.808 36.0071 212.21 36.1671 211.731 35.0469C211.571 34.5668 211.571 33.9267 211.731 33.2865C212.37 28.9657 213.169 24.8049 214.128 20.484C212.69 23.5246 211.092 26.7252 208.375 28.8057C206.937 29.9259 204.7 30.8861 202.942 30.246C202.303 30.0859 201.824 29.2857 201.344 28.8057C200.545 27.5254 200.545 26.0851 200.705 24.6448C200.864 23.3646 201.344 22.4044 201.824 21.2842C203.102 18.5637 204.7 16.0032 206.618 13.7627C207.576 12.6425 208.535 11.5223 209.654 10.402C210.133 9.92193 210.772 9.28183 211.252 8.80171C211.571 8.64167 211.731 8.32166 212.051 8.16162C212.21 8.00158 212.53 7.6815 212.53 7.6815C207.417 8.00158 202.463 10.402 199.267 14.4028C198.148 15.6831 197.35 17.1234 196.39 18.5637C195.591 19.8439 194.792 21.2842 193.834 22.5645C193.514 23.0445 193.354 23.5246 193.194 24.0047C192.875 24.9649 191.756 25.605 191.117 25.9251C189.519 26.8853 187.761 26.2452 186.962 24.4848C186.643 23.8447 186.803 22.7245 186.803 22.0843C186.962 20.8041 187.442 19.6839 188.081 18.7236C189.679 15.523 191.277 12.1624 193.674 9.44187C190.797 10.242 188.081 11.8423 185.844 13.9227C185.364 14.4028 184.885 14.8829 184.406 15.523C183.767 16.4832 183.447 17.7635 183.127 18.8837C182.488 20.9641 181.21 22.8845 179.772 24.6448C179.133 25.285 178.334 25.7651 177.535 25.7651C176.895 25.7651 176.256 25.7651 175.777 25.285C175.297 24.6448 174.978 23.8447 174.818 23.2046C174.339 21.6042 174.499 20.004 174.658 18.5637C174.978 16.1632 175.777 13.9227 175.617 11.5223C175.297 8.00158 173.06 4.96098 170.983 2.08042C171.782 5.28104 171.942 8.80171 171.462 12.1624C171.303 13.9227 170.823 15.6831 170.344 17.2834C169.544 19.8439 168.267 22.7245 165.87 24.1648C164.591 24.9649 162.993 25.125 161.874 24.3248C160.756 23.5246 160.276 22.2444 160.117 20.9641C159.957 20.004 160.117 19.0437 160.117 18.0835C160.276 16.9633 160.436 15.6831 160.596 14.5629C160.916 13.4427 161.235 12.3224 161.715 11.2022C161.874 10.7221 162.194 10.082 162.513 9.60191C162.673 9.44187 163.153 8.16162 163.312 8.16162C161.395 8.16162 159.477 9.12179 157.879 10.082C156.921 10.7221 155.802 11.5223 155.483 12.8025C155.003 13.9227 155.003 15.043 154.843 16.1632C154.684 18.4036 154.044 20.8041 153.405 22.8845C153.086 24.0047 152.606 25.285 151.967 26.2452C151.328 27.5254 150.369 29.4458 148.611 29.1257C146.215 28.8057 146.055 24.9649 146.374 22.2444C146.534 21.4442 146.534 20.644 146.694 19.6839C146.694 19.0437 146.694 18.4036 146.854 17.6034C147.013 16.8033 147.333 16.0032 147.493 15.203C147.653 14.4028 147.972 13.6027 148.132 12.8025C148.611 11.0421 148.931 9.28183 149.091 7.36142C149.251 4.80095 148.611 2.24044 147.493 0C147.653 3.52069 144.936 6.56129 143.977 10.082C143.498 12.0024 143.498 14.0828 143.178 16.1632C143.019 17.4435 142.539 18.8837 141.58 19.8439C141.261 20.324 140.782 20.8041 140.142 20.644C139.823 20.644 139.662 20.484 139.343 20.324C138.385 19.6839 137.745 18.8837 137.266 17.9235C136.626 16.4832 136.626 15.043 136.467 13.4427C136.307 10.5621 136.147 7.6815 136.626 4.96098C134.869 5.76114 132.951 6.72133 131.833 8.16162C129.276 11.3622 130.235 16.6433 127.039 19.2038C126.719 19.5238 126.24 19.6839 125.76 19.6839C124.961 19.5238 124.802 18.4036 124.802 17.6034C124.802 14.883 124.802 12.0024 124.003 9.44187C123.204 6.88137 121.126 4.32085 118.57 4.00078C119.209 5.92116 119.688 7.84154 120.168 9.76195C120.327 10.7221 120.487 11.6823 120.647 12.6425C120.807 14.4028 120.647 16.0032 120.168 17.7635C119.848 19.2038 119.209 20.484 118.41 21.6042C117.93 22.4044 117.451 23.3646 116.972 24.1648C115.214 26.2452 112.977 22.7245 112.338 21.4442C112.018 20.8041 111.699 20.004 111.379 19.3638C111.059 18.7237 111.059 18.0835 110.74 17.4435C109.781 14.2428 108.662 11.0422 107.065 8.16162C106.266 6.72133 105.626 5.44108 104.668 4.16082C104.188 3.5207 103.868 2.88058 103.389 2.24045C103.069 1.92039 102.59 1.28026 102.27 0.960198C104.507 6.5613 107.863 21.2842 99.3938 23.6847C94.2809 25.125 96.1984 16.0032 94.4403 13.1226C94.1208 15.523 93.8013 17.7635 93.4818 20.164C93.3218 21.4442 92.6828 24.4848 90.9247 24.0047C90.2858 23.8447 89.8062 22.8845 89.4867 22.2444C88.0488 20.004 86.7702 17.9235 86.1312 15.203C85.9712 14.7229 85.4916 9.12179 86.1312 9.12179C84.0536 9.12179 82.6157 11.3622 82.2955 13.6027C81.976 15.8431 82.2955 18.0835 82.2955 20.324C82.1361 22.5645 81.177 25.125 79.2595 25.605C77.6615 26.0851 76.2235 25.125 74.9449 24.1648C73.8264 23.2045 72.868 22.5645 71.4293 21.9243C69.5118 20.9641 67.5943 20.164 65.5172 19.3638C64.7182 19.0437 61.0429 18.7236 60.5635 17.9235C61.3625 19.2038 62.1615 20.644 63.1202 21.9243C63.5996 22.5645 63.9193 23.2046 64.3986 24.0047C64.7182 24.4848 65.0378 25.445 65.6768 25.9251C65.9969 26.2452 66.3164 26.2452 66.7953 26.5653C67.5943 26.8853 68.3933 27.2053 69.1923 27.6855C70.4709 28.4856 71.7495 29.7658 71.5894 31.5262C71.4293 33.6066 69.1923 34.8868 67.1154 35.687C63.5996 36.8073 59.9243 37.1273 56.249 36.6472C58.4862 39.5278 62.1615 40.808 65.8368 40.808C69.5118 40.808 73.0274 39.8478 76.3835 38.7276C77.0225 38.5676 77.6615 38.4075 78.3011 38.7276C78.7806 39.0477 79.1001 39.5278 79.2595 40.1679C80.2186 43.2085 79.1001 46.7292 76.703 48.6496C80.2186 48.3295 83.4147 46.0891 84.8527 42.8884C85.9712 40.488 87.0897 37.1273 89.4867 37.6074C90.1257 40.0078 89.8062 42.5683 88.5276 44.6488C90.6052 44.0086 92.3627 42.4083 93.1617 40.3279C93.6413 39.0477 93.9607 37.6074 95.0792 36.8073C96.5179 35.847 98.5948 36.9673 99.3938 38.2475C99.5539 38.7276 99.5539 39.0477 99.5539 39.5277C99.5539 40.808 99.7133 41.9283 100.033 43.0485C100.672 45.2889 102.11 47.5293 103.868 49.1296C103.389 48.6495 103.229 46.7292 103.229 46.0891C103.069 44.9688 103.229 43.8486 103.389 42.7284C103.549 41.7682 104.028 40.808 104.348 39.6878C104.668 38.5676 105.146 37.6074 105.786 36.6472C106.266 35.8471 107.224 35.0469 108.183 35.367C108.822 35.687 108.982 36.6472 109.302 37.2873C109.621 38.0875 109.781 38.8876 109.941 39.6878C110.26 41.2881 110.101 43.0485 109.621 44.6488C111.379 44.3287 112.338 42.5683 112.817 40.808C113.296 39.2077 113.456 37.2873 114.415 35.8471C115.374 34.4068 117.611 33.6066 118.889 34.8868C119.369 35.527 119.528 36.3271 119.688 37.1273C120.008 40.488 119.209 43.8486 117.291 46.7292C120.487 46.8892 123.683 44.6488 124.802 41.6082C125.441 39.6878 125.76 37.1273 127.678 36.8073C129.276 36.4872 130.554 37.9275 130.874 39.5277C131.193 41.1281 130.874 42.5684 130.874 44.1687C130.874 47.8494 133.271 51.3701 136.626 52.8104C135.827 50.73 135.188 48.4895 134.869 46.2491C134.55 44.1687 134.389 42.0883 135.188 40.1679C135.988 38.2475 137.905 36.8073 139.983 36.9673C141.421 37.1273 142.859 38.4075 143.019 40.0078C143.338 41.4481 142.539 43.2085 141.101 43.8486C142.699 44.8088 144.457 42.8884 145.256 41.2881C146.055 39.6878 147.653 37.6074 149.251 38.4075C150.05 38.7276 150.369 39.5278 150.689 40.488C151.488 43.0485 151.328 45.769 151.967 48.3295C152.766 50.89 155.003 53.4505 157.56 52.8104C156.122 49.6098 155.483 46.089 155.642 42.7284C155.642 41.7682 155.802 40.648 156.441 39.8478C157.08 39.0477 158.359 38.5676 159.158 39.2077C160.117 40.0078 160.276 42.0883 160.436 43.2085C160.596 44.3287 160.436 45.609 160.276 46.7292C162.194 46.8892 164.111 45.9291 165.07 44.1687C165.709 43.0485 165.709 41.6082 166.189 40.488C166.669 39.3678 167.946 38.2475 169.066 38.5676C170.184 38.8876 170.663 40.0079 170.983 41.1281C172.261 45.4489 171.622 50.0898 169.544 54.0906C171.303 53.9306 172.741 52.9704 173.7 51.5301C174.658 50.0898 174.978 48.3295 175.297 46.7292C175.457 45.4489 175.457 44.1687 175.937 42.8884C176.416 41.6082 177.375 40.488 178.653 40.3279C180.73 40.0079 182.328 42.4083 182.169 44.4888C182.009 46.5691 180.571 48.3295 179.292 49.9298C180.73 51.21 183.127 50.0898 184.566 48.8096C185.684 47.8494 186.803 47.5293 187.921 46.4091C188.72 45.4489 189.519 44.3287 190.638 44.0086C192.715 43.2085 194.952 45.2889 195.272 47.3693C195.591 49.6098 194.473 51.6901 193.354 53.4505C195.911 53.2905 198.308 51.2101 198.788 48.6496C199.107 46.7292 198.788 44.1687 200.705 43.3685C202.303 42.7284 203.901 44.1687 204.38 45.769C204.86 47.3693 204.38 49.1296 204.54 50.73C204.221 52.3303 204.7 53.4505 205.339 54.5707Z" fill="#FDD44C"/>
<path d="M270.535 92.8188C272.293 92.9785 274.051 93.2991 275.649 93.1388C276.927 93.1388 278.206 92.6585 279.484 92.3386C282.52 91.5384 285.556 90.7382 288.433 89.4577C290.51 88.6582 292.427 87.5374 294.505 87.3777C291.628 86.2576 288.592 86.0973 285.716 86.2576C282.36 86.4172 279.165 87.2174 275.809 87.5374C275.649 87.5374 275.33 87.5374 275.17 87.6977C275.009 87.858 275.009 87.858 274.85 88.0176C274.531 88.0176 274.21 87.858 274.21 87.5374C274.051 87.0578 274.531 86.5775 274.85 86.2576C275.489 85.4574 276.128 84.8168 276.927 84.0166C275.489 84.8168 273.891 85.4574 272.293 86.0973C271.335 86.4172 269.897 86.5775 269.736 85.617C269.576 84.9771 270.056 84.1769 270.695 83.857C273.252 81.7763 276.128 80.1759 279.324 79.0558C277.247 78.8962 275.17 79.0558 273.092 79.536C271.814 79.856 270.695 80.3362 269.576 80.9761C267.02 82.4169 264.783 84.3372 262.066 85.7773C260.788 86.4172 259.509 87.0578 258.071 87.3777C257.752 87.3777 257.272 87.5374 256.953 87.5374C256.633 87.6977 256.314 87.6977 255.994 87.6977C254.556 87.3777 253.437 86.2576 252.798 84.8168C252.478 84.1769 252.479 83.3767 252.479 82.5765C252.479 82.2566 252.638 81.9366 252.798 81.6167C252.798 81.4564 253.118 80.8165 253.277 80.8165C251.36 80.6562 251.2 83.537 250.721 85.4574C250.082 88.4979 246.566 90.5785 243.53 89.7783C243.051 89.618 242.571 89.4577 242.411 88.9781C241.613 87.858 243.051 86.4172 244.009 85.4574C245.927 83.537 246.566 80.4965 245.767 77.9357C244.808 75.3754 242.411 73.2948 239.694 72.9748C240.174 75.5351 240.015 78.096 239.215 80.4965C238.256 83.0568 235.7 85.617 233.303 84.4969C231.705 83.857 230.906 81.7763 231.225 80.0163C231.545 78.2556 232.664 76.8155 233.942 75.5351C231.545 75.5351 229.947 77.776 228.189 79.3757C226.432 80.9761 223.076 81.7763 222.117 79.536C221.798 78.5756 221.957 77.6157 222.277 76.6552C223.555 72.3349 225.473 68.1736 227.87 64.3331C225.792 64.4931 223.875 66.0936 222.756 67.8537C221.638 69.6144 220.839 71.6944 219.72 73.6147C217.483 77.4554 213.648 80.3362 209.333 81.2961C210.452 77.6157 212.53 74.2553 215.086 71.5347C211.731 73.6147 208.534 75.6954 205.179 77.776C204.699 78.096 204.06 78.4159 203.421 78.5762C201.823 78.7358 200.704 76.9758 200.545 75.3754C200.385 73.775 200.864 72.1746 200.545 70.5742C200.225 68.9738 198.787 67.3734 197.189 67.8537C198.467 69.9343 198.467 72.4946 198.467 74.7349C198.627 76.8155 195.431 77.2958 193.993 76.6552C192.235 75.8557 191.436 73.775 190.957 72.0143C189.998 68.014 190.797 63.693 192.874 60.1722C191.276 60.4923 189.519 60.9724 188.081 61.6125C187.601 61.7726 187.122 62.0927 186.802 62.4127C186.323 63.0528 186.483 63.853 186.483 64.6532C186.802 66.8938 186.802 69.2938 185.843 71.3744C184.885 73.4551 182.488 74.8952 180.251 74.2553C182.008 70.8942 181.05 66.2533 178.013 63.853C178.173 65.6133 178.333 67.694 177.214 69.1341C176.255 70.7345 173.699 71.2141 172.58 69.774C172.101 69.1341 172.101 68.1736 172.101 67.3734C172.261 64.8132 173.219 62.0927 174.977 60.1722C172.58 59.2121 170.183 61.4525 169.065 63.6929C167.946 66.0936 167.626 68.6539 165.869 70.5742C165.23 71.2141 164.431 71.8547 163.472 71.5347C162.353 71.2141 162.034 69.774 162.353 68.8142C162.673 67.694 163.312 66.8938 163.791 65.9333C164.75 63.853 164.431 61.4525 163.152 59.6922C161.874 57.9318 159.637 56.8116 157.4 57.1316C160.755 59.8522 160.436 65.773 156.92 68.1736C156.281 68.6539 155.482 68.9738 154.842 68.4936C154.364 68.1736 154.364 67.5337 154.204 67.0535C153.724 63.2129 151.806 59.052 148.131 58.2519C150.049 60.9724 151.007 64.4931 150.848 67.8537C150.848 69.6144 150.529 71.2141 149.889 72.8145C149.569 73.6147 149.25 74.4149 148.77 75.0555C148.611 75.3754 148.451 75.8557 148.131 76.0153C147.492 76.4956 146.373 76.0153 146.054 75.2151C145.255 73.1351 143.657 71.2141 141.58 70.4146C143.497 72.6549 142.219 76.6552 139.502 77.776C136.786 78.7359 133.43 76.9758 132.312 74.095C131.353 71.3744 132.471 68.014 134.708 66.0936C132.951 66.2533 131.193 67.5337 130.714 69.2938C130.074 71.3744 129.595 73.2948 128.956 75.3754C128.636 76.6552 127.837 77.6157 127.038 78.2556C125.281 79.536 122.884 78.096 122.723 76.0153C122.404 72.3349 120.327 68.9738 117.29 67.0535C117.77 69.6144 118.409 72.1746 117.45 74.7349C116.651 77.1355 113.775 79.0558 111.378 78.096C109.62 77.2958 108.821 75.2151 108.981 73.2948C109.141 71.3744 110.1 69.6144 110.899 67.8537C109.141 68.1736 108.182 69.9343 107.703 71.6944C107.223 73.4551 107.223 75.2151 106.265 76.8155C105.306 78.4159 103.229 79.3757 101.79 78.2556C102.43 74.4149 99.2337 70.5742 95.3986 70.4146C96.1976 73.6147 96.6772 77.9356 93.4811 79.2161C91.2441 80.1759 88.5275 78.7359 87.7285 76.3353C86.1305 72.1746 88.847 68.9738 90.6045 65.4533C88.6869 65.2933 86.1305 66.4136 84.5324 67.5337C83.2539 68.4936 80.3779 71.5347 78.9393 69.1341C80.3779 63.5329 82.9344 58.0919 86.4499 53.451C84.8519 53.2909 83.0944 54.2511 82.1354 55.6914C81.1769 57.1317 80.5373 58.732 79.8983 60.1722C79.5789 60.6524 79.2587 61.2925 78.7798 61.4525C78.1402 61.6125 77.6613 60.9724 77.3412 60.6524C75.5838 58.732 73.8256 56.6516 71.9081 54.7312C72.5477 57.6117 74.1458 60.0122 74.9448 62.7327C75.7438 65.4533 75.4237 68.9738 73.1867 70.5742C71.7487 67.8537 69.6711 65.4533 67.1146 63.853C68.0731 64.4931 68.8721 66.4136 69.1916 67.5337C69.3516 68.014 69.5117 68.3339 69.5117 68.8142C69.6711 69.6144 69.5117 70.2543 69.0322 70.8942C67.5942 72.8145 65.197 72.6549 63.599 70.8942C62.8 69.9343 62.1608 68.8142 61.5216 67.694C60.0835 65.1332 58.3257 62.7328 56.0886 60.8124C57.0473 62.7328 58.0061 64.8132 58.1659 67.0535C58.3257 69.2938 57.2071 71.6944 55.1298 72.3349C53.0524 69.1341 50.1761 66.5732 46.6606 65.1332C47.6193 66.7335 48.5781 68.3339 49.5369 70.094C49.8565 70.7345 50.3359 71.5347 50.1761 72.1746C50.0163 74.2553 47.14 74.4149 45.542 74.4149C44.1038 74.2553 43.3049 73.4551 42.5058 72.3349C40.4285 69.1341 37.3924 65.9333 33.2376 65.4533C36.7532 68.6539 36.913 70.7345 38.5109 73.6147C38.9903 74.5752 39.1502 75.5351 39.31 76.4956C39.31 77.2958 39.31 77.9357 38.9903 78.7358C38.8305 79.2161 38.5109 80.0163 38.0316 80.4965C37.5522 80.8165 36.7532 80.8165 36.2738 80.8165C35.4748 80.8165 34.6758 80.4965 33.8769 80.0163C32.9181 79.3757 31.9593 78.5762 31.0005 78.096C30.5211 77.9357 30.3614 77.776 30.0417 77.4554C29.083 76.4956 27.9644 75.5351 26.8458 74.7349C25.7272 73.9347 24.4489 73.2948 23.1705 72.6549C22.5313 72.3349 21.7323 72.0143 21.0932 71.8547C20.7735 71.6944 20.4539 71.6944 20.1343 71.5347C19.9746 71.5347 19.655 71.3744 19.4952 71.3744C19.655 71.5347 19.9746 71.6944 20.1343 71.8547C21.5725 72.9748 22.8509 74.095 23.9694 75.3754C24.6087 76.0153 25.0881 76.6552 25.5674 77.4554C26.0468 78.096 26.5262 78.7359 26.686 79.536C27.0056 80.9761 26.3664 82.4169 25.2478 83.537C24.1292 84.4969 22.8509 85.1374 21.4127 85.4574C20.7735 85.617 20.1343 85.7773 19.4952 85.7773C18.3766 85.7773 17.258 85.617 16.1395 85.617C14.3817 85.617 12.6239 85.7773 10.7064 85.7773C7.83003 85.7773 4.95369 85.7773 2.07735 85.617C1.43817 85.617 0.639186 85.4574 0 85.4574C5.91247 88.9781 12.9435 90.7382 19.9746 90.2579C21.253 90.0983 22.5313 90.0983 23.6499 90.4182C24.7685 90.8985 25.887 92.0186 25.5674 93.299C25.4076 94.0992 24.6087 94.7391 23.9694 95.2194C22.6911 96.0196 21.253 96.6595 19.8148 96.9794C22.5313 97.2994 25.2478 96.8191 27.6448 95.5393C28.6036 95.0591 29.5623 94.4192 30.6809 94.4192C31.7995 94.4192 32.9181 95.2194 32.7583 96.3395C32.5985 97.1397 31.7995 97.6193 31.0005 98.0996C29.7221 98.7401 28.4438 99.38 27.1654 99.8603C26.2066 100.18 24.9283 101.14 24.1292 101.781C23.3303 102.421 22.5313 103.06 21.7323 103.541C21.0932 103.861 20.6137 104.341 19.9746 104.661C19.655 104.821 18.6962 105.621 18.2168 105.621C23.3303 106.422 28.6036 104.981 32.7583 101.94C35.1552 100.18 37.0728 98.0996 39.31 96.3395C40.2687 95.5393 41.2275 94.8988 42.1862 94.2589C42.9853 93.619 44.4234 93.4587 45.3822 93.9389C46.6606 94.5788 47.7791 96.3395 47.2997 97.7796C47.14 98.4195 46.6606 98.8998 46.341 99.38C45.8616 100.18 45.3822 100.98 45.0626 101.94C43.3049 105.301 41.0677 108.182 38.1913 110.582C44.1038 109.782 49.6967 107.222 54.3308 103.221C57.2071 100.82 59.9237 97.6193 63.4392 95.699C64.398 95.2194 65.5165 94.7391 66.6351 94.7391C68.0731 94.7391 69.3516 95.5393 69.9906 96.9794C70.4701 98.0996 69.8312 99.38 69.3516 100.5C68.5526 103.221 66.7952 105.941 64.0784 107.381C68.2331 108.022 71.7487 104.181 74.9448 100.98C75.5838 100.34 76.2227 99.5397 77.0217 98.8998C77.6613 98.4195 78.6198 97.2994 79.4188 97.1397C79.5789 97.7796 80.8568 97.6193 81.3363 97.7796C82.4548 98.0996 82.7743 99.38 82.7743 100.5C82.7743 102.901 82.4548 105.461 81.6558 107.862C83.4139 107.222 84.2129 105.301 85.012 103.701C85.811 102.101 87.249 100.34 89.1665 100.5C90.7645 100.66 91.723 102.26 92.3626 103.701C93.0015 105.141 93.4811 106.741 94.9191 107.701C94.9191 104.821 94.9191 102.101 94.9191 99.2197C94.9191 98.8998 94.9191 98.4195 95.3986 98.2599C95.7181 98.0996 96.0376 98.2599 96.1976 98.4195C101.471 101.94 105.785 107.061 108.502 112.983C110.1 111.863 110.259 109.622 109.78 107.862C109.301 106.102 108.342 104.341 108.182 102.581C108.022 100.66 109.141 98.5798 110.899 98.4195C112.017 98.4195 113.296 98.8998 114.414 99.2197C114.734 99.38 115.373 99.7 115.533 99.8603C117.45 101.461 118.888 103.381 120.007 105.621C120.167 102.581 120.167 99.5397 120.327 96.4992C122.564 94.5788 125.6 95.379 127.997 96.9794C130.234 98.7401 131.992 101.14 134.069 103.06C138.064 106.581 143.657 108.022 148.611 106.581C146.214 105.461 144.616 103.541 143.497 101.3C143.018 100.34 142.538 99.2197 143.018 98.2599C143.497 97.2994 144.616 96.8191 145.574 96.8191C148.611 96.6595 151.168 96.9794 154.364 97.7796C156.441 98.2599 158.678 99.2197 159.797 101.3C160.915 103.381 159.797 106.902 157.719 106.741C159.637 109.302 163.472 107.381 165.389 104.821C167.307 102.26 168.905 98.8998 171.941 98.2599C178.813 96.8198 181.688 111.222 188.56 110.582C187.921 108.982 187.282 107.381 186.962 105.781C186.802 104.981 186.642 104.181 186.483 103.381C186.323 102.901 186.003 102.581 186.163 102.101C186.483 100.02 189.838 100.02 191.117 100.82C191.756 101.3 192.235 101.94 192.874 102.421C194.313 103.701 196.23 104.661 197.988 105.621C200.704 107.222 203.581 108.501 206.617 109.782C205.818 109.462 204.859 107.061 204.539 106.261C203.9 104.821 203.261 103.381 202.782 101.94C202.462 100.98 201.184 98.2599 202.622 98.2599C203.74 98.0996 205.818 100.34 206.776 100.98C212.849 104.981 218.761 103.381 226.751 106.261C227.39 105.941 227.71 105.781 228.349 105.461C228.829 102.74 224.834 101.3 224.354 98.4195C224.035 96.0196 226.751 94.0986 228.829 94.7391C230.586 95.2194 232.184 96.3395 232.823 98.0996C233.622 100.18 234.741 101.14 238.256 103.221C239.215 103.861 240.334 104.341 241.452 104.661C244.009 105.461 246.726 105.621 249.442 105.781C251.2 105.941 252.958 105.941 254.716 106.102C252.798 105.621 250.881 104.501 249.602 102.901C248.963 102.26 248.484 101.461 248.324 100.66C248.164 99.7 248.803 97.4597 250.082 96.9794C251.2 96.4992 252.798 96.6595 254.076 96.9794C255.674 97.4597 257.113 98.0996 258.551 98.7401C259.35 99.0601 260.308 99.38 261.267 99.7C261.906 99.8603 262.386 100.34 263.025 100.5C264.942 101.14 266.86 101.461 268.777 102.101C270.056 102.421 271.494 102.74 272.772 102.901C275.17 103.06 277.567 102.26 279.644 100.82C278.046 101.461 276.288 100.66 274.85 99.8603C273.252 99.0601 271.654 98.0996 270.056 97.2994C269.257 96.8191 266.54 96.0196 266.54 94.7391C267.339 92.3386 269.417 92.8188 270.535 92.8188Z" fill="#F39D00"/>
<path d="M275.329 99.0592C274.69 98.7393 274.211 98.259 273.572 98.0987C272.773 97.7788 271.814 97.9391 271.175 97.9391C270.216 98.0987 269.257 98.0987 268.299 97.9391C266.541 97.7788 264.783 97.2985 263.185 96.499C262.866 96.3387 262.386 96.0188 262.226 95.6988C261.907 95.2186 261.907 94.4184 262.067 93.7785C262.226 92.818 262.866 91.8575 263.665 91.0579C262.706 91.5375 261.747 92.0178 260.628 92.3377C259.67 92.6577 258.71 92.818 257.752 93.1379C257.112 93.2982 256.634 93.7785 255.994 93.7785C255.674 93.7785 255.195 93.6182 254.875 93.4579C253.757 92.9783 252.798 90.5777 254.556 90.0974C251.2 90.8976 248.803 94.8986 245.448 94.2581C243.21 93.9381 241.772 91.6978 240.814 89.6172C241.293 91.6978 239.695 93.9381 237.618 94.0984C236.339 94.258 235.061 93.4579 234.262 92.3377C233.942 91.8575 233.623 91.0579 233.623 90.4174C233.783 89.2972 234.582 86.737 236.02 86.737C234.262 86.8966 232.664 87.5372 231.226 88.497C229.627 89.6172 228.189 92.3377 226.112 92.1781C223.236 91.8575 223.396 86.5767 220.519 86.2567C222.117 88.1771 221.478 91.3779 219.56 93.1379C217.643 94.8986 214.926 95.3782 212.37 95.2186C211.571 95.2186 210.772 95.0582 210.133 94.7383C208.854 94.0984 208.375 92.3377 208.535 90.8976C208.694 89.4575 209.653 88.1771 210.452 86.8966C208.535 88.817 206.617 90.7373 204.7 92.6577C204.22 93.1379 203.581 93.7785 202.782 94.0984C201.184 94.578 199.586 93.4579 198.947 92.0178C198.307 90.5777 198.468 88.817 198.468 87.2166C198.307 89.1369 198.307 91.2176 197.349 92.818C196.55 94.578 194.792 96.0187 192.874 95.8584C191.276 95.6988 189.838 94.4184 189.039 92.9783C188.24 91.5375 188.081 89.7775 187.761 88.1771C187.761 89.6172 187.282 90.8976 186.483 92.1781C186.163 92.818 185.684 93.2982 185.204 93.7785C184.565 94.4184 184.086 94.4184 183.287 94.578C181.849 94.7383 180.251 94.8986 178.972 94.0984C177.854 93.2982 177.534 92.0178 177.055 90.7373C176.416 88.6573 175.776 86.4164 175.137 84.3364C175.776 87.0569 174.658 90.2577 172.581 92.0178C171.462 92.9783 170.023 93.6182 168.586 93.7785C167.467 93.9381 165.869 94.0984 165.389 92.6577C165.23 92.0178 165.23 91.3779 165.389 90.7373C165.549 89.6172 165.709 88.1771 166.349 87.2166C163.312 92.1781 156.121 93.7778 151.327 90.7373C147.972 88.6573 146.054 84.9763 145.096 81.2959C145.735 84.6563 145.415 88.3374 143.977 91.5375C143.018 93.6182 140.781 95.8584 138.704 94.7383C139.663 91.2176 139.183 87.3769 137.266 84.3364C137.585 86.8966 136.466 89.6172 134.389 91.2176C132.631 92.6577 129.915 93.1379 127.997 92.0178C126.08 90.7373 125.6 87.5372 127.358 86.0964C125.281 87.8571 123.203 89.6172 121.286 91.2176C120.487 91.8575 119.688 92.498 118.729 92.818C115.853 93.9381 112.976 91.6978 110.58 89.6172C110.899 90.4174 110.899 91.3779 110.739 92.3377C110.42 94.2581 108.183 95.8584 106.105 95.0582C104.507 94.4184 104.028 92.3377 103.229 90.7373C102.27 88.497 100.832 86.737 98.9144 85.2962C100.352 86.8966 99.8728 89.6172 98.2748 90.8976C96.6767 92.1781 94.2803 92.3377 92.2027 91.6978C88.8472 90.7373 85.9706 87.8571 85.0122 84.496C83.7336 86.737 82.4551 88.9773 80.3781 90.7373C78.3005 92.3377 75.584 93.1379 73.1869 92.3377C72.7074 92.1781 72.2285 91.8575 72.0684 91.5375C71.9083 91.2176 71.9083 90.7373 71.9083 90.2577C72.2285 87.2166 72.7074 84.3364 73.0275 81.2959C69.5119 86.8966 64.0786 91.2176 57.8465 93.4579C57.3671 93.6182 56.8878 93.7785 56.4083 93.6182C55.7691 93.4579 55.4496 92.818 55.13 92.1781C54.1712 90.2577 53.0526 88.3374 52.0938 86.4164C53.0526 88.0168 50.9753 90.0974 49.0577 89.9371C47.1401 89.7775 45.5422 88.3374 43.9442 87.3769C41.5472 85.9368 38.5112 85.1366 35.6348 85.1366C36.1142 86.2567 37.2328 86.737 38.0317 87.5372C38.8307 88.3374 39.6297 89.6172 38.9905 90.5777C38.5112 91.3779 37.3926 91.3779 36.5936 91.3779C33.0781 91.3779 29.5626 90.8976 26.2068 90.0974C27.9646 91.0579 29.5626 92.1781 31.1605 93.2982C31.7997 93.7785 32.5986 94.258 33.2379 94.7383C34.5162 95.6988 32.9183 96.9786 31.9595 97.2985C30.6811 97.9391 29.4027 98.4193 28.1244 99.0592C27.1656 99.3792 25.8872 100.34 25.0882 100.98C24.2893 101.619 23.4902 102.26 22.6913 102.74C22.0521 103.06 21.5727 103.54 20.9335 103.86C20.614 104.02 19.6551 104.82 19.1758 104.82C24.2893 105.62 29.5626 104.18 33.7172 101.14C36.1142 99.3792 38.0317 97.2985 40.2689 95.5385C41.2277 94.7383 42.1865 94.0984 43.1452 93.4579C43.9442 92.818 45.3824 92.6577 46.3412 93.1379C47.6196 93.7778 48.7381 95.5385 48.2587 96.9786C48.0989 97.6191 47.6196 98.0987 47.2999 98.579C46.8205 99.3792 46.3412 100.179 46.0216 101.14C44.2638 104.5 42.0267 107.381 39.1503 109.781C45.0628 108.981 50.6556 106.421 55.2898 102.42C58.1661 100.019 60.8827 96.8189 64.3982 94.8986C65.3569 94.4184 66.4753 93.9381 67.5944 93.9381C69.0324 93.9381 70.311 94.7383 70.9499 96.1784C71.4295 97.2985 70.7898 98.579 70.311 99.6991C69.5119 102.42 67.7538 105.14 65.0373 106.581C69.1918 107.221 72.7074 103.38 75.9035 100.179C76.5424 99.5395 77.182 98.7393 77.981 98.0987C78.62 97.6191 81.0171 96.3387 82.2956 97.1389C83.2541 97.6191 83.7336 98.7393 83.7336 99.8594C83.7336 102.26 83.4141 104.82 82.6151 107.221C84.3726 106.581 85.1716 104.66 85.9706 103.06C86.7696 101.46 88.2076 99.6991 90.1251 99.8594C91.7232 100.019 92.6823 101.619 93.3212 103.06C93.9602 104.5 94.4397 106.101 95.8784 107.061C95.8784 104.18 95.8784 101.46 95.8784 98.579C95.8784 98.259 95.8784 97.7788 96.3573 97.6191C96.6767 97.4588 96.9969 97.6191 97.1563 97.7788C102.43 101.3 106.745 106.421 109.46 112.342C111.058 111.222 111.219 108.981 110.739 107.221C110.259 105.46 109.301 103.7 109.141 101.939C108.982 100.019 110.1 97.9391 111.858 97.7788C112.976 97.7788 114.255 98.259 115.373 98.579C115.693 98.7393 116.332 99.0592 116.492 99.2189C118.409 100.819 119.848 102.74 120.966 104.981C121.126 101.939 121.126 98.8989 121.286 95.8584C123.523 93.9381 126.559 94.7383 128.956 96.3387C131.193 98.0987 132.951 100.499 135.029 102.42C139.023 105.94 144.616 107.381 149.57 105.94C147.173 104.82 145.575 102.9 144.456 100.66C143.977 99.6991 143.498 98.579 143.977 97.6191C144.456 96.6586 145.575 96.1784 146.534 96.1784C149.57 96.0187 152.126 96.3387 155.322 97.1389C157.4 97.6191 159.637 98.579 160.755 100.66C161.874 102.74 160.755 106.26 158.678 106.101C160.596 108.661 164.431 106.741 166.349 104.18C168.266 101.619 169.864 98.259 172.9 97.6191C179.771 96.1784 182.648 110.581 189.519 109.941C188.88 108.341 188.24 106.741 187.921 105.14C187.761 104.34 187.601 103.54 187.441 102.74C187.282 102.26 186.962 101.939 187.122 101.46C187.441 99.3792 190.797 99.3792 192.075 100.179C192.715 100.66 193.194 101.3 193.833 101.78C195.271 103.06 197.189 104.02 198.947 104.981C201.664 106.581 204.54 107.861 207.576 109.141C206.777 108.821 205.818 106.421 205.499 105.62C204.859 104.18 204.22 102.74 203.741 101.3C203.421 100.34 202.143 97.6191 203.581 97.6191C204.7 97.4588 206.777 99.6991 207.736 100.34C213.808 104.34 219.72 102.74 227.71 105.62C228.35 105.301 228.669 105.14 229.308 104.82C229.788 102.1 225.792 100.66 225.314 97.7788C224.993 95.3782 227.71 93.4579 229.788 94.0984C231.545 94.578 233.143 95.6988 233.783 97.4588C234.582 99.5395 235.7 100.499 239.216 102.58C240.174 103.22 241.293 103.7 242.411 104.02C244.968 104.82 247.685 104.981 250.401 105.14C252.159 105.301 253.917 105.301 255.674 105.46C253.757 104.981 251.839 103.86 250.561 102.26C249.922 101.619 249.442 100.819 249.283 100.019C249.123 99.0592 249.762 96.8189 251.04 96.3387C252.159 95.8584 253.757 96.0187 255.035 96.3387C256.634 96.8189 258.071 97.4588 259.509 98.0987C260.309 98.4193 261.268 98.7393 262.226 99.0592C262.866 99.2195 263.345 99.6991 263.984 99.8594C265.902 100.499 267.819 100.819 269.737 101.46C271.015 101.78 272.453 102.1 273.732 102.26C276.128 102.42 278.525 101.619 280.603 100.179C278.525 100.66 276.768 99.8594 275.329 99.0592Z" fill="#DF7800"/>
<path d="M101.949 54.2505C105.784 54.5705 109.46 55.8507 112.815 57.7712C112.496 55.8507 112.016 54.0904 111.377 52.3301C112.496 54.5705 113.614 56.811 114.733 59.0514C114.893 59.2114 114.893 59.3714 115.052 59.5315C115.212 59.6915 115.373 59.5315 115.692 59.5315C118.409 58.8914 120.965 58.2512 123.682 57.7712C121.764 58.8914 119.847 60.0116 117.929 61.1318C116.331 62.092 114.733 63.0521 113.455 64.3325C113.295 62.7321 112.656 61.2918 111.697 60.1716C111.058 62.092 109.46 63.3722 107.702 64.0124C105.944 64.6525 103.867 64.8125 101.949 64.8125C103.867 63.3722 105.944 61.932 107.862 60.4917C108.181 60.3317 108.98 60.0116 108.82 59.3715C108.661 58.8914 108.022 58.7313 107.702 58.5713C106.743 57.9312 105.944 57.4511 105.145 56.8109C103.707 56.0108 102.748 55.2107 101.949 54.2505Z" fill="#F39D00"/>
<path d="M207.576 46.2485C208.534 44.6481 209.653 43.2078 211.091 42.0876C211.091 43.3679 210.772 44.4881 210.292 45.6083C210.772 44.3281 212.05 43.5279 213.328 43.3679C214.607 43.0479 215.885 43.3679 217.163 43.5279C215.565 41.4475 213.168 40.0073 210.612 39.5271C210.292 39.5271 210.132 39.3671 209.813 39.2071C209.653 39.047 209.493 38.887 209.333 38.727C208.534 37.2867 207.735 35.6864 206.937 34.2461C206.937 35.3664 206.937 36.6466 206.777 37.7668C206.777 38.0868 206.777 38.4069 206.617 38.727C206.457 38.887 206.297 39.047 206.138 39.2071C205.018 39.8472 203.741 40.4873 202.622 41.1275C203.9 41.1275 205.818 40.4874 206.777 41.4475C207.256 41.9276 207.256 42.7278 207.256 43.3679C207.416 43.3679 207.576 46.2485 207.576 46.2485Z" fill="#FDC232"/>
<path d="M120.486 28.8054C124.641 28.8054 128.636 28.9655 132.791 28.9655C131.192 30.2457 129.595 31.3659 127.837 32.6462C131.513 31.526 135.188 30.5658 139.023 30.2457C137.105 29.7656 135.188 29.2855 133.11 28.9655C135.348 28.1653 137.585 27.2051 139.662 26.0849C136.946 26.2449 134.069 26.565 131.353 27.0451C132.951 25.9249 134.708 24.1645 135.188 22.2441C133.43 23.0443 132.312 24.3245 130.714 25.1247C128.636 26.2449 126.399 27.2051 124.162 27.8453C123.203 28.1653 121.765 28.8054 120.486 28.8054Z" fill="#FDC232"/>
<path d="M163.312 31.2061C166.029 31.5262 168.746 31.5262 171.462 31.5262C169.545 32.8065 167.467 33.9267 165.23 34.8868C170.344 32.9665 175.617 31.3662 180.89 29.7658C178.333 29.9259 175.617 30.246 173.06 30.8861C174.019 30.246 174.818 29.4458 175.777 28.8057C173.859 28.8057 171.942 29.2858 170.024 29.6058C168.905 29.7658 167.627 30.0859 166.509 30.246C165.869 30.406 165.389 30.566 164.75 30.566C164.59 30.8861 163.792 31.2061 163.312 31.2061Z" fill="#FDC232"/>
<path d="M85.0117 28.4854C85.0117 28.6453 84.6922 28.4853 84.6922 28.3253C84.8523 28.1653 85.0117 28.1653 85.1717 28.1653C89.3263 29.1255 92.8418 31.846 96.0379 34.5665C94.9194 32.6461 93.6409 30.7258 92.2029 29.1255C95.2389 29.7656 98.2749 30.5658 101.311 31.5259C99.873 30.7258 98.435 29.7656 96.9963 28.9654C96.0379 28.4854 95.2389 27.8452 94.2805 27.5251C92.0428 26.565 89.4863 26.2449 87.0893 25.9248C88.0483 26.725 89.0068 27.5251 89.9659 28.3253C87.0893 28.4853 84.2126 28.1653 81.4961 27.5251C83.4143 29.6056 86.6097 29.4455 89.3263 30.0856C89.4863 30.0856 89.6457 30.2457 89.8058 30.2457C89.9659 30.4057 89.8058 30.5658 89.6457 30.5658L85.0117 28.4854Z" fill="#FDC232"/>
<path d="M197.348 31.2066C197.029 31.2066 196.39 32.0068 196.071 32.1668C195.591 32.4869 195.111 32.8069 194.632 33.127C193.674 33.7671 192.714 34.2472 191.915 34.8873C190.477 35.6875 189.199 36.6477 187.761 37.2878C187.122 37.6079 186.323 37.9279 185.524 38.088C185.204 38.248 183.606 38.248 183.446 38.5681C186.802 34.0872 191.756 30.8865 197.348 31.2066Z" fill="#FDC232"/>
<path d="M102.908 34.2466C107.063 32.1662 110.738 29.4457 113.774 26.085C113.614 26.245 112.656 26.245 112.336 26.405C111.857 26.5651 111.377 26.5651 110.738 26.7251C109.939 26.8852 109.3 27.0451 108.821 27.5253C107.383 28.8055 106.104 30.2458 104.826 31.6861C104.187 32.3262 103.547 33.2864 102.908 34.2466Z" fill="#FDC232"/>
<path d="M159.797 35.367C158.838 35.207 158.04 34.7268 157.081 34.2467C156.122 33.7667 155.323 33.1265 154.364 32.6465C152.926 32.0063 151.328 31.5263 149.73 31.3662C149.25 31.3662 148.771 31.3662 149.091 31.8463C149.57 32.4864 150.529 32.8064 151.168 33.1265C152.127 33.6066 153.086 34.0867 154.204 34.4068C156.282 35.0469 158.04 35.207 159.797 35.367Z" fill="#FDC232"/>
<path d="M44.1035 49.61C47.7788 49.9301 51.2943 50.5703 54.8099 51.6905C53.2119 50.8903 51.7737 49.61 50.6552 48.0098C54.1707 49.29 57.846 50.5703 61.5213 51.5304C58.1656 52.6506 54.4903 53.1308 50.815 52.8107C52.2531 53.9309 53.8511 54.8911 55.2892 56.0113C55.1294 55.8513 54.1707 56.1714 54.0109 56.1714C53.5315 56.1714 53.0521 56.1713 52.5727 56.0113C51.9335 55.8513 51.1345 55.6913 50.6552 55.2111C49.217 54.0909 47.7788 52.9707 46.3406 51.6905C45.7015 51.0503 44.9025 50.2502 44.1035 49.61Z" fill="#F39D00"/>
<path d="M146.374 53.9307C145.256 55.691 144.297 57.4513 142.539 58.5715C141.58 59.2117 140.781 60.1719 139.982 60.972C139.503 61.4521 139.024 61.9322 138.544 62.2523C138.384 62.4123 137.585 63.3725 137.426 63.3725C138.225 61.6122 139.183 59.8518 140.302 58.4115C140.941 57.6114 141.58 56.9712 142.219 56.3311C142.539 56.011 142.699 56.011 143.018 55.691C144.137 55.371 145.256 54.5708 146.374 53.9307Z" fill="#F39D00"/>
<path d="M199.106 58.8909C200.704 59.3711 201.663 60.8113 202.462 62.2516C203.261 63.6919 203.9 65.2922 205.178 66.0921C204.699 64.332 204.22 62.5717 203.421 60.9714C205.499 63.6919 207.895 66.2524 210.611 68.333C208.854 63.5319 205.498 59.5311 201.343 56.8105C201.343 57.7707 201.343 58.891 201.503 59.8512C199.905 58.731 197.988 57.9308 196.07 57.7707C196.23 58.2508 196.55 58.5709 197.029 58.7309C198.627 59.8511 200.385 60.8113 201.983 61.9316L199.106 58.8909Z" fill="#F39D00"/>
<path d="M231.705 66.7327C234.262 65.9325 236.819 65.1324 239.375 64.3322C237.937 65.6124 236.499 67.0526 235.221 68.3331C239.855 65.4524 244.489 62.7319 249.602 60.9715C246.886 61.7717 244.169 62.7319 241.453 63.532C242.252 62.2518 242.891 60.8115 243.69 59.5312C241.613 60.8115 239.695 62.0918 237.618 63.372C237.777 62.8919 238.576 61.6116 238.097 61.1316C236.979 61.9317 236.02 63.0519 234.901 64.0122C234.422 64.4922 233.783 64.9723 233.303 65.2924C232.984 65.7722 232.344 66.5724 231.705 66.7327Z" fill="#F39D00"/>
<path d="M257.113 78.7355C256.314 77.1352 255.036 76.015 253.757 74.7346C252.319 73.2945 250.721 71.6941 249.123 70.4143C248.803 70.254 246.726 68.8139 246.566 69.7737C246.406 70.4143 248.004 71.6941 248.324 72.014C249.282 72.9745 250.402 73.9344 251.52 74.7346C253.118 76.335 255.036 77.6154 257.113 78.7355Z" fill="#F39D00"/>
<path d="M56.4075 84.6568C60.4024 85.9366 64.5571 87.0568 68.5523 88.0173C65.5159 86.5772 62.4798 84.8165 59.923 82.5762C62.4798 82.8961 65.0366 83.2161 67.7533 83.2161C66.4747 83.2161 65.3561 82.4159 64.3973 81.776C61.6808 80.016 58.6446 78.8952 55.4487 78.2553C54.6498 78.0956 53.5312 78.0956 53.2116 78.8952C54.8095 80.3359 56.5673 81.6157 58.1653 83.0564C55.9282 83.0564 53.8508 82.8961 51.7734 82.5762C51.9332 82.7365 52.093 82.7365 52.2528 82.7365C52.093 82.5762 51.9332 82.5762 51.7734 82.4159C53.0518 83.536 54.8095 84.1766 56.4075 84.6568Z" fill="#FDC232"/>
<path d="M79.8993 81.6154C78.6207 78.7352 77.3421 76.0146 76.2236 73.1338C77.3421 74.4142 78.3012 75.6947 79.4197 76.9745C79.8993 77.4547 80.3788 78.0953 81.0178 78.0953C81.3372 78.0953 81.6567 77.935 81.9769 77.935C82.6158 77.615 83.0954 77.2951 83.4148 76.6545C83.7343 76.0146 83.5742 75.2144 83.0954 74.8945C84.2139 77.2951 85.6518 79.695 87.2499 81.7757C85.0129 80.9755 82.7752 80.1753 80.5382 79.695C81.4973 80.8158 82.4557 82.2559 83.0954 83.696C81.8168 83.2158 80.5382 82.4156 79.4197 81.6154H79.8993Z" fill="#FDC232"/>
<path d="M157.081 84.0171C158.839 82.8969 160.596 81.7768 162.514 80.9766C162.194 81.1362 161.555 80.9766 161.236 80.9766C160.756 80.9766 160.277 81.1362 159.957 81.1362C159.158 81.2965 158.199 81.6165 157.4 81.9364C156.601 82.2564 155.803 82.7366 155.004 83.2169C154.524 83.5368 153.565 84.0171 153.245 84.6569C152.766 85.4571 154.044 85.6175 154.524 85.6175C155.803 85.7771 157.08 85.6175 158.359 85.6175C160.756 85.6175 162.993 85.6175 165.39 85.7771C162.674 84.4973 159.797 84.0171 157.081 84.0171Z" fill="#FDC232"/>
<path d="M192.87 88.9891C191.324 89.1297 189.776 89.4115 188.37 89.2709C187.245 89.2709 186.119 88.8485 184.994 88.5667C182.321 87.8624 179.649 87.1581 177.117 86.0307C175.289 85.3265 173.601 84.341 171.772 84.1997C174.304 83.2136 176.977 83.073 179.508 83.2136C182.744 83.4955 185.838 84.1997 189.073 84.4816C190.62 84.6222 192.308 84.7634 193.855 84.6222C194.98 84.4816 196.246 84.4816 197.231 83.9179C197.512 83.7773 197.793 83.4955 198.075 83.2136C198.637 82.2275 198.075 80.9602 197.512 80.1147C197.371 79.8328 197.09 79.5516 196.95 79.2698C196.809 78.9879 196.809 78.7061 196.668 78.5655C196.246 78.0018 195.825 77.4388 195.402 76.8751C193.715 74.7623 191.604 72.9306 190.62 70.3953C190.198 69.1274 189.917 67.7188 190.057 66.4515C190.339 67.1558 190.761 67.8601 191.183 68.5643C191.886 69.6911 192.87 70.5359 193.996 71.2402C194.558 71.6633 195.121 71.9451 195.683 72.0857C195.965 72.2263 196.246 72.3676 196.668 72.3676C197.09 72.5082 197.371 72.5082 197.793 72.5082C199.059 72.6494 200.747 72.3676 200.747 71.0996C200.747 70.6772 200.466 70.2547 200.044 69.9729C198.075 68.0007 195.543 66.4515 194.137 64.0566C192.73 61.521 192.73 58.4221 192.87 55.464C193.574 61.0985 197.793 66.0284 203.138 67.7188C204.404 68.1413 206.092 68.2825 207.076 67.437C207.78 66.7327 207.78 65.4652 207.217 64.7608C205.67 62.9297 203.138 61.8027 201.872 59.549C200.888 57.8587 201.169 55.464 202.435 54.0553C202.295 55.464 202.576 56.8726 203.42 57.9995C204.263 59.1263 205.67 59.6898 207.076 59.4081C208.343 59.1264 209.468 57.5769 209.046 56.3092C208.905 55.6048 208.484 55.0414 207.921 54.6188C205.67 52.0833 202.998 49.9703 200.044 48.28C202.717 47.7166 205.67 48.5617 207.78 50.5337C208.624 51.2381 209.327 52.2242 210.171 52.9284C211.015 53.6328 212.281 54.0553 213.266 53.7736C213.547 53.6328 213.828 53.4919 213.969 53.351C214.11 53.0693 214.11 52.7876 213.969 52.5059C213.688 50.9564 212.984 49.4069 212.843 47.7165C212.703 46.0262 213.406 44.195 214.953 43.6316C214.672 45.0402 214.531 46.5897 214.813 48.1391C215.094 49.9703 215.938 51.6607 217.064 53.0693C217.626 53.6328 217.907 54.1962 218.751 54.1962C220.158 54.1962 221.142 53.7736 221.986 52.5059C222.971 51.0972 223.393 48.9843 222.971 47.2939C222.127 44.195 219.595 42.0821 217.064 40.2509C219.735 39.8283 222.549 40.6735 224.518 42.6455C226.628 44.6176 229.16 47.7166 231.269 45.8854C233.379 44.195 231.691 40.5326 230.566 37.9971C230.285 37.2927 230.003 36.5884 229.863 35.8842C232.676 38.4196 235.911 40.3917 239.146 41.5186C247.023 44.195 255.322 41.3777 260.385 35.1798C264.323 37.2927 269.387 37.5745 273.185 35.8842C276.139 34.6164 278.248 32.6443 279.936 30.1087C280.921 28.5593 281.624 26.4464 281.765 24.3335C283.312 27.1507 285 29.6862 287.11 31.7991C289.36 30.9539 289.923 27.855 290.204 25.1786C290.485 21.9388 290.767 18.699 291.048 15.4591C292.173 20.671 294.002 25.6012 296.534 30.1087C297.237 31.5174 298.503 32.9261 299.909 32.7851C302.019 32.5034 302.159 29.1228 301.879 26.7281C301.034 20.5302 300.753 14.1914 301.175 7.85254C302.019 16.3043 303.988 24.4743 307.223 32.2217C308.63 29.6862 309.896 27.0098 310.88 24.1925C311.724 21.5162 312.006 18.5581 313.412 16.1634C313.272 16.4451 314.819 20.2484 315.381 21.0936C315.663 21.6571 315.944 22.0796 316.225 22.5022C317.069 23.6291 317.491 24.756 317.913 26.1646C318.194 27.1507 318.194 27.2916 319.039 27.0098C319.46 26.8689 319.882 26.3055 320.164 25.8829C320.867 24.756 321.148 23.4883 321.43 22.2205C322.133 18.5581 323.54 15.0365 325.508 12.0784C324.946 15.7409 324.383 19.4032 325.368 22.9248C325.649 24.1926 326.212 25.3194 326.915 26.3055C327.337 27.0098 327.759 27.855 328.181 28.5593C329.728 30.3905 331.697 27.2916 332.26 26.1646C332.541 25.6012 332.823 24.8969 333.104 24.3335C333.385 23.77 333.385 23.2065 333.666 22.6431C334.511 19.8259 335.495 17.0086 336.902 14.4731C337.605 13.2053 338.167 12.0784 339.012 10.9516C339.433 10.3881 339.715 9.82465 340.137 9.26116C340.418 8.97945 340.84 8.41603 341.121 8.13432C339.152 13.0645 336.199 26.0238 343.653 28.1367C348.154 29.4045 346.466 21.3753 348.013 18.8398C348.295 20.9527 348.576 22.9248 348.857 25.0377C348.998 26.1646 349.56 28.841 351.108 28.4184C351.671 28.2776 352.092 27.4324 352.374 26.8689C353.639 24.8969 354.765 23.0657 355.327 20.671C355.468 20.2484 355.89 15.3182 355.327 15.3182C357.156 15.3182 358.422 17.2903 358.703 19.2624C358.985 21.2344 358.703 23.2065 358.703 25.1786C358.844 27.1506 359.688 29.4045 361.376 29.827C362.782 30.2497 364.048 29.4045 365.173 28.5593C366.158 27.7141 367.002 27.1506 368.268 26.5872C369.956 25.742 371.644 25.0377 373.472 24.3335C374.175 24.0517 377.411 23.77 377.832 23.0657C376.145 25.8829 374.316 28.7002 372.628 31.3766C371.925 32.6443 370.799 33.912 370.519 35.4615C370.237 37.2927 371.784 37.1519 373.05 37.2927C374.738 37.4336 376.145 36.8701 377.411 35.7432C380.224 33.0668 383.318 29.6862 385.428 26.3055C384.725 28.841 384.021 31.3765 383.318 34.0529C383.037 35.039 382.474 36.3067 382.615 37.4336C382.615 37.8562 382.755 38.1379 382.755 38.5605C382.755 39.124 382.615 39.5465 382.755 40.11C383.177 41.2369 384.725 41.096 385.85 40.5326C386.975 39.9691 388.1 39.4057 388.944 38.4196C389.225 38.1379 389.507 37.8562 389.788 37.5745C390.632 37.011 391.757 36.7293 392.883 36.4476C393.726 36.1659 394.711 35.8842 395.555 35.6024C395.836 35.4615 396.962 35.4615 397.243 35.1798C396.399 36.3067 395.555 37.4336 394.851 38.5605C394.148 39.5465 393.445 40.6735 393.163 41.9412C392.883 42.7864 392.742 43.7724 392.601 44.7585C392.46 45.7445 392.742 47.0122 393.726 47.4348C394.148 47.7166 394.711 47.7165 395.133 47.7165C396.539 47.7165 397.946 47.4349 399.212 46.8714C399.775 46.5897 400.478 46.1671 401.04 46.0262C403.291 45.4627 405.542 44.7584 407.651 43.4907C407.089 43.7724 406.667 44.7585 406.245 45.181C405.823 45.7445 405.26 46.4488 404.838 47.0122C403.994 48.1391 403.01 49.4069 402.025 50.5337C400.478 52.2242 398.368 54.1962 399.352 56.7317C400.056 58.8446 402.588 59.6898 404.838 59.4081C411.027 58.8446 415.528 52.6467 421.717 52.0833C418.482 55.8865 414.965 59.8307 410.043 60.6759C409.339 60.8167 408.636 60.8168 408.073 61.2393C407.51 61.521 406.948 62.2253 407.229 62.9297C407.37 63.6339 408.073 63.9157 408.777 64.1974C411.027 65.0426 413.277 65.606 415.669 65.7466C416.794 65.8878 417.919 65.8878 419.185 65.8878C419.607 65.8878 420.169 65.7466 420.591 65.7466C421.154 65.7466 421.717 66.0284 422.139 66.1697C423.405 66.5921 424.811 66.8739 426.077 67.2964C425.655 67.437 425.374 67.437 424.952 67.5782C421.154 68.5643 417.216 69.2686 413.277 69.9729C411.59 70.2547 409.761 69.8317 408.073 69.8317C406.245 69.8317 404.557 69.8317 402.728 69.9729C402.166 69.9729 401.603 70.1135 401.181 70.2547C400.759 70.5359 400.478 71.0996 400.618 71.5221C400.759 71.8039 401.04 72.0857 401.181 72.2263C403.291 73.6349 405.682 73.9167 408.214 74.058C409.62 74.1986 411.027 74.1986 412.574 74.1986C413.277 74.1986 413.981 74.1986 414.684 74.1986C415.247 74.1986 416.09 74.1986 416.653 74.058C415.387 74.4804 413.981 74.9029 412.574 75.1847C411.871 75.3253 411.168 75.6071 410.323 75.7484C409.761 75.889 409.198 76.0296 408.636 76.0296C408.073 76.0296 407.652 76.0296 407.089 76.0296C405.823 76.1708 404.557 76.1708 403.291 76.3114C402.588 76.3114 401.884 76.4527 401.322 76.7338C400.759 77.0157 400.197 77.5794 400.056 78.2837C402.166 80.5377 405.26 80.3965 408.073 80.9602C409.058 81.1008 410.043 81.242 411.027 81.3826C412.996 81.6645 414.965 81.8051 416.935 81.9463C420.873 82.2275 424.811 82.2275 428.749 81.9463C429.312 81.9463 430.016 81.8051 430.578 81.8051C425.374 84.904 419.185 86.4538 412.996 86.0307C411.871 85.8901 410.746 85.8901 409.761 86.172C408.777 86.5944 407.792 87.5805 408.073 88.7072C408.214 89.4115 408.917 89.9752 409.48 90.3976C410.605 91.1019 411.871 91.6656 413.137 91.9475C410.746 92.2293 408.355 91.8062 406.245 90.6795C405.401 90.2571 404.557 89.6934 403.572 89.6934C402.588 89.6934 401.603 90.3977 401.743 91.3838C401.884 92.0881 402.588 92.5105 403.291 92.9336C404.416 93.4966 405.542 93.919 406.667 94.4827C407.51 94.7646 408.355 95.0464 408.917 95.7507C409.62 96.5956 410.605 97.1593 411.449 97.7223C412.011 98.0041 412.434 98.4272 412.996 98.7084C413.277 98.8497 414.121 99.5539 414.544 99.5539C410.043 100.258 405.401 98.9902 401.743 96.3137C399.634 94.7646 397.946 92.9336 395.977 91.3838C395.133 90.6795 394.289 90.1158 393.445 89.5528C392.742 88.9891 391.476 88.8485 390.632 89.2709C389.507 89.8346 388.522 91.3838 388.944 92.6517C389.085 93.2148 389.507 93.6379 389.788 94.0603C390.21 94.7646 390.632 95.4689 390.913 96.3137C392.46 99.2721 394.43 101.807 396.962 103.921C391.757 103.216 386.834 100.962 382.755 97.4411C380.224 95.3283 377.832 92.5105 374.738 90.8201C373.894 90.3977 372.909 89.9752 371.925 89.9752C370.659 89.9752 369.534 90.6795 368.971 91.9475C368.549 92.9336 369.111 94.0603 369.534 95.0464C370.237 97.4411 371.784 99.8358 374.175 101.103C370.519 101.667 367.424 98.286 364.611 95.4689C364.048 94.9052 363.485 94.2009 362.782 93.6379C362.219 93.2148 361.376 92.2287 360.673 92.0881C360.531 92.6517 359.406 92.5105 358.985 92.6517C358 92.9336 357.718 94.0603 357.718 95.0464C357.718 97.1593 358 99.4127 358.703 101.526C357.156 100.962 356.453 99.2721 355.75 97.8635C355.046 96.455 353.78 94.9052 352.092 95.0464C350.686 95.187 349.842 96.5956 349.28 97.8635C348.717 99.1315 348.295 100.54 347.029 101.385C347.029 98.8497 347.029 96.455 347.029 93.919C347.029 93.6379 347.029 93.2148 346.607 93.0742C346.325 92.9336 346.044 93.0742 345.904 93.2148C341.262 96.3137 337.464 100.822 335.073 106.034C333.666 105.048 333.526 103.075 333.948 101.526C334.37 99.9764 335.214 98.4272 335.354 96.8774C335.495 95.187 334.511 93.356 332.963 93.2148C331.979 93.2148 330.572 93.7785 329.587 94.0603C329.306 94.2009 329.025 94.3421 328.744 94.6233C327.056 96.0325 325.79 97.7223 324.805 99.6945C324.665 97.018 324.665 94.3421 324.524 91.6656C322.555 89.9752 319.882 90.6795 317.773 92.0881C315.803 93.6379 314.256 95.7507 312.427 97.4411C308.911 100.54 303.988 101.807 299.628 100.54C301.738 99.5539 303.144 97.8635 304.129 95.8913C304.551 95.0464 304.973 94.0603 304.551 93.2148C304.129 92.3699 303.144 91.9475 302.301 91.9475C299.628 91.8062 297.378 92.0881 294.564 92.7923C292.736 93.2148 290.767 94.0603 289.782 95.8913C288.798 97.7223 289.782 100.821 291.611 100.681C289.923 102.935 286.547 101.244 284.859 98.9902C283.171 96.7368 281.765 93.7785 279.092 93.2148C273.044 91.9475 270.512 104.625 264.464 104.061C265.027 102.653 265.589 101.244 265.871 99.8358C266.011 99.1315 266.152 98.4272 266.293 97.7223C266.433 97.2998 266.714 97.018 266.574 96.5956C266.293 94.7646 263.339 94.7646 262.214 95.4689C261.651 95.8913 261.229 96.455 260.667 96.8774C259.401 98.0041 257.713 98.8497 256.165 99.6945C253.775 101.103 251.242 102.23 248.57 103.357C249.273 103.075 250.117 100.962 250.399 100.258C250.961 98.9902 251.524 97.7223 251.946 96.455C252.227 95.6094 253.352 93.2148 252.087 93.2148C251.102 93.0742 249.273 95.0464 248.429 95.6095C245.195 97.7223 241.959 98.0041 238.443 98.5678C235.489 98.9902 232.395 99.4127 229.441 99.8358C228.738 97.2999 232.536 96.0325 232.957 93.4966C233.239 91.3838 230.848 89.6934 229.019 90.2571C227.472 90.6795 226.065 91.6656 225.502 93.2148C225.081 94.0603 224.659 94.7646 223.956 95.4689C222.268 97.018 220.298 98.286 218.048 98.9902C215.656 99.6945 213.266 99.8358 210.734 99.9764C209.187 100.117 207.639 100.117 206.092 100.258C207.78 99.8358 209.468 98.8497 210.593 97.4411C211.155 96.8774 211.578 96.1731 211.718 95.4689C211.859 94.6233 211.297 92.6517 210.171 92.2293C209.187 91.8062 207.78 91.9475 206.655 92.2293C205.248 92.6517 203.982 93.2148 202.717 93.7785C202.013 94.0603 201.169 94.3421 200.325 94.6233C199.763 94.7646 199.341 95.187 198.778 95.3283C197.09 95.8913 195.402 96.1731 193.715 96.7368C192.589 97.018 191.324 97.2999 190.198 97.4411C188.088 97.5817 185.978 96.8774 184.15 95.6095C185.557 96.1731 187.103 95.4688 188.37 94.7646C189.776 94.0603 191.183 93.2148 192.589 92.5105C193.292 92.0881 195.683 91.3838 195.683 90.2571C195.683 88.5667 193.855 88.9891 192.87 88.9891Z" fill="#FDC232"/>
<path d="M250.259 55.3231C248.711 57.7177 245.898 59.2672 243.085 58.8447C243.929 56.8725 244.492 54.7596 244.913 52.6467C245.195 51.5198 245.195 49.9703 244.21 49.4069C242.804 48.7026 241.397 50.2521 240.694 51.6607C239.709 53.6327 238.725 56.0274 240.131 57.7177C237.74 56.3091 236.474 53.2102 237.178 50.5338C236.615 49.5477 235.067 50.1112 234.646 51.0972C234.224 52.0832 234.364 53.2102 234.083 54.3371C233.802 56.0274 232.395 57.436 230.848 57.8586C229.16 58.2812 227.332 57.8586 226.207 56.5908C227.753 56.1683 229.441 55.6048 230.145 54.0553C230.707 52.9284 230.004 50.9563 228.598 50.9563C227.05 50.9563 226.769 53.0693 225.925 53.9144C223.674 56.3091 223.393 50.5338 223.253 49.4069C223.112 47.4348 222.549 45.7445 221.283 44.1949C220.721 43.4906 220.018 42.7863 219.314 42.082C219.033 41.8003 217.486 40.2508 217.204 40.3917C219.877 39.9691 222.69 40.8143 224.659 42.7863C226.769 44.7584 229.301 47.8574 231.411 46.0262C233.52 44.3359 231.833 40.6734 230.707 38.1379C228.457 32.7851 230.145 25.6012 234.505 22.2205C233.379 28.5593 236.474 35.6024 241.819 38.4196C242.804 38.9831 244.21 39.1239 244.632 38.1379C244.773 37.7153 244.773 37.1519 244.632 36.5884C244.07 32.7851 243.367 29.1227 242.522 25.3195C243.788 27.9958 245.195 30.813 247.586 32.6443C248.852 33.6303 250.821 34.4755 252.368 33.9121C252.931 33.7712 253.353 33.0669 253.775 32.6443C254.478 31.5174 254.478 30.2496 254.338 28.9818C254.197 27.855 253.775 27.0098 253.353 26.0237C252.227 23.6291 250.821 21.3753 249.133 19.4033C248.289 18.4172 247.445 17.4311 246.461 16.4452C246.038 16.0225 245.476 15.4591 245.054 15.0365C244.773 14.8956 244.632 14.6139 244.351 14.473C244.21 14.3322 243.929 14.0505 243.929 14.0505C248.43 14.3322 252.79 16.4452 255.603 19.9667C256.588 21.0936 257.291 22.3614 258.135 23.6291C258.839 24.756 259.542 26.0237 260.385 27.1507C260.667 27.5732 260.807 27.9958 260.948 28.4184C261.23 29.2636 262.214 29.827 262.777 30.1088C264.183 30.9539 265.731 30.3905 266.434 28.841C266.715 28.2776 266.574 27.2915 266.574 26.7281C266.434 25.6012 266.012 24.6151 265.449 23.7699C264.043 20.9527 262.636 17.9946 260.526 15.5999C263.058 16.3043 265.449 17.7129 267.419 19.5441C267.84 19.9667 268.262 20.3892 268.684 20.9527C269.247 21.7979 269.528 22.9248 269.81 23.9108C270.372 25.742 271.497 27.4324 272.763 28.9818C273.326 29.5453 274.029 29.9679 274.732 29.9679C275.295 29.9679 275.857 29.9679 276.279 29.5453C276.702 28.9818 276.983 28.2776 277.124 27.7141C277.545 26.3055 277.405 24.8968 277.264 23.6291C276.983 21.5162 276.279 19.5441 276.42 17.4311C276.702 14.3322 278.67 11.6558 280.499 9.12032C279.796 11.9376 279.655 15.0365 280.077 17.9946C280.218 19.5441 280.64 21.0936 281.062 22.5022C281.765 24.756 282.891 27.2915 285 28.5593C286.125 29.2636 287.532 29.4044 288.517 28.7001C289.501 27.9958 289.923 26.8689 290.064 25.742C290.204 24.8968 290.064 24.0517 290.064 23.2065C289.923 22.2205 289.783 21.0936 289.642 20.1075C289.361 19.1215 289.079 18.1355 288.657 17.1494C288.517 16.7269 288.235 16.1634 287.954 15.7408C287.813 15.5999 287.392 14.473 287.25 14.473C288.938 14.473 290.626 15.3182 292.033 16.1634C292.877 16.7269 293.862 17.4311 294.143 18.5581C294.565 19.5441 294.565 20.5301 294.705 21.5162C294.846 23.4882 295.409 25.6012 295.971 27.4324C296.253 28.4184 296.675 29.5453 297.237 30.3905C297.8 31.5174 298.644 33.2077 300.191 32.926C302.301 32.6443 302.442 29.2636 302.16 26.8689C302.019 26.1646 302.019 25.4603 301.879 24.6151C301.879 24.0517 301.879 23.4882 301.739 22.7839C301.597 22.0796 301.316 21.3753 301.176 20.671C301.035 19.9667 300.754 19.2623 300.613 18.5581C300.191 17.0086 299.91 15.4591 299.769 13.7688C299.628 11.5149 300.191 9.26118 301.176 7.28906C301.035 10.388 303.426 13.0644 304.27 16.1634C304.692 17.8538 304.692 19.685 304.973 21.5162C305.114 22.6431 305.536 23.9108 306.38 24.756C306.661 25.1786 307.083 25.6012 307.646 25.4603C307.927 25.4603 308.068 25.3195 308.349 25.1785C309.193 24.6151 309.756 23.9108 310.177 23.0656C310.74 21.7979 310.74 20.5302 310.881 19.1215C311.022 16.586 311.162 14.0505 310.74 11.6558C312.287 12.3601 313.975 13.2053 314.96 14.473C317.211 17.2903 316.366 21.9387 319.179 24.1925C319.461 24.4743 319.882 24.6151 320.305 24.6151C321.008 24.4743 321.149 23.4882 321.149 22.7839C321.149 20.3892 321.149 17.8538 321.852 15.5999C322.555 13.3462 324.384 11.0924 326.634 10.8107C326.071 12.501 325.649 14.1913 325.228 15.8817C325.087 16.7269 324.946 17.572 324.806 18.4172C324.665 19.9667 324.806 21.3753 325.228 22.9248C325.509 24.1925 326.071 25.3195 326.775 26.3055C327.197 27.0098 327.619 27.8549 328.041 28.5593C329.588 30.3905 331.557 27.2915 332.12 26.1646C332.401 25.6012 332.683 24.8968 332.963 24.3334C333.245 23.77 333.245 23.2065 333.526 22.6431C334.371 19.8258 335.355 17.0086 336.762 14.473C337.465 13.2053 338.027 12.0784 338.871 10.9515C339.293 10.3881 339.575 9.8246 339.996 9.26118C340.278 8.97946 340.7 8.41597 340.981 8.13426C339.012 13.0644 336.058 26.0237 343.513 28.1367C348.014 29.4044 346.326 21.3753 347.873 18.8398C348.155 20.9527 348.436 22.9248 348.717 25.0378C348.858 26.1646 349.42 28.841 350.968 28.4184C351.53 28.2776 351.952 27.4324 352.234 26.8689C353.499 24.8969 354.625 23.0656 355.187 20.671C355.328 20.2484 355.75 15.3182 355.187 15.3182C357.016 15.3182 358.281 17.2903 358.563 19.2623C358.844 21.2344 358.563 23.2065 358.563 25.1785C358.703 27.1507 359.548 29.4044 361.236 29.827C362.642 30.2496 363.908 29.4045 365.033 28.5593C366.018 27.7141 366.861 27.1507 368.128 26.5872C369.816 25.742 371.503 25.0378 373.332 24.3334C374.035 24.0517 377.27 23.7699 377.692 23.0656C376.989 24.1925 376.286 25.4603 375.441 26.5872C375.02 27.1507 374.738 27.7141 374.316 28.4184C374.035 28.841 373.754 29.6862 373.191 30.1088C372.91 30.3905 372.628 30.3905 372.207 30.6722C371.503 30.954 370.8 31.2357 370.097 31.6582C368.971 32.3625 367.846 33.4894 367.987 35.0389C368.128 36.8701 370.097 37.997 371.925 38.7014C375.02 39.6873 378.254 39.9691 381.49 39.5466C379.521 42.082 376.286 43.2089 373.05 43.2089C369.816 43.2089 366.721 42.3637 363.767 41.3777C363.205 41.2368 362.642 41.096 362.079 41.3777C361.657 41.6595 361.376 42.082 361.236 42.6455C360.391 45.3218 361.376 48.4209 363.486 50.1112C360.391 49.8295 357.578 47.8574 356.313 45.0401C355.328 42.9272 354.343 39.9691 352.234 40.3917C351.671 42.5046 351.952 44.7584 353.077 46.5896C351.249 46.0262 349.702 44.6176 348.998 42.7863C348.576 41.6595 348.295 40.3917 347.31 39.6873C346.045 38.8422 344.216 39.8283 343.513 40.9551C343.372 41.3777 343.372 41.6595 343.372 42.082C343.372 43.2089 343.231 44.195 342.951 45.181C342.388 47.1531 341.122 49.1251 339.575 50.5338C339.996 50.1111 340.137 48.4208 340.137 47.8574C340.278 46.8713 340.137 45.8853 339.996 44.8993C339.856 44.0541 339.434 43.2089 339.153 42.2229C338.871 41.2369 338.449 40.3917 337.887 39.5466C337.465 38.8422 336.621 38.1379 335.777 38.4196C335.214 38.7014 335.074 39.5465 334.792 40.11C334.511 40.8143 334.371 41.5186 334.229 42.2229C333.948 43.6315 334.089 45.181 334.511 46.5896C332.964 46.3079 332.12 44.7584 331.698 43.2089C331.276 41.8003 331.135 40.11 330.291 38.8422C329.447 37.5744 327.478 36.8702 326.353 37.997C325.931 38.5605 325.791 39.2648 325.649 39.9691C325.368 42.9272 326.071 45.8853 327.759 48.4208C324.946 48.5617 322.133 46.5896 321.149 43.9132C320.586 42.2229 320.305 39.9691 318.617 39.6873C317.211 39.4056 316.085 40.6734 315.804 42.082C315.523 43.4907 315.804 44.7584 315.804 46.167C315.804 49.4069 313.694 52.5058 310.74 53.7736C311.444 51.9424 312.006 49.9703 312.287 47.9982C312.569 46.167 312.71 44.3358 312.006 42.6455C311.303 40.9551 309.615 39.6874 307.786 39.8283C306.521 39.9691 305.255 41.096 305.114 42.5046C304.833 43.7724 305.536 45.3218 306.802 45.8853C305.395 46.7305 303.848 45.0401 303.145 43.6315C302.442 42.2229 301.035 40.3917 299.628 41.096C298.925 41.3777 298.644 42.082 298.363 42.9272C297.659 45.181 297.8 47.5757 297.237 49.8294C296.534 52.0832 294.565 54.337 292.314 53.7736C293.58 50.9563 294.143 47.8574 294.002 44.8993C294.002 44.0541 293.862 43.0681 293.299 42.3637C292.736 41.6595 291.611 41.2368 290.908 41.8003C290.064 42.5046 289.923 44.3358 289.783 45.3218C289.642 46.3079 289.783 47.4348 289.923 48.4208C288.235 48.5617 286.547 47.7165 285.704 46.167C285.141 45.181 285.141 43.9132 284.719 42.9272C284.297 41.9412 283.171 40.9551 282.187 41.2369C281.203 41.5186 280.781 42.5046 280.499 43.4907C279.374 47.294 279.937 51.3789 281.765 54.9005C280.218 54.7596 278.952 53.9144 278.108 52.6467C277.264 51.3789 276.983 49.8294 276.702 48.4208C276.561 47.294 276.561 46.167 276.139 45.0401C275.717 43.9132 274.873 42.9272 273.748 42.7863C271.919 42.5046 270.513 44.6176 270.653 46.4488C270.794 48.2799 272.06 49.8294 273.185 51.238C271.919 52.365 269.81 51.3789 268.544 50.2521C267.559 49.4069 266.574 49.1251 265.59 48.1391C264.886 47.294 264.183 46.3079 263.198 46.0262C261.37 45.3218 259.401 47.1531 259.119 48.9843C258.839 50.9563 259.823 52.7876 260.807 54.3371C258.557 54.1962 256.447 52.365 256.025 50.1112C255.744 48.4209 256.025 46.167 254.338 45.4628C252.931 44.8993 251.524 46.167 251.102 47.5757C250.68 48.9843 251.102 50.5338 250.962 51.9424C251.243 53.351 250.821 54.3371 250.259 55.3231Z" fill="#FDD44C"/>
<path d="M192.871 88.9886C191.324 89.1298 189.777 89.411 188.37 89.2704C187.245 89.2704 186.119 88.848 184.994 88.5661C182.322 87.8619 179.649 87.1576 177.118 86.0309C175.289 85.3259 173.601 84.3405 171.772 84.1992C174.304 83.2131 176.977 83.0725 179.509 83.2131C182.462 83.3543 185.275 84.0586 188.229 84.3405C188.37 84.3405 188.651 84.3405 188.792 84.4811C188.932 84.6216 188.932 84.6216 189.073 84.7629C189.354 84.7629 189.636 84.6216 189.636 84.3405C189.777 83.9174 189.354 83.4949 189.073 83.2131C188.511 82.5088 187.948 81.9458 187.245 81.2415C188.511 81.9458 189.917 82.5088 191.324 83.0725C192.167 83.3543 193.433 83.4949 193.574 82.6501C193.715 82.0864 193.293 81.3821 192.73 81.1003C190.48 79.2693 187.948 77.8607 185.135 76.8746C186.963 76.734 188.792 76.8746 190.62 77.297C191.745 77.5789 192.73 78.0013 193.715 78.565C195.966 79.8329 197.934 81.5227 200.325 82.7906C201.451 83.3543 202.576 83.9174 203.842 84.1992C204.123 84.1992 204.546 84.3405 204.826 84.3405C205.108 84.4811 205.389 84.4811 205.671 84.4811C206.936 84.1992 207.921 83.2131 208.484 81.9458C208.765 81.3821 208.765 80.6778 208.765 79.9735C208.765 79.6917 208.624 79.4098 208.484 79.128C208.484 78.9874 208.202 78.4237 208.062 78.4237C209.75 78.2831 209.89 80.8184 210.312 82.5088C210.875 85.1853 213.969 87.0163 216.642 86.312C217.064 86.1715 217.485 86.0309 217.626 85.6078C218.33 84.6216 217.064 83.3543 216.22 82.5088C214.532 80.8184 213.969 78.1425 214.672 75.8885C215.516 73.6344 217.626 71.8034 220.018 71.5215C219.595 73.7756 219.736 76.029 220.439 78.1425C221.283 80.396 223.534 82.6501 225.644 81.6639C227.05 81.1003 227.753 79.2693 227.472 77.7194C227.19 76.1703 226.206 74.9023 225.081 73.7756C227.19 73.7756 228.598 75.7479 230.144 77.1564C231.692 78.565 234.645 79.2693 235.49 77.297C235.77 76.4521 235.63 75.6066 235.349 74.7617C234.224 70.9585 232.536 67.2959 230.426 63.9152C232.254 64.056 233.942 65.4647 234.927 67.014C235.911 68.5638 236.615 70.3948 237.599 72.0852C239.569 75.466 242.944 78.0013 246.742 78.8468C245.758 75.6066 243.929 72.6489 241.678 70.2542C244.632 72.0852 247.445 73.9162 250.399 75.7479C250.821 76.029 251.383 76.3109 251.946 76.4521C253.353 76.5927 254.337 75.0436 254.478 73.6344C254.618 72.2258 254.196 70.8173 254.478 69.4087C254.759 68.0001 256.025 66.5916 257.432 67.014C256.306 68.8457 256.306 71.0991 256.306 73.0713C256.166 74.9023 258.979 75.3248 260.245 74.7617C261.792 74.0575 262.495 72.2258 262.917 70.6767C263.761 67.1553 263.058 63.3518 261.23 60.2528C262.636 60.5345 264.183 60.9571 265.449 61.5205C265.871 61.6614 266.293 61.9431 266.574 62.2248C266.996 62.7883 266.856 63.4926 266.856 64.197C266.574 66.1691 266.574 68.282 267.418 70.113C268.262 71.9446 270.372 73.2119 272.341 72.6489C270.794 69.6905 271.638 65.6055 274.31 63.4926C274.169 65.0421 274.029 66.8734 275.014 68.1407C275.857 69.5499 278.108 69.9724 279.093 68.7044C279.515 68.1414 279.515 67.2959 279.515 66.5916C279.374 64.3378 278.53 61.9431 276.982 60.2528C279.093 59.4076 281.203 61.3797 282.187 63.3518C283.171 65.4647 283.453 67.7183 285 69.4087C285.562 69.9724 286.266 70.5354 287.11 70.2542C288.095 69.9724 288.376 68.7044 288.095 67.8595C287.813 66.8734 287.25 66.1691 286.828 65.3238C285.985 63.4926 286.266 61.3796 287.391 59.8302C288.516 58.2807 290.486 57.2947 292.455 57.5764C289.501 59.971 289.783 65.183 292.877 67.2959C293.439 67.7183 294.142 68.0001 294.705 67.5777C295.127 67.2959 295.127 66.7322 295.268 66.3097C295.69 62.9292 297.378 59.2667 300.613 58.5625C298.925 60.9571 298.081 64.056 298.221 67.014C298.221 68.5638 298.503 69.9724 299.066 71.3809C299.347 72.0852 299.628 72.7895 300.05 73.3532C300.191 73.6344 300.331 74.0575 300.613 74.1981C301.175 74.6205 302.16 74.1981 302.442 73.4938C303.145 71.6628 304.551 69.9724 306.38 69.2681C304.692 71.2403 305.817 74.7617 308.208 75.7479C310.599 76.5927 313.553 75.0436 314.538 72.5077C315.381 70.113 314.397 67.1553 312.428 65.4647C313.975 65.6055 315.522 66.7322 315.944 68.282C316.507 70.113 316.929 71.8034 317.491 73.6344C317.773 74.7617 318.476 75.6066 319.179 76.1703C320.727 77.297 322.836 76.029 322.977 74.1981C323.258 70.9585 325.087 68.0001 327.759 66.3097C327.337 68.5638 326.774 70.8172 327.619 73.0713C328.322 75.1842 330.853 76.8746 332.963 76.029C334.511 75.3248 335.214 73.4938 335.074 71.8034C334.933 70.113 334.089 68.5638 333.386 67.014C334.933 67.2959 335.777 68.8457 336.199 70.3948C336.62 71.9446 336.62 73.4938 337.465 74.9023C338.308 76.3109 340.137 77.1564 341.403 76.1703C340.84 72.7895 343.654 69.4087 347.029 69.2681C346.326 72.0852 345.904 75.8885 348.717 77.0152C350.686 77.8607 353.077 76.5927 353.78 74.4799C355.187 70.8172 352.796 68.0001 351.249 64.9012C352.937 64.7604 355.187 65.7467 356.593 66.7322C357.719 67.5777 360.251 70.2542 361.517 68.1407C360.251 63.2109 358 58.4216 354.906 54.3366C356.312 54.1957 357.86 55.0409 358.703 56.3086C359.547 57.5764 360.11 58.985 360.672 60.2528C360.954 60.6754 361.235 61.2388 361.657 61.3797C362.22 61.5206 362.642 60.9571 362.923 60.6754C364.47 58.985 366.018 57.1538 367.706 55.4634C367.143 57.999 365.736 60.1119 365.033 62.5066C364.33 64.9012 364.611 68.0001 366.58 69.4087C367.846 67.014 369.674 64.9012 371.925 63.4926C371.081 64.056 370.378 65.7467 370.097 66.7322C369.956 67.1553 369.815 67.4364 369.815 67.8595C369.674 68.5638 369.815 69.1269 370.237 69.6905C371.503 71.3809 373.613 71.2403 375.019 69.6905C375.723 68.8457 376.286 67.8595 376.848 66.8734C378.114 64.6195 379.661 62.5066 381.63 60.8162C380.786 62.5066 379.942 64.3378 379.802 66.3097C379.661 68.282 380.645 70.3948 382.474 70.9585C384.303 68.1407 386.834 65.8873 389.929 64.6195C389.085 66.0279 388.241 67.4364 387.397 68.9863C387.116 69.5499 386.694 70.2542 386.834 70.8173C386.975 72.6489 389.507 72.7895 390.913 72.7895C392.179 72.6489 392.883 71.9446 393.586 70.9585C395.414 68.1407 398.087 65.3238 401.744 64.9012C398.65 67.7183 398.509 69.5499 397.102 72.0852C396.68 72.9301 396.54 73.7756 396.399 74.6205C396.399 75.3248 396.399 75.8885 396.68 76.5927C396.821 77.0152 397.102 77.7194 397.525 78.1425C397.946 78.4237 398.65 78.4237 399.071 78.4237C399.775 78.4237 400.478 78.1425 401.181 77.7194C402.026 77.1564 402.869 76.4521 403.713 76.029C404.135 75.8885 404.276 75.7479 404.557 75.466C405.401 74.6205 406.385 73.7756 407.37 73.0713C408.355 72.3671 409.48 71.8034 410.606 71.2403C411.168 70.9585 411.871 70.6767 412.434 70.5354C412.715 70.3948 412.997 70.3948 413.277 70.2542C413.419 70.2542 413.7 70.113 413.84 70.113C413.7 70.2542 413.419 70.3948 413.277 70.5354C412.012 71.5215 410.886 72.5077 409.902 73.6344C409.339 74.1981 408.918 74.7617 408.495 75.466C408.073 76.029 407.651 76.5927 407.511 77.297C407.23 78.565 407.792 79.8323 408.777 80.8184C409.761 81.6639 410.886 82.227 412.152 82.5088C412.715 82.6501 413.277 82.7906 413.84 82.7906C414.825 82.7906 415.81 82.6501 416.794 82.6501C418.341 82.6501 419.889 82.7906 421.577 82.7906C424.108 82.7906 426.64 82.7907 429.172 82.6501C429.734 82.6501 430.437 82.5088 431 82.5088C425.796 85.6078 419.607 87.1576 413.418 86.7351C412.293 86.5939 411.168 86.5939 410.183 86.8757C409.199 87.2982 408.214 88.2843 408.495 89.411C408.636 90.1153 409.339 90.679 409.902 91.1014C411.027 91.8057 412.293 92.3694 413.559 92.6512C411.168 92.9331 408.777 92.51 406.667 91.3833C405.823 90.9608 404.979 90.3971 403.994 90.3971C403.01 90.3971 402.026 91.1014 402.166 92.0875C402.306 92.7918 403.01 93.2142 403.713 93.6373C404.839 94.2004 405.964 94.7641 407.089 95.1865C407.933 95.4683 409.058 96.3132 409.761 96.8769C410.464 97.4406 411.168 98.0036 411.871 98.4267C412.434 98.7079 412.856 99.131 413.418 99.4122C413.7 99.5534 414.544 100.258 414.965 100.258C410.464 100.962 405.823 99.694 402.166 97.0175C400.056 95.4683 398.368 93.6373 396.399 92.0875C395.555 91.3833 394.711 90.8196 393.867 90.2565C393.164 89.6929 391.898 89.5523 391.054 89.9747C389.929 90.5384 388.945 92.0875 389.366 93.3555C389.507 93.9185 389.929 94.3416 390.21 94.764C390.632 95.4683 391.054 96.1726 391.335 97.0175C392.883 99.9759 394.852 102.511 397.384 104.625C392.179 103.92 387.257 101.666 383.178 98.1449C380.645 96.032 378.254 93.2142 375.16 91.5245C374.316 91.1014 373.332 90.679 372.347 90.679C371.081 90.679 369.956 91.3832 369.394 92.6512C368.971 93.6373 369.534 94.7641 369.956 95.7502C370.659 98.1449 372.206 100.54 374.598 101.807C370.94 102.371 367.846 98.9897 365.033 96.1726C364.47 95.6089 363.908 94.9046 363.205 94.3416C362.642 93.9185 361.798 92.9331 361.094 92.7918C360.954 93.3555 359.829 93.2142 359.407 93.3555C358.422 93.6373 358.141 94.7641 358.141 95.7502C358.141 97.863 358.422 100.117 359.126 102.23C357.578 101.666 356.875 99.9758 356.172 98.5673C355.468 97.1587 354.202 95.6089 352.514 95.7502C351.108 95.8908 350.264 97.2993 349.701 98.5673C349.139 99.8353 348.717 101.244 347.451 102.089C347.451 99.5534 347.451 97.1587 347.451 94.6235C347.451 94.3416 347.451 93.9185 347.029 93.7779C346.748 93.6373 346.467 93.7779 346.326 93.9185C341.684 97.0175 337.887 101.526 335.495 106.737C334.089 105.751 333.948 103.779 334.37 102.23C334.792 100.68 335.636 99.131 335.777 97.5812C335.917 95.8908 334.933 94.0598 333.386 93.9185C332.401 93.9185 331.276 94.3416 330.291 94.6235C330.01 94.7641 329.447 95.0459 329.307 95.1865C327.619 96.595 326.353 98.2854 325.368 100.258C325.227 97.5812 325.227 94.9046 325.087 92.2288C323.118 90.5384 320.445 91.2427 318.335 92.6512C316.366 94.2004 314.819 96.3132 312.99 98.0036C309.474 101.103 304.551 102.371 300.191 101.103C302.301 100.117 303.707 98.4267 304.692 96.4544C305.113 95.6089 305.536 94.6235 305.114 93.7779C304.692 92.9331 303.707 92.51 302.863 92.51C300.191 92.3694 297.941 92.6512 295.127 93.3555C293.299 93.7779 291.329 94.6235 290.345 96.4544C289.361 98.2854 290.345 101.384 292.174 101.244C290.486 103.497 287.11 101.807 285.422 99.5534C283.734 97.2993 282.328 94.3416 279.655 93.7779C273.607 92.51 271.075 105.188 265.027 104.625C265.589 103.216 266.152 101.807 266.434 100.398C266.574 99.694 266.715 98.9897 266.856 98.2854C266.996 97.863 267.277 97.5812 267.137 97.1587C266.856 95.3277 263.902 95.3277 262.776 96.032C262.214 96.4545 261.792 97.0175 261.23 97.4406C259.963 98.5673 258.276 99.4122 256.728 100.258C254.338 101.666 251.805 102.793 249.133 103.92C249.836 103.638 250.68 101.526 250.962 100.821C251.524 99.5534 252.087 98.2854 252.509 97.0175C252.79 96.1726 253.915 93.7779 252.65 93.7779C251.665 93.6373 249.836 95.6089 248.992 96.1726C243.647 99.694 238.443 98.2854 231.411 100.821C230.848 100.54 230.566 100.398 230.004 100.117C229.582 97.7224 233.098 96.4544 233.52 93.9185C233.802 91.8057 231.411 90.1153 229.582 90.679C228.035 91.1014 226.628 92.0875 226.065 93.6373C225.362 95.4683 224.377 96.3132 221.283 98.1449C220.439 98.7079 219.455 99.131 218.47 99.4122C216.22 100.117 213.829 100.258 211.438 100.398C209.89 100.54 208.343 100.54 206.796 100.68C208.484 100.258 210.171 99.2716 211.297 97.863C211.859 97.2993 212.281 96.595 212.422 95.8908C212.563 95.0459 212 93.0736 210.875 92.6512C209.89 92.2288 208.484 92.3694 207.358 92.6512C205.952 93.0736 204.686 93.6373 203.42 94.2004C202.717 94.4822 201.873 94.764 201.029 95.0459C200.466 95.1865 200.044 95.6089 199.482 95.7502C197.794 96.3132 196.106 96.595 194.418 97.1587C193.293 97.4406 192.027 97.7224 190.902 97.863C188.792 98.0036 186.682 97.2993 184.853 96.032C186.26 96.5951 187.807 95.8908 189.073 95.1865C190.48 94.4822 191.886 93.6373 193.293 92.9331C193.996 92.51 196.387 91.8057 196.387 90.679C195.684 88.5661 193.855 88.9886 192.871 88.9886Z" fill="#F39D00"/>
<path d="M188.65 94.4821C189.213 94.2009 189.635 93.7778 190.198 93.6372C190.901 93.3554 191.744 93.4959 192.307 93.4959C193.151 93.6372 193.995 93.6372 194.839 93.4959C196.386 93.3554 197.933 92.9329 199.34 92.2286C199.621 92.0874 200.044 91.8062 200.184 91.5244C200.466 91.1019 200.466 90.397 200.324 89.834C200.184 88.9884 199.621 88.1436 198.918 87.4393C199.762 87.8617 200.606 88.2842 201.591 88.566C202.435 88.8478 203.278 88.9884 204.122 89.2703C204.685 89.4115 205.107 89.834 205.67 89.834C205.951 89.834 206.373 89.6927 206.654 89.5521C207.639 89.1297 208.483 87.0168 206.936 86.5938C209.889 87.298 211.999 90.8201 214.953 90.2564C216.922 89.9746 218.188 88.003 219.032 86.1713C218.61 88.003 220.017 89.9746 221.845 90.1158C222.97 90.2564 224.096 89.5521 224.799 88.566C225.08 88.1436 225.361 87.4393 225.361 86.8756C225.221 85.8895 224.518 83.636 223.251 83.636C224.799 83.7766 226.205 84.3403 227.471 85.1852C228.878 86.1713 230.143 88.566 231.972 88.4254C234.504 88.1436 234.363 83.4948 236.895 83.2136C235.489 84.904 236.051 87.7211 237.739 89.2703C239.427 90.8201 241.818 91.2425 244.069 91.1019C244.772 91.1019 245.475 90.9607 246.037 90.6788C247.163 90.1158 247.585 88.566 247.445 87.298C247.303 86.0307 246.46 84.904 245.757 83.7766C247.445 85.467 249.132 87.1574 250.82 88.8478C251.242 89.2703 251.804 89.834 252.508 90.1158C253.914 90.5382 255.321 89.5521 255.883 88.2842C256.446 87.0168 256.305 85.467 256.305 84.0585C256.446 85.7489 256.446 87.5799 257.29 88.9884C257.993 90.5382 259.541 91.8062 261.229 91.665C262.635 91.5244 263.901 90.397 264.604 89.1297C265.308 87.8617 265.448 86.3126 265.73 84.904C265.73 86.1713 266.151 87.298 266.855 88.4254C267.136 88.9884 267.558 89.4115 267.98 89.834C268.543 90.397 268.964 90.397 269.668 90.5382C270.934 90.6788 272.34 90.8201 273.465 90.1158C274.45 89.4115 274.731 88.2841 275.153 87.1574C275.716 85.3264 276.279 83.3542 276.841 81.5232C276.279 83.9179 277.263 86.735 279.092 88.2842C280.077 89.1297 281.342 89.6927 282.608 89.834C283.593 89.9746 284.999 90.1158 285.421 88.8478C285.562 88.2842 285.562 87.7211 285.421 87.1574C285.281 86.1713 285.14 84.904 284.577 84.0585C287.25 88.4254 293.579 89.834 297.799 87.1574C300.753 85.3264 302.441 82.0862 303.284 78.8467C302.722 81.8044 303.003 85.0446 304.269 87.8617C305.113 89.6927 307.082 91.6649 308.911 90.6788C308.067 87.5799 308.488 84.1991 310.176 81.5232C309.895 83.7766 310.88 86.1713 312.709 87.5799C314.255 88.8478 316.647 89.2703 318.334 88.2842C320.022 87.1574 320.444 84.3403 318.897 83.0724C320.726 84.6222 322.554 86.1713 324.242 87.5799C324.945 88.1436 325.648 88.7072 326.493 88.9884C329.024 89.9745 331.556 88.003 333.666 86.1713C333.385 86.8756 333.385 87.7211 333.525 88.566C333.807 90.2564 335.776 91.665 337.604 90.9607C339.011 90.397 339.433 88.566 340.136 87.1574C340.98 85.1852 342.246 83.636 343.934 82.3681C342.668 83.7766 343.09 86.1713 344.496 87.298C345.903 88.4254 348.012 88.566 349.841 88.003C352.795 87.1574 355.327 84.6222 356.171 81.6638C357.296 83.636 358.421 85.6083 360.25 87.1574C362.078 88.566 364.469 89.2703 366.58 88.566C367.001 88.4254 367.423 88.1436 367.564 87.8617C367.705 87.5799 367.705 87.1574 367.705 86.735C367.423 84.0585 367.001 81.5232 366.72 78.8467C369.814 83.7766 374.597 87.5799 380.082 89.5521C380.504 89.6927 380.926 89.834 381.348 89.6927C381.911 89.5521 382.192 88.9884 382.473 88.4254C383.317 86.735 384.302 85.0446 385.146 83.3542C384.302 84.7628 386.131 86.5938 387.818 86.4532C389.506 86.3126 390.912 85.0446 392.32 84.1991C394.429 82.9318 397.101 82.2275 399.633 82.2275C399.212 83.2136 398.227 83.636 397.524 84.3403C396.82 85.0446 396.117 86.1713 396.679 87.0168C397.101 87.7211 398.086 87.7211 398.789 87.7211C401.884 87.7211 404.978 87.298 407.932 86.5938C406.384 87.4393 404.978 88.4254 403.571 89.4115C403.009 89.834 402.306 90.2564 401.743 90.6788C400.618 91.5244 402.025 92.6511 402.868 92.9329C403.994 93.4959 405.119 93.919 406.244 94.4821C407.088 94.7639 408.213 95.6094 408.917 96.1725C409.62 96.7362 410.323 97.2998 411.026 97.7223C411.589 98.0041 412.011 98.4266 412.574 98.7084C412.855 98.849 413.699 99.5533 414.121 99.5533C409.62 100.258 404.978 98.9896 401.321 96.3137C399.212 94.7639 397.524 92.9329 395.554 91.3831C394.71 90.6788 393.866 90.1158 393.023 89.5521C392.32 88.9884 391.053 88.8478 390.209 89.2703C389.084 89.834 388.099 91.3831 388.521 92.6511C388.662 93.2148 389.084 93.6372 389.366 94.0596C389.787 94.7639 390.209 95.4682 390.491 96.3137C392.038 99.2714 394.007 101.807 396.539 103.92C391.335 103.216 386.411 100.962 382.332 97.4404C379.801 95.3276 377.41 92.5105 374.315 90.8201C373.472 90.397 372.487 89.9746 371.502 89.9746C370.236 89.9746 369.111 90.6788 368.548 91.9468C368.126 92.9329 368.689 94.0596 369.111 95.0458C369.814 97.4404 371.361 99.8351 373.752 101.103C370.096 101.666 367.001 98.2853 364.188 95.4682C363.626 94.9052 363.063 94.2009 362.359 93.6372C361.797 93.2148 359.687 92.0874 358.562 92.7917C357.718 93.2148 357.296 94.2009 357.296 95.1863C357.296 97.2998 357.577 99.5533 358.28 101.666C356.734 101.103 356.03 99.4127 355.327 98.0041C354.624 96.5956 353.358 95.0458 351.67 95.1863C350.263 95.3276 349.42 96.7362 348.857 98.0041C348.294 99.2714 347.872 100.68 346.606 101.526C346.606 98.9896 346.606 96.5956 346.606 94.0596C346.606 93.7778 346.606 93.3554 346.184 93.2148C345.903 93.0735 345.622 93.2148 345.481 93.3554C340.84 96.4543 337.042 100.962 334.651 106.174C333.244 105.188 333.103 103.216 333.525 101.666C333.948 100.117 334.791 98.5671 334.932 97.018C335.073 95.3276 334.088 93.4966 332.54 93.3554C331.556 93.3554 330.431 93.7778 329.446 94.0596C329.165 94.2009 328.602 94.4821 328.462 94.6233C326.774 96.0319 325.508 97.7223 324.523 99.6945C324.383 97.018 324.383 94.3415 324.242 91.665C322.273 89.9746 319.601 90.6788 317.491 92.0874C315.522 93.6372 313.974 95.75 312.146 97.4404C308.629 100.539 303.706 101.807 299.346 100.539C301.456 99.5533 302.862 97.8629 303.847 95.8906C304.269 95.0458 304.691 94.0596 304.269 93.2148C303.847 92.3692 302.862 91.9468 302.019 91.9468C299.346 91.8062 297.095 92.0874 294.282 92.7917C292.454 93.2148 290.485 94.0596 289.5 95.8906C288.515 97.7223 289.5 100.821 291.328 100.68C289.641 102.934 286.265 101.244 284.577 98.9896C282.89 96.7362 281.483 93.7778 278.81 93.2148C272.762 91.9468 270.23 104.624 264.182 104.061C264.745 102.652 265.308 101.244 265.588 99.8351C265.73 99.1308 265.87 98.4266 266.011 97.7223C266.151 97.2998 266.433 97.018 266.292 96.5956C266.011 94.7639 263.057 94.7639 261.932 95.4682C261.369 95.8906 260.947 96.4543 260.384 96.8768C259.119 98.0041 257.431 98.849 255.883 99.6945C253.492 101.103 250.961 102.23 248.288 103.357C248.991 103.075 249.836 100.962 250.116 100.258C250.679 98.9896 251.242 97.7223 251.664 96.4543C251.945 95.6094 253.07 93.2148 251.804 93.2148C250.82 93.0735 248.991 95.0458 248.148 95.6094C242.803 99.1308 237.598 97.7223 230.565 100.258C230.003 99.9757 229.722 99.8351 229.159 99.5533C228.737 97.1586 232.253 95.8906 232.676 93.3554C232.956 91.2425 230.565 89.5521 228.737 90.1158C227.19 90.5382 225.784 91.5244 225.221 93.0735C224.518 94.9052 223.533 95.75 220.438 97.581C219.594 98.1447 218.61 98.5672 217.625 98.849C215.375 99.5533 212.984 99.6945 210.592 99.8351C209.045 99.9757 207.498 99.9757 205.951 100.117C207.639 99.6945 209.327 98.7084 210.452 97.2998C211.015 96.7362 211.437 96.0319 211.577 95.3276C211.718 94.4821 211.155 92.5105 210.03 92.0874C209.045 91.665 207.639 91.8062 206.513 92.0874C205.107 92.5105 203.841 93.0735 202.575 93.6372C201.872 93.919 201.028 94.2009 200.184 94.4821C199.621 94.6233 199.199 95.0458 198.637 95.1863C196.949 95.75 195.261 96.0319 193.573 96.5956C192.448 96.8768 191.182 97.1586 190.057 97.2998C187.947 97.4404 185.837 96.7362 184.009 95.4682C185.837 95.8906 187.385 95.1863 188.65 94.4821Z" fill="#DF7800"/>
<path d="M341.261 55.041C337.885 55.3227 334.651 56.4496 331.697 58.1399C331.978 56.4496 332.4 54.9001 332.963 53.3506C331.978 55.3227 330.993 57.2947 330.009 59.2669C329.868 59.4077 329.868 59.5486 329.727 59.6894C329.587 59.8303 329.446 59.6894 329.165 59.6894C326.774 59.1259 324.523 58.5625 322.132 58.1399C323.82 59.126 325.508 60.112 327.196 61.0981C328.602 61.9432 330.009 62.7884 331.134 63.9153C331.275 62.5067 331.838 61.2389 332.681 60.2529C333.244 61.9433 334.651 63.0701 336.197 63.6336C337.745 64.197 339.573 64.3379 341.261 64.3379C339.573 63.0701 337.745 61.8023 336.057 60.5346C335.776 60.3937 335.072 60.112 335.213 59.5486C335.354 59.126 335.916 58.9851 336.197 58.8442C337.042 58.2808 337.745 57.8582 338.448 57.2947C339.714 56.5905 340.558 55.8861 341.261 55.041Z" fill="#F39D00"/>
<path d="M248.289 47.9982C247.445 46.5897 246.46 45.3219 245.195 44.3359C245.195 45.4628 245.476 46.4488 245.898 47.4348C245.476 46.3079 244.351 45.6036 243.225 45.4628C242.1 45.181 240.975 45.4627 239.85 45.6036C241.256 43.7724 243.366 42.5046 245.617 42.082C245.898 42.082 246.038 41.9412 246.32 41.8003C246.46 41.6595 246.601 41.5186 246.742 41.3778C247.445 40.11 248.148 38.7014 248.851 37.4336C248.851 38.4197 248.851 39.5466 248.992 40.5326C248.992 40.8143 248.992 41.096 249.133 41.3778C249.274 41.5186 249.414 41.6595 249.555 41.8003C250.539 42.3637 251.665 42.9272 252.649 43.4907C251.524 43.4907 249.836 42.9272 248.992 43.7724C248.571 44.195 248.571 44.8993 248.571 45.4628C248.43 45.4628 248.289 47.9982 248.289 47.9982Z" fill="#FDC232"/>
<path d="M324.946 32.6445C321.289 32.6445 317.773 32.7853 314.116 32.7853C315.522 33.9123 316.929 34.8983 318.476 36.0252C315.241 35.0392 312.006 34.194 308.63 33.9123C310.318 33.4897 312.006 33.0671 313.834 32.7853C311.865 32.0811 309.896 31.2359 308.067 30.2498C310.459 30.3907 312.991 30.6724 315.382 31.095C313.975 30.109 312.428 28.5595 312.006 26.8691C313.553 27.5735 314.538 28.7003 315.944 29.4047C317.773 30.3907 319.742 31.2359 321.711 31.7993C322.555 32.0811 323.821 32.6445 324.946 32.6445Z" fill="#FDC232"/>
<path d="M287.25 34.7574C284.859 35.0391 282.468 35.0391 280.077 35.0391C281.765 36.1661 283.593 37.1521 285.562 37.9972C281.062 36.3069 276.42 34.8983 271.778 33.4897C274.029 33.6306 276.42 33.9123 278.67 34.4757C277.827 33.9123 277.124 33.208 276.279 32.6445C277.967 32.6445 279.655 33.0671 281.343 33.3488C282.328 33.4897 283.453 33.7714 284.437 33.9123C285 34.0532 285.422 34.194 285.984 34.194C286.125 34.4757 286.829 34.7574 287.25 34.7574Z" fill="#FDC232"/>
<path d="M356.172 32.3622C356.172 32.5031 356.453 32.3622 356.453 32.2213C356.313 32.0804 356.172 32.0805 356.031 32.0805C352.374 32.9256 349.279 35.3203 346.466 37.7149C347.451 36.0246 348.576 34.3343 349.842 32.9256C347.17 33.4891 344.497 34.1934 341.825 35.0385C343.091 34.3343 344.357 33.4891 345.623 32.7848C346.466 32.3622 347.17 31.7987 348.014 31.517C349.983 30.6718 352.233 30.3901 354.343 30.1084C353.5 30.8127 352.655 31.517 351.812 32.2213C354.343 32.3622 356.875 32.0804 359.266 31.517C357.578 33.3482 354.765 33.2074 352.374 33.7708C352.233 33.7708 352.092 33.9117 351.952 33.9117C351.812 34.0526 351.952 34.1934 352.092 34.1934L356.172 32.3622Z" fill="#FDC232"/>
<path d="M257.291 34.7577C257.572 34.7577 258.135 35.462 258.416 35.6028C258.838 35.8846 259.26 36.1663 259.682 36.448C260.526 37.0114 261.37 37.4341 262.073 37.9975C263.339 38.7018 264.465 39.547 265.73 40.1104C266.293 40.3922 266.996 40.6739 267.699 40.8147C267.981 40.9556 269.387 40.9556 269.528 41.2373C266.574 37.2932 262.214 34.476 257.291 34.7577Z" fill="#FDC232"/>
<path d="M340.418 37.433C336.761 35.6017 333.526 33.2071 330.854 30.249C330.994 30.3899 331.838 30.3899 332.12 30.5307C332.541 30.6716 332.963 30.6716 333.526 30.8124C334.229 30.9533 334.792 31.0942 335.214 31.5167C336.479 32.6436 337.605 33.9114 338.73 35.1792C339.293 35.7426 339.855 36.5878 340.418 37.433Z" fill="#FDC232"/>
<path d="M290.344 38.42C291.187 38.2792 291.891 37.8565 292.735 37.434C293.579 37.0114 294.282 36.448 295.126 36.0254C296.392 35.4619 297.799 35.0394 299.205 34.8984C299.627 34.8984 300.049 34.8984 299.767 35.3211C299.346 35.8845 298.502 36.1662 297.939 36.4479C297.095 36.8706 296.251 37.2931 295.266 37.5748C293.438 38.1383 291.891 38.2792 290.344 38.42Z" fill="#FDC232"/>
<path d="M392.179 50.9565C388.944 51.2382 385.849 51.8017 382.755 52.7877C384.161 52.0834 385.428 50.9565 386.412 49.5479C383.318 50.6748 380.083 51.8017 376.848 52.6468C379.802 53.6329 383.036 54.0554 386.272 53.7737C385.006 54.7598 383.599 55.6049 382.333 56.591C382.474 56.4501 383.318 56.7318 383.458 56.7318C383.881 56.7318 384.303 56.7318 384.724 56.591C385.287 56.4501 385.99 56.3093 386.412 55.8867C387.678 54.9006 388.944 53.9146 390.21 52.7877C390.773 52.2242 391.476 51.52 392.179 50.9565Z" fill="#F39D00"/>
<path d="M302.159 54.7598C303.144 56.3092 303.987 57.8588 305.535 58.8448C306.379 59.4083 307.082 60.2534 307.785 60.9577C308.208 61.3803 308.629 61.8029 309.051 62.0847C309.192 62.2255 309.896 63.0707 310.036 63.0707C309.333 61.5212 308.488 59.9717 307.504 58.7039C306.941 57.9996 306.379 57.4362 305.816 56.8727C305.535 56.591 305.394 56.591 305.113 56.3092C304.129 56.0275 303.144 55.3233 302.159 54.7598Z" fill="#F39D00"/>
<path d="M255.744 59.1261C254.338 59.5487 253.494 60.8164 252.791 62.0842C252.087 63.352 251.525 64.7606 250.4 65.4649C250.821 63.9154 251.243 62.3659 251.946 60.9573C250.118 63.352 248.008 65.6057 245.617 67.4367C247.164 63.2111 250.118 59.6895 253.775 57.2949C253.775 58.1401 253.775 59.1261 253.634 59.9713C255.041 58.9853 256.729 58.2809 258.417 58.1401C258.276 58.5627 257.995 58.8444 257.572 58.9853C256.166 59.9712 254.619 60.8164 253.212 61.8025L255.744 59.1261Z" fill="#F39D00"/>
<path d="M227.049 66.0282C224.799 65.3239 222.548 64.6197 220.298 63.9153C221.564 65.0422 222.829 66.31 223.954 67.4367C219.876 64.9014 215.797 62.5067 211.296 60.9572C213.687 61.6616 216.078 62.5067 218.469 63.211C217.765 62.0841 217.203 60.8164 216.5 59.6895C218.328 60.8164 220.016 61.9433 221.845 63.0702C221.704 62.6476 221.001 61.5207 221.423 61.0981C222.407 61.8024 223.251 62.7885 224.236 63.6336C224.658 64.0562 225.22 64.4788 225.642 64.7605C225.924 65.1831 226.487 65.8876 227.049 66.0282Z" fill="#F39D00"/>
<path d="M204.686 76.5939C205.389 75.1846 206.514 74.1992 207.639 73.0718C208.905 71.8045 210.311 70.3959 211.718 69.2686C211.999 69.128 213.828 67.86 213.969 68.7055C214.109 69.2686 212.703 70.3959 212.421 70.6771C211.578 71.5227 210.593 72.3675 209.608 73.0718C208.202 74.4804 206.514 75.6077 204.686 76.5939Z" fill="#F39D00"/>
<path d="M381.348 81.8048C377.832 82.9315 374.174 83.9176 370.658 84.7631C373.331 83.4952 376.003 81.9454 378.254 79.9738C376.003 80.2556 373.753 80.5368 371.361 80.5368C372.487 80.5368 373.471 79.8325 374.315 79.2695C376.707 77.7197 379.379 76.7336 382.192 76.1705C382.895 76.0293 383.88 76.0293 384.162 76.7336C382.754 78.0015 381.208 79.1283 379.801 80.3962C381.77 80.3962 383.599 80.2556 385.427 79.9738C385.287 80.1144 385.146 80.1144 385.005 80.1144C385.146 79.9738 385.287 79.9738 385.427 79.8325C384.302 80.8187 382.754 81.3823 381.348 81.8048Z" fill="#FDC232"/>
<path d="M360.671 79.129C361.796 76.593 362.922 74.1984 363.906 71.6631C362.922 72.7898 362.078 73.9165 361.093 75.0439C360.671 75.4663 360.249 76.03 359.687 76.03C359.405 76.03 359.124 75.8888 358.842 75.8888C358.28 75.6069 357.858 75.3257 357.577 74.762C357.296 74.1984 357.436 73.4941 357.858 73.2122C356.874 75.3251 355.608 77.4386 354.201 79.2696C356.171 78.5653 358.139 77.861 360.109 77.4386C359.265 78.4247 358.421 79.692 357.858 80.96C358.983 80.5375 360.109 79.8332 361.093 79.129H360.671Z" fill="#FDC232"/>
<path d="M319.179 80.96C321.429 82.3685 323.821 83.6365 326.212 84.7632C326.071 84.3408 325.93 84.0589 325.649 83.7771C328.181 83.4952 330.572 85.4675 333.104 85.3269C332.822 85.3269 331.979 84.4814 331.838 84.3408C331.416 84.0589 330.994 83.7771 330.572 83.3546C330.009 82.9322 329.447 82.791 328.884 82.5091C326.915 81.6642 324.946 81.2418 322.836 81.1006C321.57 81.1006 320.304 80.96 319.179 80.96Z" fill="#FDC232"/>
<path d="M292.736 81.242C291.189 80.2558 289.641 79.2697 287.953 78.5654C288.235 78.7067 288.798 78.5654 289.079 78.5654C289.501 78.5654 289.923 78.7067 290.204 78.7067C290.907 78.8473 291.751 79.1291 292.454 79.411C293.158 79.6921 293.861 80.1152 294.565 80.5377C294.987 80.8195 295.83 81.242 296.112 81.8056C296.533 82.5099 295.408 82.6505 294.987 82.6505C293.861 82.7911 292.736 82.6505 291.611 82.6505C289.501 82.6505 287.532 82.6505 285.422 82.7911C287.813 81.6644 290.345 81.242 292.736 81.242Z" fill="#FDC232"/>
<path d="M260.385 86.8756C262.073 86.735 263.339 85.1852 264.745 84.1991C266.574 83.0723 268.683 82.6499 270.653 82.0862C270.934 82.0862 273.325 81.1001 273.184 81.8044C273.044 82.3681 271.356 83.2129 270.934 83.4948C269.809 84.1991 268.543 84.7627 267.136 85.1852C266.152 85.467 265.027 85.7489 264.042 85.8895C263.057 86.4531 261.651 86.8756 260.385 86.8756Z" fill="#FDC232"/>
</g>
<defs>
<clipPath id="clip0_930_10846">
<rect width="431" height="113" fill="white"/>
</clipPath>
</defs>
</svg>
