<svg width="29" height="29" viewBox="0 0 29 29" fill="none" xmlns="http://www.w3.org/2000/svg">
<circle cx="14.2372" cy="14.0789" r="13.6096" stroke="white" stroke-width="0.938596"/>
<g clip-path="url(#clip0_930_10752)">
<path d="M20.0925 8.79412C19.0154 8.3084 17.861 7.94939 16.6537 7.74524C16.6429 7.74318 16.6318 7.74451 16.6218 7.74905C16.6119 7.75359 16.6036 7.76111 16.5981 7.77058C16.4503 8.03034 16.2855 8.36894 16.1701 8.63644C14.8897 8.44513 13.5879 8.44513 12.3075 8.63644C12.1789 8.33998 12.0339 8.05091 11.8732 7.77058C11.8677 7.761 11.8595 7.7533 11.8496 7.74852C11.8396 7.74374 11.8285 7.74211 11.8176 7.74383C10.611 7.94798 9.45654 8.30699 8.37879 8.79342C8.36952 8.79731 8.36166 8.80394 8.35627 8.81243C6.16558 12.033 5.56511 15.174 5.86007 18.2756C5.86089 18.2832 5.86325 18.2905 5.867 18.2972C5.87075 18.3038 5.87582 18.3097 5.88189 18.3143C7.16054 19.2452 8.58669 19.9544 10.1006 20.4121C10.1112 20.4153 10.1225 20.4153 10.133 20.412C10.1436 20.4088 10.1529 20.4024 10.1598 20.3938C10.4856 19.9581 10.7743 19.4958 11.0228 19.0119C11.0263 19.0053 11.0283 18.998 11.0286 18.9906C11.029 18.9831 11.0278 18.9757 11.0251 18.9687C11.0224 18.9618 11.0182 18.9555 11.0128 18.9503C11.0074 18.9452 11.001 18.9412 10.994 18.9387C10.5392 18.7675 10.0986 18.5608 9.67617 18.3206C9.66858 18.3163 9.66218 18.3102 9.65755 18.3027C9.65292 18.2953 9.65021 18.2869 9.64965 18.2782C9.64909 18.2694 9.65071 18.2607 9.65435 18.2528C9.658 18.2448 9.66356 18.2379 9.67054 18.2326C9.75923 18.1672 9.84793 18.0989 9.9324 18.0306C9.94001 18.0245 9.94917 18.0206 9.95886 18.0193C9.96856 18.0181 9.9784 18.0196 9.98731 18.0236C12.7517 19.2653 15.7456 19.2653 18.4776 18.0236C18.4866 18.0193 18.4965 18.0176 18.5063 18.0188C18.5162 18.0199 18.5255 18.0237 18.5332 18.0299C18.6177 18.0989 18.7057 18.1672 18.7951 18.2326C18.8021 18.2378 18.8078 18.2446 18.8116 18.2525C18.8153 18.2604 18.8171 18.2691 18.8167 18.2778C18.8162 18.2865 18.8137 18.295 18.8092 18.3025C18.8047 18.3099 18.7984 18.3162 18.7909 18.3206C18.3699 18.5628 17.9321 18.7676 17.4724 18.938C17.4653 18.9406 17.4589 18.9446 17.4535 18.9499C17.4481 18.9551 17.444 18.9614 17.4412 18.9684C17.4385 18.9754 17.4373 18.9829 17.4377 18.9904C17.4381 18.9979 17.4401 19.0052 17.4435 19.0119C17.6969 19.4955 17.987 19.9559 18.3059 20.3931C18.3125 20.402 18.3217 20.4087 18.3323 20.4123C18.3429 20.4158 18.3543 20.416 18.365 20.4128C19.8815 19.9564 21.31 19.2469 22.5901 18.3143C22.5963 18.3099 22.6016 18.3043 22.6055 18.2977C22.6093 18.2912 22.6118 18.2839 22.6126 18.2763C22.9646 14.6904 22.0227 11.5747 20.1143 8.81383C20.1096 8.80486 20.1019 8.79787 20.0925 8.79412ZM11.436 16.3869C10.604 16.3869 9.91762 15.6344 9.91762 14.7115C9.91762 13.7879 10.5906 13.0361 11.436 13.0361C12.2878 13.0361 12.9678 13.7943 12.9544 14.7115C12.9544 15.6351 12.2815 16.3869 11.436 16.3869ZM17.05 16.3869C16.2172 16.3869 15.5316 15.6344 15.5316 14.7115C15.5316 13.7879 16.2039 13.0361 17.05 13.0361C17.9018 13.0361 18.5818 13.7943 18.5684 14.7115C18.5684 15.6351 17.9025 16.3869 17.05 16.3869Z" fill="white"/>
</g>
<defs>
<clipPath id="clip0_930_10752">
<rect width="16.8947" height="16.8947" fill="white" transform="translate(5.79004 5.63184)"/>
</clipPath>
</defs>
</svg>
